<svg xmlns="http://www.w3.org/2000/svg" width="512" height="98" viewBox="0 0 512 98" fill="none"><g clip-path="url(#clip0_721_5883)"><path d="M135.87 2.36167C131.587 -2.06168 125.283 0.621335 120.803 3.18004C108.683 10.1103 97.1686 18.1283 85.323 25.504C84.8723 25.7837 84.5253 26.1152 84.2612 26.4777C86.276 27.9798 88.3064 29.4871 90.342 30.9995C100.515 24.6286 110.516 17.9936 120.772 11.7574C122.523 10.6956 128.101 6.29296 130.251 7.26672C132.757 8.40104 130.52 14.9118 129.976 16.8282C127.92 24.0796 125.423 31.2274 122.709 38.2509C121.191 42.177 119.591 46.072 117.902 49.9256C117.131 51.6867 115.779 57.032 113.779 57.3531C112.391 57.581 109.232 54.8514 108.134 54.0952C106.409 52.9039 104.726 51.6504 103.032 50.4229C100.059 48.2733 97.1013 46.1031 94.1438 43.9329C81.055 34.304 68.0957 24.5095 54.9914 14.9014C51.1896 12.1148 47.5329 18.4649 51.2984 21.2205C63.978 30.5178 76.5281 39.9912 89.1869 49.3196C95.3351 53.8517 101.494 59.3006 108.268 62.8538C113.386 65.5368 118.224 65.397 121.305 60.0413C124.817 53.9346 127.236 46.7557 129.769 40.1932C132.483 33.1645 134.979 26.0219 137.036 18.7705C138.47 13.6997 140.019 6.63999 135.876 2.36685L135.87 2.36167Z" fill="url(#paint0_radial_721_5883)"></path><path d="M43.7621 72.6591C37.3964 76.3624 31.0152 80.0451 24.6081 83.6708C21.5055 85.4267 18.4029 87.1877 15.2589 88.8763C13.6429 89.7464 11.3121 91.378 9.45264 90.3162C6.96645 88.9022 7.19435 83.7796 7.49995 81.4125C8.19919 75.9947 9.63393 70.5303 10.877 65.216C12.8815 56.6076 15.4972 48.1804 18.0404 39.7274C19.4026 35.2056 12.3377 33.2736 10.9806 37.7799C7.94021 47.88 4.92052 57.9439 2.69849 68.2668C0.968517 76.3106 -3.42893 89.9951 4.98786 96.1018C9.463 99.3493 14.5493 97.5676 18.952 95.1953C26.2603 91.264 33.4444 87.0841 40.6284 82.9353C55.2089 74.5133 69.6858 65.9153 84.2922 57.5399C84.7532 57.2757 85.1106 56.9598 85.3851 56.6076C83.3132 55.0848 81.2466 53.5568 79.1851 52.0288C67.3395 58.84 55.5715 65.7806 43.7621 72.6487V72.6591Z" fill="url(#paint1_radial_721_5883)"></path><path d="M172.189 57.1825V37.2619H172.314L191.25 57.1825H202.878L181.627 34.3976L201.951 13.5654H190.442L172.314 32.5589H172.189V13.5654H162.602V57.1825H172.189Z" fill="black"></path><path d="M214.698 13.5654H205.105V57.1877H214.698V13.5654Z" fill="black"></path><path d="M293.464 57.1824L273.419 13.5601H265.748L245.703 57.1824H255.358L259.367 47.7141H279.764L283.82 57.1824H293.474H293.464ZM262.578 40.2296L269.519 23.769H269.643L276.584 40.2296H262.583H262.578Z" fill="black"></path><path d="M306.827 13.5654H297.234V57.1825H326.996V49.0817H306.827V13.5654Z" fill="black"></path><path d="M362.451 49.0817H342.281V13.5654H332.689V57.1825H362.451V49.0817Z" fill="black"></path><path d="M377.735 13.5654H368.143V57.1877H377.735V13.5654Z" fill="black"></path><path d="M395.17 47.7195H415.567L419.622 57.1877H429.277L409.232 13.5654H401.561L381.516 57.1877H391.171L395.18 47.7195H395.17ZM405.332 23.7744H405.456L412.397 40.235H398.397L405.337 23.7744H405.332Z" fill="black"></path><path d="M441.962 29.3735L463.742 57.1825H470.853V13.5654H461.882V41.2398L440.165 13.5654H433.048V57.1825H441.962V29.3735Z" fill="black"></path><path d="M512 49.2008H489.236L511.011 20.6148V13.5654H478.094V21.5471H499.885L478.094 50.1332V57.1825H512V49.2008Z" fill="black"></path><path d="M258.647 80.4852C258.16 80.1848 257.616 79.9672 257.01 79.8274C257.906 79.5063 258.652 79.0194 259.237 78.3668C260.019 77.4966 260.408 76.4089 260.408 75.1036C260.408 73.3426 259.817 71.9907 258.642 71.0377C257.466 70.0898 255.808 69.6133 253.669 69.6133H245.688V90.5335H254.058C255.503 90.5335 256.736 90.316 257.751 89.8809C258.771 89.4458 259.548 88.8036 260.082 87.9541C260.615 87.1047 260.884 86.0636 260.884 84.8412C260.884 83.8312 260.693 82.9662 260.304 82.2462C259.921 81.5263 259.367 80.941 258.642 80.4956L258.647 80.4852ZM247.474 71.1516H253.467C255.13 71.1516 256.394 71.4935 257.264 72.1772C258.134 72.8609 258.569 73.8553 258.569 75.1606C258.569 76.4658 258.134 77.4603 257.264 78.144C256.394 78.8277 255.13 79.1696 253.467 79.1696H247.474V71.1568V71.1516ZM258.844 86.3588C258.704 86.8043 258.497 87.1876 258.222 87.5139C257.942 87.8402 257.606 88.1147 257.196 88.3322C256.792 88.5498 256.316 88.7155 255.772 88.8191C255.228 88.9279 254.612 88.9797 253.918 88.9797H247.48V80.7027H253.918C254.612 80.7027 255.228 80.7545 255.772 80.8633C256.316 80.9721 256.792 81.1378 257.196 81.3554C257.601 81.5729 257.942 81.8422 258.222 82.1685C258.497 82.4949 258.709 82.8781 258.844 83.3236C258.983 83.769 259.051 84.2766 259.051 84.8516C259.051 85.4265 258.983 85.903 258.844 86.3485V86.3588Z" fill="black"></path><path d="M275.703 78.8693C275.346 78.082 274.812 77.4294 274.102 76.9114C273.155 76.2173 272.005 75.8755 270.658 75.8755C269.311 75.8755 268.218 76.1811 267.26 76.7975C266.302 77.4086 265.561 78.2684 265.049 79.3769C264.536 80.4853 264.277 81.8009 264.277 83.3237C264.277 84.8465 264.541 86.1673 265.064 87.2861C265.587 88.4049 266.328 89.2647 267.291 89.8655C268.25 90.4715 269.374 90.7719 270.658 90.7719C271.943 90.7719 273.149 90.4249 274.102 89.736C274.817 89.218 275.351 88.5654 275.703 87.7781V90.5388H277.485V76.15H275.703V78.8796V78.8693ZM274.413 87.7108C273.553 88.7415 272.383 89.2543 270.896 89.2543C269.41 89.2543 268.296 88.7415 267.426 87.7108C266.556 86.6801 266.121 85.2194 266.121 83.3185C266.121 81.4176 266.556 79.9829 267.426 78.9573C268.296 77.9318 269.451 77.4138 270.896 77.4138C272.341 77.4138 273.553 77.9266 274.413 78.9573C275.273 79.9881 275.703 81.4383 275.703 83.3185C275.703 85.1987 275.273 86.6801 274.413 87.7108Z" fill="black"></path><path d="M292.418 78.807C292.06 78.0456 291.537 77.4137 290.843 76.9061C289.895 76.212 288.745 75.8702 287.399 75.8702C286.052 75.8702 284.959 76.1758 284.001 76.7922C283.043 77.4033 282.302 78.2632 281.789 79.3716C281.276 80.48 281.017 81.7956 281.017 83.3184C281.017 84.8412 281.282 86.162 281.805 87.2808C282.328 88.3996 283.068 89.2594 284.032 89.8602C284.99 90.4662 286.114 90.7666 287.399 90.7666C288.683 90.7666 289.89 90.4196 290.843 89.7307C291.558 89.2128 292.091 88.5601 292.443 87.7728V90.5335H294.225V69.6133H292.418V78.8122V78.807ZM291.154 87.7107C290.294 88.7414 289.123 89.2542 287.637 89.2542C286.15 89.2542 285.037 88.7414 284.167 87.7107C283.296 86.6799 282.861 85.2193 282.861 83.3184C282.861 81.4175 283.296 79.9828 284.167 78.9572C285.037 77.9317 286.192 77.4137 287.637 77.4137C289.082 77.4137 290.294 77.9265 291.154 78.9572C292.014 79.988 292.443 81.4382 292.443 83.3184C292.443 85.1986 292.014 86.6799 291.154 87.7107Z" fill="black"></path><path d="M307.573 76.7144C306.672 76.1498 305.579 75.8701 304.294 75.8701C303.01 75.8701 301.798 76.1861 300.777 76.818C299.757 77.4499 298.965 78.3252 298.39 79.444C297.815 80.5628 297.53 81.8732 297.53 83.3753C297.53 84.8774 297.815 86.2137 298.39 87.3221C298.965 88.4306 299.783 89.28 300.855 89.8757C301.927 90.4713 303.201 90.7666 304.683 90.7666C305.713 90.7666 306.718 90.5904 307.708 90.2331C308.697 89.8757 309.505 89.4043 310.142 88.8087L309.427 87.4413C308.676 88.0939 307.91 88.5601 307.128 88.8346C306.345 89.1091 305.511 89.2489 304.621 89.2489C303.512 89.2489 302.554 89.021 301.741 88.5652C300.928 88.1094 300.322 87.4413 299.918 86.5607C299.55 85.7631 299.353 84.81 299.317 83.6964H310.38V82.8677C310.38 81.4019 310.137 80.1536 309.655 79.1125C309.168 78.0766 308.479 77.2738 307.578 76.7092L307.573 76.7144ZM299.343 82.3705C299.415 81.5573 299.591 80.8218 299.871 80.1588C300.249 79.2783 300.808 78.5842 301.565 78.0818C302.316 77.5794 303.238 77.3256 304.325 77.3256C305.791 77.3256 306.894 77.8073 307.651 78.7655C308.345 79.6512 308.712 80.8529 308.769 82.3705H299.348H299.343Z" fill="black"></path><path d="M323.21 76.4815C322.449 76.0775 321.495 75.8755 320.346 75.8755C319.097 75.8755 317.994 76.1811 317.036 76.7975C316.3 77.2688 315.736 77.9059 315.332 78.7087V76.1448H313.55V90.5337H315.358V82.3137C315.358 81.3244 315.549 80.4646 315.938 79.7343C316.321 79.0039 316.87 78.4394 317.585 78.0405C318.295 77.6469 319.128 77.4449 320.076 77.4449C320.905 77.4449 321.589 77.5951 322.122 77.8903C322.656 78.1856 323.044 78.6414 323.293 79.2577C323.541 79.8741 323.666 80.651 323.666 81.6041V90.5337H325.473V81.4539C325.473 80.2056 325.287 79.1697 324.909 78.341C324.531 77.5122 323.966 76.8907 323.205 76.4867L323.21 76.4815Z" fill="black"></path><path d="M337.485 81.8628H329.415V83.4063H337.485V81.8628Z" fill="black"></path><path d="M361.223 87.9337L354.899 69.6084H353.355L347.041 87.8456L340.774 69.6084H338.878L346.145 90.5287H347.808L354.127 72.3639L360.389 90.5287H362.109L369.381 69.6084H367.542L361.223 87.9337Z" fill="black"></path><path d="M381.071 84.3286C381.071 85.3179 380.879 86.1777 380.491 86.9081C380.107 87.6384 379.574 88.2081 378.901 88.6121C378.227 89.0162 377.445 89.2182 376.554 89.2182C375.741 89.2182 375.073 89.0679 374.534 88.7727C374.001 88.4775 373.607 88.0217 373.364 87.4053C373.115 86.7941 372.991 86.0224 372.991 85.09V76.1294H371.183V85.1781C371.183 86.4057 371.37 87.4312 371.748 88.2651C372.126 89.0939 372.69 89.7206 373.452 90.1349C374.213 90.5493 375.166 90.7565 376.316 90.7565C377.523 90.7565 378.59 90.4405 379.522 89.8086C380.206 89.3425 380.739 88.7209 381.123 87.944V90.5234H382.873V76.1346H381.066V84.3235L381.071 84.3286Z" fill="black"></path><path d="M375.695 70.1157H373.53V72.2549H375.695V70.1157Z" fill="black"></path><path d="M380.651 70.1157H378.486V72.2549H380.651V70.1157Z" fill="black"></path><path d="M393.564 75.8393C392.197 75.9377 391.093 76.2848 390.254 76.8752C389.607 77.331 389.099 77.9629 388.726 78.7606V76.1345H386.945V90.5234H388.783V82.0962C388.783 80.7495 389.172 79.6825 389.938 78.8901C390.71 78.0976 391.798 77.6366 393.202 77.4968L394.476 77.3466L394.3 75.772L393.559 75.8289L393.564 75.8393Z" fill="black"></path><path d="M404.897 89.0627C404.581 89.1507 404.255 89.1974 403.918 89.1974C402.768 89.1974 401.95 88.8814 401.453 88.2495C400.955 87.6176 400.712 86.6956 400.712 85.4888V77.5951H405.368V76.1397H400.712V71.6904H398.904V76.1397H396.055V77.5951H398.904V85.727C398.904 87.3482 399.303 88.5965 400.106 89.4667C400.909 90.3369 402.11 90.7719 403.711 90.7719C404.125 90.7719 404.571 90.715 405.047 90.6062C405.524 90.4974 405.866 90.3731 406.088 90.2333L405.731 88.8089C405.493 88.8866 405.218 88.9746 404.902 89.0627H404.897Z" fill="black"></path><path d="M415.909 89.0627C415.593 89.1507 415.266 89.1974 414.93 89.1974C413.78 89.1974 412.962 88.8814 412.464 88.2495C411.967 87.6176 411.724 86.6956 411.724 85.4888V77.5951H416.38V76.1397H411.724V71.6904H409.916V76.1397H407.067V77.5951H409.916V85.727C409.916 87.3482 410.315 88.5965 411.118 89.4667C411.92 90.3369 413.122 90.7719 414.723 90.7719C415.137 90.7719 415.582 90.715 416.059 90.6062C416.535 90.4974 416.877 90.3731 417.1 90.2333L416.743 88.8089C416.504 88.8866 416.23 88.9746 415.914 89.0627H415.909Z" fill="black"></path><path d="M427.972 76.7144C427.071 76.1498 425.978 75.8701 424.693 75.8701C423.409 75.8701 422.197 76.1861 421.176 76.818C420.156 77.4499 419.363 78.3252 418.789 79.444C418.214 80.5628 417.929 81.8732 417.929 83.3753C417.929 84.8774 418.214 86.2137 418.789 87.3221C419.363 88.4306 420.182 89.28 421.254 89.8757C422.326 90.4713 423.6 90.7666 425.082 90.7666C426.112 90.7666 427.117 90.5904 428.107 90.2331C429.096 89.8757 429.904 89.4043 430.541 88.8087L429.831 87.4413C429.08 88.0939 428.314 88.5601 427.532 88.8346C426.749 89.1091 425.916 89.2489 425.025 89.2489C423.916 89.2489 422.958 89.021 422.145 88.5652C421.332 88.1094 420.726 87.4413 420.322 86.5607C419.954 85.7631 419.757 84.81 419.721 83.6964H430.784V82.8677C430.784 81.4019 430.541 80.1536 430.059 79.1125C429.572 78.0766 428.883 77.2738 427.982 76.7092L427.972 76.7144ZM419.742 82.3705C419.814 81.5573 419.99 80.8218 420.27 80.1588C420.648 79.2783 421.207 78.5842 421.964 78.0818C422.715 77.5794 423.637 77.3256 424.724 77.3256C426.19 77.3256 427.293 77.8073 428.05 78.7655C428.744 79.6512 429.111 80.8529 429.168 82.3705H419.747H419.742Z" fill="black"></path><path d="M452.181 76.4917C451.477 76.0773 450.591 75.8701 449.524 75.8701C448.276 75.8701 447.193 76.2068 446.277 76.8801C445.562 77.4033 445.023 78.0611 444.66 78.8536C444.386 77.973 443.946 77.2841 443.34 76.7921C442.578 76.1809 441.563 75.8701 440.299 75.8701C439.528 75.8701 438.818 76.0151 438.165 76.3C437.513 76.5849 436.953 76.9993 436.487 77.5328C436.197 77.8643 435.959 78.2424 435.762 78.6671V76.1395H433.98V90.5283H435.788V82.3394C435.788 81.3294 435.959 80.4592 436.306 79.7289C436.653 78.9986 437.135 78.434 437.761 78.0352C438.383 77.6415 439.124 77.4395 439.973 77.4395C441.138 77.4395 441.977 77.771 442.48 78.434C442.982 79.097 443.236 80.1484 443.236 81.5935V90.5231H445.044V82.3342C445.044 81.3242 445.21 80.454 445.546 79.7237C445.883 78.9934 446.365 78.4288 447.002 78.03C447.634 77.6363 448.369 77.4343 449.198 77.4343C450.384 77.4343 451.228 77.7658 451.736 78.4288C452.238 79.0918 452.492 80.1433 452.492 81.5884V90.5179H454.3V81.4381C454.3 80.1899 454.124 79.1591 453.766 78.3356C453.409 77.5172 452.88 76.8957 452.181 76.4813V76.4917Z" fill="black"></path><path d="M468.564 76.7925C467.616 76.1813 466.487 75.8705 465.182 75.8705C463.877 75.8705 462.691 76.2175 461.738 76.9064C461.033 77.4192 460.5 78.0614 460.137 78.8332V69.6084H458.329V90.5287H460.137V87.799C460.505 88.5708 461.038 89.213 461.738 89.7258C462.685 90.4199 463.835 90.7617 465.182 90.7617C466.529 90.7617 467.59 90.4613 468.549 89.8553C469.507 89.2493 470.248 88.3895 470.776 87.2759C471.299 86.1571 471.563 84.8363 471.563 83.3135C471.563 81.7907 471.299 80.4751 470.776 79.3667C470.253 78.2583 469.512 77.3985 468.564 76.7873V76.7925ZM468.414 87.711C467.544 88.7417 466.378 89.2545 464.913 89.2545C463.447 89.2545 462.281 88.7417 461.411 87.711C460.541 86.6802 460.106 85.2196 460.106 83.3187C460.106 81.4178 460.541 79.9831 461.411 78.9575C462.281 77.932 463.447 77.414 464.913 77.414C466.378 77.414 467.544 77.9268 468.414 78.9575C469.284 79.9882 469.719 81.4385 469.719 83.3187C469.719 85.1989 469.284 86.6802 468.414 87.711Z" fill="black"></path><path d="M484.243 76.7144C483.341 76.1498 482.249 75.8701 480.964 75.8701C479.679 75.8701 478.467 76.1861 477.447 76.818C476.427 77.4499 475.634 78.3252 475.059 79.444C474.484 80.5628 474.199 81.8732 474.199 83.3753C474.199 84.8774 474.484 86.2137 475.059 87.3221C475.634 88.4306 476.453 89.28 477.525 89.8757C478.597 90.4713 479.871 90.7666 481.352 90.7666C482.383 90.7666 483.388 90.5904 484.377 90.2331C485.367 89.8757 486.175 89.4043 486.812 88.8087L486.102 87.4413C485.351 88.0939 484.584 88.5601 483.802 88.8346C483.02 89.1091 482.186 89.2489 481.295 89.2489C480.187 89.2489 479.229 89.021 478.416 88.5652C477.602 88.1094 476.996 87.4413 476.592 86.5607C476.225 85.7631 476.028 84.81 475.992 83.6964H487.055V82.8677C487.055 81.4019 486.812 80.1536 486.33 79.1125C485.843 78.0766 485.154 77.2738 484.253 76.7092L484.243 76.7144ZM476.012 82.3705C476.085 81.5573 476.261 80.8218 476.541 80.1588C476.914 79.2783 477.478 78.5842 478.234 78.0818C478.985 77.5794 479.907 77.3256 480.995 77.3256C482.461 77.3256 483.564 77.8073 484.32 78.7655C485.014 79.6512 485.382 80.8529 485.439 82.3705H476.017H476.012Z" fill="black"></path><path d="M496.834 75.8393C495.467 75.9377 494.364 76.2848 493.525 76.8752C492.877 77.331 492.37 77.9629 491.997 78.7606V76.1345H490.215V90.5234H492.054V82.0962C492.054 80.7495 492.442 79.6825 493.209 78.8901C493.98 78.0976 495.068 77.6366 496.472 77.4968L497.746 77.3466L497.57 75.772L496.829 75.8289L496.834 75.8393Z" fill="black"></path><path d="M510.223 76.1396V78.8641C509.887 78.0872 509.364 77.4397 508.649 76.9269C507.68 76.2225 506.53 75.8755 505.204 75.8755C503.878 75.8755 502.734 76.1759 501.76 76.7819C500.791 77.3879 500.046 78.2218 499.517 79.2888C498.994 80.3558 498.73 81.6041 498.73 83.0285C498.73 84.4528 498.994 85.7063 499.517 86.7837C500.04 87.861 500.786 88.7001 501.76 89.3061C502.729 89.9121 503.878 90.2125 505.204 90.2125C506.53 90.2125 507.675 89.8655 508.649 89.1766C509.369 88.6638 509.902 88.0008 510.249 87.1928V89.9794C510.249 91.4608 509.871 92.6055 509.12 93.4083C508.369 94.2111 507.271 94.61 505.826 94.61C505.111 94.61 504.453 94.553 503.853 94.4339C503.247 94.3147 502.661 94.1179 502.086 93.8382C501.511 93.5637 500.921 93.2063 500.305 92.7712L499.621 94.1386C500.45 94.7913 501.397 95.2833 502.454 95.62C503.511 95.9567 504.655 96.1224 505.883 96.1224C507.23 96.1224 508.354 95.8841 509.265 95.4076C510.177 94.9311 510.855 94.2163 511.311 93.2581C511.767 92.2999 511.995 91.1189 511.995 89.7101V76.15H510.213L510.223 76.1396ZM508.944 87.1307C508.074 88.1511 506.898 88.6587 505.412 88.6587C503.925 88.6587 502.749 88.1511 501.879 87.1307C501.009 86.1103 500.574 84.7429 500.574 83.0233C500.574 81.3037 501.009 79.9363 501.879 78.9263C502.749 77.9162 503.925 77.4138 505.412 77.4138C506.898 77.4138 508.074 77.9162 508.944 78.9263C509.814 79.9363 510.249 81.2985 510.249 83.0233C510.249 84.7481 509.814 86.1155 508.944 87.1307Z" fill="black"></path><path d="M223.115 36.9512V44.1611V44.2544H240.984H242.17V41.1363V36.9512H223.115Z" fill="black"></path></g><defs><radialGradient id="paint0_radial_721_5883" cx="0" cy="0" r="1" gradientUnits="userSpaceOnUse" gradientTransform="translate(2.64676 94.2782) scale(159.774 159.774)"><stop stop-color="#000AFA"></stop><stop offset="0.97" stop-color="#BA477F"></stop></radialGradient><radialGradient id="paint1_radial_721_5883" cx="0" cy="0" r="1" gradientUnits="userSpaceOnUse" gradientTransform="translate(2.64669 94.2786) scale(159.774 159.774)"><stop stop-color="#000AFA"></stop><stop offset="0.97" stop-color="#BA477F"></stop></radialGradient><clipPath id="clip0_721_5883"><rect width="512" height="97.8731" fill="white"></rect></clipPath></defs></svg>