<svg width="277" height="42" viewBox="0 0 277 42" fill="none" xmlns="http://www.w3.org/2000/svg">
<g clip-path="url(#clip0_1_281)">
<g clip-path="url(#clip1_1_281)">
<path d="M27.8885 34.458C28.7537 34.2291 29.3866 33.3291 29.3158 32.3047C29.2273 31.0347 28.0302 29.6914 25.1912 30.2547C24.1579 30.4602 23.312 30.7622 22.5004 31.0948C21.6483 31.4439 20.8341 31.8267 19.8805 32.1669C18.8985 32.5173 18.0744 32.6688 17.4334 32.6141C16.8568 32.565 16.4283 32.3491 16.1665 31.9614C15.8102 31.4247 16.328 30.8836 16.547 30.7325C16.9464 30.4703 17.306 30.0228 17.0935 29.295C16.7108 29.3619 16.0388 29.5878 15.5039 30.0115C15.0615 30.3618 14.7129 30.8475 14.6994 31.4903C14.7248 32.3691 15.33 33.0558 16.3368 33.298C17.0124 33.4604 17.5513 33.5127 18.1881 33.4289C19.1022 33.3087 20.2183 32.9083 22.2305 32.1514C24.1108 31.4229 25.1679 31.1102 25.9778 31.0734C26.486 31.0504 26.897 31.136 27.353 31.2958C27.6382 31.3958 27.8443 31.5473 27.9815 31.7244C28.1446 31.9351 28.2102 32.1819 28.195 32.4211C28.1663 32.8697 27.8533 33.2914 27.367 33.3968C27.255 33.4211 27.1337 33.4286 27.0045 33.4157C26.8541 33.4013 26.6903 33.3702 26.5055 33.3357C25.96 33.233 25.2243 33.095 24.0792 33.2217C23.3923 33.2977 22.558 33.4689 21.5291 33.8002C19.3822 34.4913 17.7799 34.7681 16.5429 34.8158C14.7909 34.8832 13.7718 34.4909 12.9767 34.1646C12.8983 33.4 12.7149 32.7683 12.4902 32.2549C12.1256 31.4218 11.6519 30.9003 11.3404 30.6281C11.3404 30.6281 11.5207 30.5158 11.6103 29.8858C11.1623 29.7959 10.5294 30.0492 10.5294 30.0492C10.5294 30.0492 9.35443 29.2914 7.76566 29.5614C7.15936 29.6681 6.87065 29.8347 6.70467 30.1103C5.44226 30.5758 5.33935 30.6558 5.01748 30.8425C4.80831 30.9747 4.82608 31.1514 4.82608 31.1958C4.82608 31.298 4.87916 31.3614 4.90233 31.3891C4.93561 31.428 4.96653 31.4636 4.96653 31.5347C4.9699 31.9036 4.93785 31.8775 5.05064 32.1697C5.10047 32.2875 5.21102 32.2786 5.34383 32.2331C6.17697 31.9208 6.81652 32.1644 6.85738 32.7304C6.89003 33.2185 6.43708 33.5689 5.83191 33.6178C5.69695 33.6259 5.60325 33.6315 5.55087 33.6344C5.45133 33.6411 5.38489 33.65 5.39601 33.7666C5.40887 33.859 5.54138 34.1914 5.57732 34.2857C5.66837 34.543 5.72658 34.579 5.94126 34.5868C6.34623 34.6013 6.87065 34.5001 7.03879 34.4479C7.03879 34.4479 7.02112 34.9635 7.1815 35.6657C5.77862 35.1579 4.70764 35.0001 3.51945 35.0435C2.33258 35.0864 1.54397 35.3308 1.02076 35.6256C0.094836 36.1473 0 36.8267 0 36.8267C0.00662765 36.8278 1.36532 37.1489 1.92179 36.9912C2.2991 36.8834 2.558 36.5167 2.558 36.5167C2.558 36.5167 3.45474 36.7016 4.63415 37.3301C5.21094 37.6375 5.85531 38.051 6.49549 38.6007C6.51918 38.6211 8.00126 37.9432 8.07417 37.9162C8.257 37.8487 8.3939 37.9713 8.42535 38.0311C8.47686 38.129 8.49476 38.3127 8.35184 38.4084C8.21136 38.5351 7.21807 38.9755 6.26099 39.5433C5.63919 39.9133 4.96327 40.3144 4.3824 40.6711C3.92658 40.6122 3.72854 40.5944 3.30038 40.5989C2.38537 40.6089 1.78346 41.4122 1.78346 41.9999H5.34272C5.49095 41.9458 6.97927 41.6408 8.4823 41.3387C9.57494 41.1191 10.6753 40.9011 11.2741 40.7823C11.5426 40.729 11.7086 40.6957 11.7309 40.6911C11.8107 40.673 11.9187 40.6601 12.0163 40.564C12.0652 40.5158 12.1115 40.4467 12.1503 40.3455C12.1779 40.2766 12.3041 39.9089 12.3041 39.9089L13.0829 39.8333C14.1225 39.7449 15.0442 39.5346 15.8715 39.2687C16.9348 38.927 17.8422 38.4933 18.6436 38.1078C19.6195 37.6378 20.4249 37.25 21.123 37.2189C21.0108 37.9121 21.1729 38.4513 21.2828 38.9825C21.3875 39.4884 21.4448 39.9871 21.1728 40.6044C19.1116 40.6044 19.3384 41.9999 19.3384 41.9999H22.9132C22.9132 41.9999 23.165 41.1741 23.744 40.2641C24.0104 39.8451 24.3369 39.4081 24.7567 39.0251C24.8442 38.9462 24.8364 38.8629 24.7866 38.7962C24.3329 38.2307 24.1036 37.0919 24.1036 37.0919C24.0648 36.9463 24.2399 36.8496 24.2996 36.8396C24.3626 36.8285 24.5324 36.8273 24.5671 36.9914C24.5671 36.9914 24.6468 37.7811 25.3915 38.4689C25.8626 38.9027 26.4345 39.2447 27.0047 39.5145C27.6906 39.839 28.3743 40.059 28.8787 40.2089C29.4551 40.38 29.5193 40.5733 29.5193 40.6311C29.5061 40.6311 29.3003 40.6411 29.2671 40.6444C28.975 40.6766 28.6398 40.7144 28.2492 41.0866C27.8498 41.4677 27.9339 41.9999 27.9339 41.9999H30.3934C30.7143 41.9999 30.8282 41.8099 30.9399 41.4466C31.0119 41.2133 31.3028 40.0289 31.3228 39.9478C31.419 39.5878 31.3183 39.3966 31.1944 39.2889C30.9124 39.0049 30.5696 38.7562 30.2534 38.5571C29.7408 38.2344 29.298 38.0423 29.298 38.0423C29.2396 37.4924 28.9813 36.5708 28.6198 35.7397C28.4064 35.2492 28.1537 34.7904 27.8885 34.458ZM6.82602 30.5648C7.19679 30.3424 7.68395 30.2855 8.08464 30.3329C8.04126 31.0606 7.02405 31.2536 6.82602 30.5648ZM3.34884 32.1202C3.36314 32.0891 3.37937 32.0585 3.39743 32.0285C3.4004 32.0235 3.4151 31.9992 3.41907 31.9938C3.42662 31.9836 3.44305 31.9899 3.44408 32.0025C3.45846 32.2891 3.62223 32.7324 4.4188 32.8324C5.1723 32.928 5.73879 32.7991 6.22227 32.6558C6.27649 32.7869 6.26208 32.9936 6.0132 33.0858C5.78861 33.1547 5.17782 33.3335 4.22852 33.2324C3.34219 33.1379 3.13782 32.5789 3.34884 32.1202ZM27.8885 19.8105C28.7537 19.5816 29.3866 18.6816 29.3158 17.6572C29.2273 16.3872 28.0302 15.0439 25.1912 15.6072C24.1579 15.8127 23.312 16.1147 22.5004 16.4473C21.6483 16.7964 20.8341 17.1792 19.8805 17.5194C18.8985 17.8698 18.0744 18.0213 17.4334 17.9666C16.8568 17.9175 16.4283 17.7016 16.1665 17.3139C15.8102 16.7772 16.328 16.2361 16.547 16.085C16.9464 15.8228 17.306 15.3753 17.0935 14.6475C16.7108 14.7144 16.0388 14.9403 15.5039 15.364C15.0615 15.7143 14.7129 16.2 14.6994 16.8428C14.7248 17.7216 15.33 18.4083 16.3368 18.6505C17.0124 18.8129 17.5513 18.8652 18.1881 18.7814C19.1022 18.6612 20.2183 18.2608 22.2305 17.5039C24.1108 16.7754 25.1679 16.4627 25.9778 16.4259C26.486 16.4029 26.897 16.4885 27.353 16.6483C27.6382 16.7483 27.8443 16.8998 27.9815 17.0769C28.1446 17.2876 28.2102 17.5344 28.195 17.7736C28.1663 18.2222 27.8533 18.6439 27.367 18.7493C27.255 18.7736 27.1337 18.7811 27.0045 18.7682C26.8541 18.7538 26.6903 18.7227 26.5055 18.6882C25.96 18.5855 25.2243 18.4475 24.0792 18.5742C23.3923 18.6502 22.558 18.8214 21.5291 19.1527C19.3822 19.8438 17.7799 20.1206 16.5429 20.1683C14.7909 20.2357 13.7718 19.8434 12.9767 19.5171C12.8983 18.7525 12.7149 18.1208 12.4902 17.6074C12.1256 16.7743 11.6519 16.2528 11.3404 15.9806C11.3404 15.9806 11.5207 15.8683 11.6103 15.2383C11.1623 15.1483 10.5294 15.4017 10.5294 15.4017C10.5294 15.4017 9.35443 14.6439 7.76566 14.9139C7.15936 15.0206 6.87065 15.1872 6.70467 15.4628C5.44226 15.9283 5.33935 16.0083 5.01748 16.195C4.80831 16.3272 4.82608 16.5039 4.82608 16.5483C4.82608 16.6505 4.87916 16.7139 4.90233 16.7416C4.93561 16.7805 4.96653 16.8161 4.96653 16.8872C4.9699 17.2561 4.93785 17.23 5.05064 17.5222C5.10047 17.64 5.21102 17.6311 5.34383 17.5856C6.17697 17.2733 6.81652 17.5169 6.85738 18.0829C6.89003 18.571 6.43708 18.9214 5.83191 18.9703C5.69695 18.9784 5.60325 18.984 5.55087 18.9869C5.45133 18.9936 5.38489 19.0025 5.39601 19.1191C5.40887 19.2115 5.54138 19.5439 5.57732 19.6382C5.66837 19.8955 5.72658 19.9315 5.94126 19.9393C6.34623 19.9538 6.87065 19.8526 7.03879 19.8004C7.03879 19.8004 7.02112 20.316 7.1815 21.0182C5.77862 20.5104 4.70764 20.3526 3.51945 20.396C2.33258 20.4389 1.54397 20.6833 1.02076 20.9781C0.094836 21.4998 0 22.1792 0 22.1792C0.00662765 22.1803 1.36532 22.5014 1.92179 22.3437C2.2991 22.2359 2.558 21.8692 2.558 21.8692C2.558 21.8692 3.45474 22.0541 4.63415 22.6826C5.21094 22.99 5.85531 23.4035 6.49549 23.9533C6.51918 23.9736 8.00126 23.2957 8.07417 23.2687C8.257 23.2012 8.3939 23.3238 8.42535 23.3836C8.47686 23.4815 8.49476 23.6652 8.35184 23.7609C8.21136 23.8876 7.21807 24.328 6.26099 24.8958C5.63919 25.2658 4.96327 25.6669 4.3824 26.0236C3.92658 25.9647 3.72854 25.9469 3.30038 25.9514C2.38537 25.9614 1.78346 26.7647 1.78346 27.3524H5.34272C5.49095 27.2983 6.97927 26.9933 8.4823 26.6912C9.57494 26.4716 10.6753 26.2536 11.2741 26.1348C11.5426 26.0815 11.7086 26.0482 11.7309 26.0436C11.8107 26.0255 11.9187 26.0126 12.0163 25.9165C12.0652 25.8683 12.1115 25.7992 12.1503 25.698C12.1779 25.6291 12.3041 25.2614 12.3041 25.2614L13.0829 25.1858C14.1225 25.0974 15.0442 24.8871 15.8715 24.6212C16.9348 24.2795 17.8422 23.8458 18.6436 23.4603C19.6195 22.9903 20.4249 22.6025 21.123 22.5714C21.0108 23.2646 21.1729 23.8038 21.2828 24.335C21.3875 24.8409 21.4448 25.3396 21.1728 25.9569C19.1116 25.9569 19.3384 27.3524 19.3384 27.3524H22.9132C22.9132 27.3524 23.165 26.5266 23.744 25.6166C24.0104 25.1976 24.3369 24.7606 24.7567 24.3776C24.8442 24.2987 24.8364 24.2154 24.7866 24.1487C24.3329 23.5832 24.1036 22.4444 24.1036 22.4444C24.0648 22.2988 24.2399 22.2021 24.2996 22.1921C24.3626 22.181 24.5324 22.1798 24.5671 22.3439C24.5671 22.3439 24.6468 23.1336 25.3915 23.8214C25.8626 24.2552 26.4345 24.5972 27.0047 24.867C27.6906 25.1915 28.3743 25.4115 28.8787 25.5614C29.4551 25.7325 29.5193 25.9258 29.5193 25.9836C29.5061 25.9836 29.3003 25.9936 29.2671 25.9969C28.975 26.0291 28.6398 26.0669 28.2492 26.4391C27.8498 26.8202 27.9339 27.3524 27.9339 27.3524H30.3934C30.7143 27.3524 30.8282 27.1624 30.9399 26.7991C31.0119 26.5658 31.3028 25.3814 31.3228 25.3003C31.419 24.9403 31.3183 24.7491 31.1944 24.6414C30.9124 24.3574 30.5696 24.1087 30.2534 23.9096C29.7408 23.5869 29.298 23.3948 29.298 23.3948C29.2396 22.8449 28.9813 21.9233 28.6198 21.0922C28.4064 20.6017 28.1537 20.1429 27.8885 19.8105ZM6.82602 15.9173C7.19679 15.6949 7.68395 15.638 8.08464 15.6854C8.04126 16.4131 7.02405 16.6061 6.82602 15.9173ZM3.34884 17.4727C3.36314 17.4416 3.37937 17.411 3.39743 17.381C3.4004 17.376 3.4151 17.3517 3.41907 17.3463C3.42662 17.3362 3.44305 17.3424 3.44408 17.355C3.45846 17.6416 3.62223 18.0849 4.4188 18.1849C5.1723 18.2805 5.73879 18.1516 6.22227 18.0083C6.27649 18.1394 6.26208 18.3461 6.0132 18.4383C5.78861 18.5072 5.17782 18.6861 4.22852 18.5849C3.34219 18.4904 3.13782 17.9314 3.34884 17.4727ZM27.8885 5.16298C28.7537 4.9341 29.3866 4.03412 29.3158 3.0097C29.2273 1.73972 28.0302 0.396438 25.1912 0.959742C24.1579 1.16518 23.312 1.46719 22.5004 1.79978C21.6483 2.14889 20.8341 2.53168 19.8805 2.87192C18.8985 3.2223 18.0744 3.37375 17.4334 3.31911C16.8568 3.26997 16.4283 3.05413 16.1665 2.66637C15.8102 2.12971 16.328 1.58863 16.547 1.43751C16.9464 1.17529 17.306 0.727755 17.0935 0C16.7108 0.066885 16.0388 0.292803 15.5039 0.716457C15.0615 1.06684 14.7129 1.55247 14.6994 2.19526C14.7248 3.07413 15.33 3.76076 16.3368 4.00298C17.0124 4.16541 17.5513 4.21766 18.1881 4.13391C19.1022 4.01371 20.2183 3.61332 22.2305 2.85636C24.1108 2.12793 25.1679 1.8152 25.9778 1.77845C26.486 1.75539 26.897 1.84103 27.353 2.00082C27.6382 2.10078 27.8443 2.25231 27.9815 2.42943C28.1446 2.6401 28.2102 2.88693 28.195 3.12608C28.1663 3.57475 27.8533 3.99645 27.367 4.10182C27.255 4.12612 27.1337 4.1336 27.0045 4.12075C26.8541 4.1063 26.6903 4.0752 26.5055 4.04074C25.96 3.93796 25.2243 3.80003 24.0792 3.92671C23.3923 4.00271 22.558 4.17394 21.5291 4.50517C19.3822 5.19626 17.7799 5.4731 16.5429 5.52075C14.7909 5.58825 13.7718 5.1959 12.9767 4.86963C12.8983 4.105 12.7149 3.47327 12.4902 2.95989C12.1256 2.12677 11.6519 1.60528 11.3404 1.33306C11.3404 1.33306 11.5207 1.22083 11.6103 0.590835C11.1623 0.50085 10.5294 0.754173 10.5294 0.754173C10.5294 0.754173 9.35443 -0.00359099 7.76566 0.266406C7.15936 0.373065 6.87065 0.539742 6.70467 0.815283C5.44226 1.28083 5.33935 1.36082 5.01748 1.54749C4.80831 1.67971 4.82608 1.85636 4.82608 1.90082C4.82608 2.00304 4.87916 2.06636 4.90233 2.09414C4.93561 2.13303 4.96653 2.16859 4.96653 2.23969C4.9699 2.60858 4.93785 2.58252 5.05064 2.87473C5.10047 2.9925 5.21102 2.98362 5.34383 2.93807C6.17697 2.62584 6.81652 2.86936 6.85738 3.43537C6.89003 3.92345 6.43708 4.27388 5.83191 4.32277C5.69695 4.33091 5.60325 4.33646 5.55087 4.33942C5.45133 4.34608 5.38489 4.35496 5.39601 4.47164C5.40887 4.56395 5.54138 4.89642 5.57732 4.99071C5.66837 5.24801 5.72658 5.28404 5.94126 5.29181C6.34623 5.30626 6.87065 5.20514 7.03879 5.15292C7.03879 5.15292 7.02112 5.66847 7.1815 6.37066C5.77862 5.86288 4.70764 5.70513 3.51945 5.74846C2.33258 5.79138 1.54397 6.03578 1.02076 6.33058C0.094836 6.85226 0 7.53173 0 7.53173C0.00662765 7.5328 1.36532 7.85392 1.92179 7.69616C2.2991 7.58837 2.558 7.22171 2.558 7.22171C2.558 7.22171 3.45474 7.40664 4.63415 8.03515C5.21094 8.3425 5.85531 8.75597 6.49549 9.30575C6.51918 9.32606 8.00126 8.64816 8.07417 8.62123C8.257 8.5537 8.3939 8.6763 8.42535 8.73608C8.47686 8.83403 8.49476 9.01771 8.35184 9.11343C8.21136 9.24006 7.21807 9.68052 6.26099 10.2483C5.63919 10.6183 4.96327 11.0194 4.3824 11.3761C3.92658 11.3172 3.72854 11.2994 3.30038 11.3039C2.38537 11.3139 1.78346 12.1172 1.78346 12.7049H5.34272C5.49095 12.6508 6.97927 12.3458 8.4823 12.0437C9.57494 11.8241 10.6753 11.6061 11.2741 11.4873C11.5426 11.434 11.7086 11.4007 11.7309 11.3961C11.8107 11.378 11.9187 11.3651 12.0163 11.269C12.0652 11.2208 12.1115 11.1517 12.1503 11.0505C12.1779 10.9816 12.3041 10.6139 12.3041 10.6139L13.0829 10.5383C14.1225 10.4499 15.0442 10.2396 15.8715 9.97372C16.9348 9.63201 17.8422 9.19831 18.6436 8.81278C19.6195 8.3428 20.4249 7.95503 21.123 7.92391C21.0108 8.61708 21.1729 9.15631 21.2828 9.68753C21.3875 10.1934 21.4448 10.6921 21.1728 11.3094C19.1116 11.3094 19.3384 12.7049 19.3384 12.7049H22.9132C22.9132 12.7049 23.165 11.8791 23.744 10.9691C24.0104 10.5501 24.3369 10.1131 24.7567 9.73012C24.8442 9.65124 24.8364 9.56789 24.7866 9.50124C24.3329 8.93569 24.1036 7.79686 24.1036 7.79686C24.0648 7.65127 24.2399 7.55464 24.2996 7.54463C24.3626 7.53354 24.5324 7.53232 24.5671 7.69637C24.5671 7.69637 24.6468 8.48612 25.3915 9.17389C25.8626 9.60773 26.4345 9.94974 27.0047 10.2195C27.6906 10.544 28.3743 10.764 28.8787 10.9139C29.4551 11.085 29.5193 11.2783 29.5193 11.3361C29.5061 11.3361 29.3003 11.3461 29.2671 11.3494C28.975 11.3816 28.6398 11.4194 28.2492 11.7916C27.8498 12.1727 27.9339 12.7049 27.9339 12.7049H30.3934C30.7143 12.7049 30.8282 12.5149 30.9399 12.1516C31.0119 11.9183 31.3028 10.7339 31.3228 10.6528C31.419 10.2928 31.3183 10.1016 31.1944 9.9939C30.9124 9.7099 30.5696 9.46117 30.2534 9.26213C29.7408 8.93938 29.298 8.74726 29.298 8.74726C29.2396 8.19737 28.9813 7.27579 28.6198 6.44473C28.4064 5.95423 28.1537 5.49536 27.8885 5.16298ZM6.82602 1.26985C7.19679 1.04735 7.68395 0.990549 8.08464 1.03788C8.04126 1.76562 7.02405 1.95859 6.82602 1.26985ZM3.34884 2.82523C3.36314 2.79413 3.37937 2.76349 3.39743 2.73349C3.4004 2.72851 3.4151 2.70419 3.41907 2.69884C3.42662 2.68865 3.44305 2.69491 3.44408 2.70747C3.45846 2.99414 3.62223 3.43745 4.4188 3.53745C5.1723 3.633 5.73879 3.5041 6.22227 3.3608C6.27649 3.4919 6.26208 3.69858 6.0132 3.79077C5.78861 3.85967 5.17782 4.03855 4.22852 3.93744C3.34219 3.84294 3.13782 3.28385 3.34884 2.82523Z" fill="#2A2623"/>
<path d="M44.0619 11.025H48.1297C50.11 11.025 51.1671 9.73475 51.1671 8.33699C51.1671 7.32899 50.5917 6.38819 49.4544 6.06563C50.4044 5.75651 50.8727 4.84259 50.8727 3.92867C50.8727 2.75939 50.0699 1.61699 48.3705 1.61699H44.0619V11.025ZM47.9423 9.35843H45.8282V6.83171H48.0226C48.9191 6.83171 49.3741 7.39619 49.3741 8.05475C49.3741 8.74019 48.9325 9.35843 47.9423 9.35843ZM47.8353 5.42051H45.8282V3.27011H47.9156C48.6917 3.27011 49.0663 3.71363 49.0663 4.29155C49.0663 4.90979 48.6515 5.42051 47.8353 5.42051ZM54.4989 11.1728C55.6229 11.1728 56.4123 10.6621 56.8272 9.84227V11.025H58.4328V6.28067C58.4328 4.72163 57.523 3.96899 55.6496 3.96899C53.9503 3.96899 52.7862 4.58723 52.4517 5.95811L54.0707 6.30755C54.1911 5.67587 54.606 5.29955 55.556 5.29955C56.3187 5.29955 56.7067 5.56835 56.7067 6.13283C56.7067 6.67043 56.3588 6.79139 55.837 6.87203L54.4454 7.06019C53.4418 7.20803 52.2509 7.59779 52.2509 9.11651C52.2509 10.4471 53.1876 11.1728 54.4989 11.1728ZM54.994 9.74819C54.3517 9.74819 53.9771 9.47939 53.9771 8.94179C53.9771 8.32355 54.5257 8.16227 55.0208 8.09507L55.7968 7.97411C56.1849 7.92035 56.4525 7.85315 56.7067 7.75907V8.13539C56.7067 9.11651 56.0109 9.74819 54.994 9.74819ZM62.8351 11.1728C64.0126 11.1728 64.7352 10.5949 65.0162 9.88259V11.025H66.6219V1.46915H64.9091V5.03075C64.5345 4.35875 63.7985 3.96899 62.8351 3.96899C60.935 3.96899 59.8111 5.43395 59.8111 7.58435C59.8111 9.73475 60.9484 11.1728 62.8351 11.1728ZM63.2231 9.60035C62.1393 9.60035 61.5639 8.78051 61.5639 7.55747C61.5639 6.32099 62.1393 5.54147 63.2231 5.54147C64.3204 5.54147 64.9091 6.32099 64.9091 7.51715C64.9091 8.78051 64.307 9.60035 63.2231 9.60035ZM71.4389 11.1728C73.0178 11.1728 74.1151 10.5008 74.5433 9.23747L72.9242 8.88803C72.7101 9.47939 72.2418 9.77507 71.4657 9.77507C70.422 9.77507 69.86 9.19715 69.7529 8.04131H74.5566V7.59779C74.5566 5.59523 73.6467 3.96899 71.3988 3.96899C69.2043 3.96899 68.067 5.55491 68.067 7.65155C68.067 9.90947 69.4184 11.1728 71.4389 11.1728ZM69.7931 6.87203C69.9537 5.89091 70.4487 5.36675 71.3988 5.36675C72.3488 5.36675 72.8171 5.89091 72.8707 6.87203H69.7931ZM76.0017 11.025H77.7145V7.26179C77.7145 6.11939 78.3434 5.50115 79.2399 5.50115C79.9624 5.50115 80.4442 5.93123 80.4442 6.77795V11.025H82.1703V6.46883C82.1703 4.89635 81.4076 3.96899 79.8688 3.96899C78.8251 3.96899 78.049 4.38563 77.661 5.17859V4.08995H76.0017V11.025ZM83.5485 7.16771H87.2549V5.62211H83.5485V7.16771ZM90.1719 11.025H92.2058L94.0524 4.08995L95.8989 11.025H97.9328L100.315 1.61699H98.4814L96.8356 8.65955L95.0693 1.61699H93.0354L91.2692 8.65955L89.6233 1.61699H87.7902L90.1719 11.025ZM103.539 11.1728C104.529 11.1728 105.292 10.7427 105.653 9.84227V11.025H107.273V4.08995H105.546V7.89347C105.546 8.98211 104.984 9.68099 104.128 9.68099C103.406 9.68099 102.951 9.25091 102.951 8.39075V4.08995H101.238V8.67299C101.238 10.2455 102.054 11.1728 103.539 11.1728ZM104.81 3.17603H106.296V1.63043H104.81V3.17603ZM102.241 3.17603H103.727V1.63043H102.241V3.17603ZM109.173 11.025H110.885V7.61123C110.885 6.40163 111.34 5.70275 112.518 5.70275H113.133V4.00931H112.531C111.648 4.00931 111.059 4.53347 110.832 5.32643V4.08995H109.173V11.025ZM116.933 11.025H118.231V9.50627H117.402C116.867 9.50627 116.693 9.29123 116.693 8.76707V5.60867H118.084V4.08995H116.693V2.02019L114.966 2.50403V4.08995H113.776V5.60867H114.966V9.04931C114.966 10.3799 115.622 11.025 116.933 11.025ZM122.085 11.025H123.383V9.50627H122.553C122.018 9.50627 121.844 9.29123 121.844 8.76707V5.60867H123.236V4.08995H121.844V2.02019L120.118 2.50403V4.08995H118.927V5.60867H120.118V9.04931C120.118 10.3799 120.774 11.025 122.085 11.025ZM127.678 11.1728C129.257 11.1728 130.354 10.5008 130.782 9.23747L129.163 8.88803C128.949 9.47939 128.481 9.77507 127.705 9.77507C126.661 9.77507 126.099 9.19715 125.992 8.04131H130.796V7.59779C130.796 5.59523 129.886 3.96899 127.638 3.96899C125.444 3.96899 124.306 5.55491 124.306 7.65155C124.306 9.90947 125.658 11.1728 127.678 11.1728ZM126.032 6.87203C126.193 5.89091 126.688 5.36675 127.638 5.36675C128.588 5.36675 129.056 5.89091 129.11 6.87203H126.032ZM132.228 11.025H133.954V6.97955C133.954 5.99843 134.529 5.50115 135.238 5.50115C135.881 5.50115 136.282 5.86403 136.282 6.61667V11.025H138.008V6.97955C138.008 5.99843 138.57 5.50115 139.293 5.50115C139.935 5.50115 140.336 5.86403 140.336 6.61667V11.025H142.049V6.21347C142.049 4.73507 141.072 3.96899 139.855 3.96899C138.864 3.96899 138.048 4.35875 137.647 5.24579C137.406 4.35875 136.643 3.96899 135.8 3.96899C134.957 3.96899 134.248 4.35875 133.9 5.11139V4.08995H132.228V11.025ZM147.669 11.1728C149.556 11.1728 150.693 9.70787 150.693 7.54403C150.693 5.43395 149.609 3.96899 147.723 3.96899C146.706 3.96899 145.956 4.43939 145.595 5.15171V1.46915H143.882V11.025H145.488V9.93635C145.769 10.6218 146.532 11.1728 147.669 11.1728ZM147.281 9.60035C146.21 9.60035 145.595 8.82083 145.595 7.57091C145.595 6.33443 146.21 5.55491 147.308 5.55491C148.392 5.55491 148.94 6.32099 148.94 7.55747C148.94 8.79395 148.378 9.60035 147.281 9.60035ZM155.055 11.1728C156.634 11.1728 157.731 10.5008 158.159 9.23747L156.54 8.88803C156.326 9.47939 155.858 9.77507 155.082 9.77507C154.038 9.77507 153.476 9.19715 153.369 8.04131H158.173V7.59779C158.173 5.59523 157.263 3.96899 155.015 3.96899C152.821 3.96899 151.683 5.55491 151.683 7.65155C151.683 9.90947 153.035 11.1728 155.055 11.1728ZM153.409 6.87203C153.57 5.89091 154.065 5.36675 155.015 5.36675C155.965 5.36675 156.433 5.89091 156.487 6.87203H153.409ZM159.618 11.025H161.331V7.61123C161.331 6.40163 161.786 5.70275 162.963 5.70275H163.579V4.00931H162.977C162.093 4.00931 161.505 4.53347 161.277 5.32643V4.08995H159.618V11.025ZM167.646 13.7533C169.52 13.7533 171.059 12.7722 171.059 10.5815V4.08995H169.359V5.05763C169.038 4.42595 168.342 3.96899 167.312 3.96899C165.653 3.96899 164.261 5.13827 164.261 7.43651C164.261 9.69443 165.613 10.7965 167.232 10.7965C168.222 10.7965 169.011 10.3664 169.386 9.62723V10.7965C169.386 11.8448 168.744 12.3959 167.66 12.3959C166.603 12.3959 166.108 11.912 166.014 11.2535L164.341 11.6163C164.689 13.0007 165.96 13.7533 167.646 13.7533ZM167.66 9.34499C166.737 9.34499 166.014 8.74019 166.014 7.46339C166.014 6.14627 166.75 5.55491 167.687 5.55491C168.623 5.55491 169.332 6.17315 169.332 7.44995C169.332 8.78051 168.556 9.34499 167.66 9.34499Z" fill="#2A2623"/>
<path d="M44.0619 25.62H45.7345V18.5371L48.0762 25.62H49.9227L52.2509 18.5371V25.62H53.9235V16.212H51.4213L48.9994 23.4965L46.5641 16.212H44.0619V25.62ZM55.9173 25.62H57.6434V18.685H55.9173V25.62ZM55.8905 17.7442H57.6701V15.9835H55.8905V17.7442ZM59.4899 25.62H61.2027V21.8568C61.2027 20.7144 61.8316 20.0962 62.7281 20.0962C63.4506 20.0962 63.9323 20.5262 63.9323 21.373V25.62H65.6584V21.0638C65.6584 19.4914 64.8957 18.564 63.357 18.564C62.3133 18.564 61.5372 18.9806 61.1491 19.7736V18.685H59.4899V25.62ZM67.4381 25.62H69.1642V18.685H67.4381V25.62ZM67.4113 17.7442H69.191V15.9835H67.4113V17.7442ZM73.7136 25.7678C75.3327 25.7678 76.537 25.0555 76.537 23.5637C76.537 22.1794 75.4933 21.7896 74.4496 21.6014L73.3657 21.3998C72.7235 21.2789 72.2953 21.1042 72.2953 20.5934C72.2953 20.1499 72.6566 19.8811 73.3657 19.8811C74.1686 19.8811 74.6637 20.2037 74.7306 20.8622L76.3764 20.5128C76.1356 19.2091 75.0383 18.564 73.4326 18.564C71.7065 18.564 70.6628 19.3032 70.6628 20.7144C70.6628 22.2062 71.8136 22.6094 72.8707 22.7976L73.7805 22.9589C74.4228 23.0798 74.8778 23.2277 74.8778 23.7384C74.8778 24.2088 74.4763 24.4373 73.7538 24.4373C72.9108 24.4373 72.3488 24.1282 72.2284 23.4562L70.5558 23.8056C70.8635 25.2034 72.2418 25.7678 73.7136 25.7678ZM80.2836 25.62H81.5815V24.1013H80.7519C80.2167 24.1013 80.0427 23.8862 80.0427 23.3621V20.2037H81.4343V18.685H80.0427V16.6152L78.3166 17.099V18.685H77.1257V20.2037H78.3166V23.6443C78.3166 24.9749 78.9723 25.62 80.2836 25.62ZM85.8767 25.7678C87.4557 25.7678 88.5529 25.0958 88.9811 23.8325L87.362 23.483C87.1479 24.0744 86.6796 24.3701 85.9035 24.3701C84.8598 24.3701 84.2978 23.7922 84.1908 22.6363H88.9944V22.1928C88.9944 20.1902 88.0846 18.564 85.8366 18.564C83.6422 18.564 82.5048 20.1499 82.5048 22.2466C82.5048 24.5045 83.8562 25.7678 85.8767 25.7678ZM84.2309 21.467C84.3915 20.4859 84.8866 19.9618 85.8366 19.9618C86.7866 19.9618 87.255 20.4859 87.3085 21.467H84.2309ZM90.4396 25.62H92.1523V22.2062C92.1523 20.9966 92.6072 20.2978 93.7847 20.2978H94.4003V18.6043H93.7981C92.915 18.6043 92.3262 19.1285 92.0988 19.9214V18.685H90.4396V25.62ZM95.5778 25.62H97.3039V18.685H95.5778V25.62ZM95.551 17.7442H97.3306V15.9835H95.551V17.7442ZM101.385 25.7678C102.375 25.7678 103.138 25.3378 103.499 24.4373V25.62H105.118V18.685H103.392V22.4885C103.392 23.5771 102.83 24.276 101.974 24.276C101.251 24.276 100.796 23.8459 100.796 22.9858V18.685H99.0835V23.268C99.0835 24.8405 99.8998 25.7678 101.385 25.7678ZM107.005 25.62H108.731V21.5746C108.731 20.5934 109.306 20.0962 110.016 20.0962C110.658 20.0962 111.059 20.459 111.059 21.2117V25.62H112.785V21.5746C112.785 20.5934 113.347 20.0962 114.07 20.0962C114.712 20.0962 115.114 20.459 115.114 21.2117V25.62H116.826V20.8085C116.826 19.3301 115.85 18.564 114.632 18.564C113.642 18.564 112.826 18.9538 112.424 19.8408C112.183 18.9538 111.421 18.564 110.578 18.564C109.735 18.564 109.025 18.9538 108.678 19.7064V18.685H107.005V25.62ZM122.232 25.62H123.958V20.2037H125.243V18.685H123.958V18.1742C123.958 17.7038 124.106 17.5157 124.574 17.5157H125.403V16.0642H124.106C122.901 16.0642 122.232 16.6824 122.232 18.0936V18.685H121.189V20.2037H122.232V25.62ZM128.749 25.7678C129.739 25.7678 130.502 25.3378 130.863 24.4373V25.62H132.482V18.685H130.756V22.4885C130.756 23.5771 130.194 24.276 129.337 24.276C128.615 24.276 128.16 23.8459 128.16 22.9858V18.685H126.447V23.268C126.447 24.8405 127.263 25.7678 128.749 25.7678ZM130.02 17.771H131.505V16.2254H130.02V17.771ZM127.451 17.771H128.936V16.2254H127.451V17.771ZM134.382 25.62H136.095V22.2062C136.095 20.9966 136.55 20.2978 137.727 20.2978H138.343V18.6043H137.74C136.857 18.6043 136.269 19.1285 136.041 19.9214V18.685H134.382V25.62ZM144.096 25.62H146.13L147.977 18.685L149.823 25.62H151.857L154.239 16.212H152.406L150.76 23.2546L148.994 16.212H146.96L145.194 23.2546L143.548 16.212H141.715L144.096 25.62ZM155.443 25.62H157.169V18.685H155.443V25.62ZM155.416 17.7442H157.196V15.9835H155.416V17.7442ZM159.016 25.62H160.729V22.2062C160.729 20.9966 161.184 20.2978 162.361 20.2978H162.977V18.6043H162.374C161.491 18.6043 160.903 19.1285 160.675 19.9214V18.685H159.016V25.62ZM166.777 25.62H168.075V24.1013H167.245C166.71 24.1013 166.536 23.8862 166.536 23.3621V20.2037H167.927V18.685H166.536V16.6152L164.81 17.099V18.685H163.619V20.2037H164.81V23.6443C164.81 24.9749 165.465 25.62 166.777 25.62ZM172.156 25.7678C173.775 25.7678 174.979 25.0555 174.979 23.5637C174.979 22.1794 173.935 21.7896 172.892 21.6014L171.808 21.3998C171.166 21.2789 170.737 21.1042 170.737 20.5934C170.737 20.1499 171.099 19.8811 171.808 19.8811C172.611 19.8811 173.106 20.2037 173.173 20.8622L174.819 20.5128C174.578 19.2091 173.48 18.564 171.875 18.564C170.149 18.564 169.105 19.3032 169.105 20.7144C169.105 22.2062 170.256 22.6094 171.313 22.7976L172.223 22.9589C172.865 23.0798 173.32 23.2277 173.32 23.7384C173.32 24.2088 172.918 24.4373 172.196 24.4373C171.353 24.4373 170.791 24.1282 170.67 23.4562L168.998 23.8056C169.306 25.2034 170.684 25.7678 172.156 25.7678ZM179.194 25.7678C180.893 25.7678 182.044 24.8942 182.285 23.4562L180.572 23.0933C180.505 23.8862 180.05 24.2626 179.261 24.2626C178.11 24.2626 177.669 23.4427 177.669 22.1794C177.669 20.9563 178.083 20.0558 179.288 20.0558C180.05 20.0558 180.519 20.459 180.572 21.2117L182.285 20.8622C182.057 19.4242 180.987 18.564 179.301 18.564C177 18.564 175.916 20.1768 175.916 22.2331C175.916 24.1819 176.906 25.7678 179.194 25.7678ZM183.757 25.62H185.47V21.8568C185.47 20.7144 186.098 20.0962 186.995 20.0962C187.718 20.0962 188.199 20.5262 188.199 21.373V25.62H189.925V21.0638C189.925 19.4914 189.163 18.564 187.624 18.564C186.62 18.564 185.871 18.9538 185.47 19.6795V16.0642H183.757V25.62ZM193.578 25.7678C194.702 25.7678 195.492 25.2571 195.907 24.4373V25.62H197.512V20.8757C197.512 19.3166 196.602 18.564 194.729 18.564C193.03 18.564 191.866 19.1822 191.531 20.5531L193.15 20.9026C193.271 20.2709 193.685 19.8946 194.635 19.8946C195.398 19.8946 195.786 20.1634 195.786 20.7278C195.786 21.2654 195.438 21.3864 194.916 21.467L193.525 21.6552C192.521 21.803 191.33 22.1928 191.33 23.7115C191.33 25.0421 192.267 25.7678 193.578 25.7678ZM194.073 24.3432C193.431 24.3432 193.056 24.0744 193.056 23.5368C193.056 22.9186 193.605 22.7573 194.1 22.6901L194.876 22.5691C195.264 22.5154 195.532 22.4482 195.786 22.3541V22.7304C195.786 23.7115 195.09 24.3432 194.073 24.3432ZM199.733 25.62H201.46V20.2037H202.744V18.685H201.46V18.1742C201.46 17.7038 201.607 17.5157 202.075 17.5157H202.905V16.0642H201.607C200.402 16.0642 199.733 16.6824 199.733 18.0936V18.685H198.69V20.2037H199.733V25.62ZM206.531 25.62H207.829V24.1013H206.999C206.464 24.1013 206.29 23.8862 206.29 23.3621V20.2037H207.682V18.685H206.29V16.6152L204.564 17.099V18.685H203.373V20.2037H204.564V23.6443C204.564 24.9749 205.22 25.62 206.531 25.62ZM208.591 27.0446L208.806 27.972C209.903 27.8107 211 27.1522 211 25.3646V23.7115H209.06V25.499H209.956C209.93 26.3458 209.622 26.843 208.591 27.0446Z" fill="#2A2623"/>
<path d="M44.0619 40.32H45.8282V36.409H49.7354V40.32H51.5016V30.912H49.7354V34.7424H45.8282V30.912H44.0619V40.32ZM55.3687 40.4679C56.4926 40.4679 57.2821 39.9571 57.6969 39.1373V40.32H59.3026V35.5757C59.3026 34.0167 58.3927 33.264 56.5194 33.264C54.82 33.264 53.6559 33.8823 53.3214 35.2531L54.9405 35.6026C55.0609 34.9709 55.4757 34.5946 56.4257 34.5946C57.1884 34.5946 57.5765 34.8634 57.5765 35.4279C57.5765 35.9655 57.2286 36.0864 56.7067 36.1671L55.3151 36.3552C54.3116 36.5031 53.1207 36.8928 53.1207 38.4115C53.1207 39.7421 54.0573 40.4679 55.3687 40.4679ZM55.8637 39.0432C55.2215 39.0432 54.8468 38.7744 54.8468 38.2368C54.8468 37.6186 55.3954 37.4573 55.8905 37.3901L56.6666 37.2691C57.0546 37.2154 57.3222 37.1482 57.5765 37.0541V37.4304C57.5765 38.4115 56.8807 39.0432 55.8637 39.0432ZM61.1357 40.32H62.8485V36.5568C62.8485 35.4144 63.4774 34.7962 64.3739 34.7962C65.0964 34.7962 65.5782 35.2263 65.5782 36.073V40.32H67.3043V35.7639C67.3043 34.1914 66.5416 33.264 65.0028 33.264C63.9591 33.264 63.183 33.6807 62.795 34.4736V33.385H61.1357V40.32ZM71.7065 40.4679C72.884 40.4679 73.6066 39.8899 73.8876 39.1776V40.32H75.4933V30.7642H73.7805V34.3258C73.4059 33.6538 72.6699 33.264 71.7065 33.264C69.8065 33.264 68.6825 34.729 68.6825 36.8794C68.6825 39.0298 69.8198 40.4679 71.7065 40.4679ZM72.0946 38.8954C71.0107 38.8954 70.4354 38.0755 70.4354 36.8525C70.4354 35.616 71.0107 34.8365 72.0946 34.8365C73.1918 34.8365 73.7805 35.616 73.7805 36.8122C73.7805 38.0755 73.1784 38.8954 72.0946 38.8954ZM78.7448 40.32H80.7787L82.0498 35.5623L83.3076 40.32H85.3549L87.5226 33.385H85.7028L84.271 38.5191L83.0668 33.385H81.0329L79.8286 38.5191L78.3969 33.385H76.5771L78.7448 40.32ZM91.5234 40.4679C93.1023 40.4679 94.1996 39.7959 94.6277 38.5325L93.0087 38.1831C92.7946 38.7744 92.3263 39.0701 91.5502 39.0701C90.5065 39.0701 89.9445 38.4922 89.8374 37.3363H94.6411V36.8928C94.6411 34.8903 93.7312 33.264 91.4833 33.264C89.2888 33.264 88.1515 34.8499 88.1515 36.9466C88.1515 39.2045 89.5029 40.4679 91.5234 40.4679ZM89.8776 36.1671C90.0381 35.1859 90.5332 34.6618 91.4833 34.6618C92.4333 34.6618 92.9016 35.1859 92.9551 36.1671H89.8776ZM96.0862 40.32H97.799V36.9063C97.799 35.6967 98.2539 34.9978 99.4314 34.9978H100.047V33.3043H99.4448C98.5617 33.3043 97.9729 33.8285 97.7455 34.6215V33.385H96.0862V40.32ZM101.278 40.32H102.991V38.5594L104.021 37.4573L105.868 40.32H107.928L105.185 36.1939L107.808 33.385H105.587L102.991 36.3955V30.7642H101.278V40.32ZM114.364 40.4679C115.355 40.4679 116.117 40.0378 116.478 39.1373V40.32H118.098V33.385H116.371V37.1885C116.371 38.2771 115.809 38.976 114.953 38.976C114.231 38.976 113.776 38.5459 113.776 37.6858V33.385H112.063V37.968C112.063 39.5405 112.879 40.4679 114.364 40.4679ZM119.998 40.32H121.71V36.5568C121.71 35.4144 122.339 34.7962 123.236 34.7962C123.958 34.7962 124.44 35.2263 124.44 36.073V40.32H126.166V35.7639C126.166 34.1914 125.403 33.264 123.865 33.264C122.821 33.264 122.045 33.6807 121.657 34.4736V33.385H119.998V40.32ZM130.568 40.4679C131.746 40.4679 132.468 39.8899 132.749 39.1776V40.32H134.355V30.7642H132.642V34.3258C132.268 33.6538 131.532 33.264 130.568 33.264C128.668 33.264 127.544 34.729 127.544 36.8794C127.544 39.0298 128.682 40.4679 130.568 40.4679ZM130.956 38.8954C129.873 38.8954 129.297 38.0755 129.297 36.8525C129.297 35.616 129.873 34.8365 130.956 34.8365C132.054 34.8365 132.642 35.616 132.642 36.8122C132.642 38.0755 132.04 38.8954 130.956 38.8954ZM141.393 40.32H143.16V32.5786H146.144V30.912H138.41V32.5786H141.393V40.32ZM149.609 40.4679C151.67 40.4679 152.981 39.097 152.981 36.8659C152.981 34.6349 151.67 33.264 149.609 33.264C147.562 33.264 146.237 34.6349 146.237 36.8659C146.237 39.097 147.562 40.4679 149.609 40.4679ZM149.609 38.8416C148.646 38.8416 147.99 38.2234 147.99 36.8659C147.99 35.5085 148.632 34.8903 149.609 34.8903C150.586 34.8903 151.242 35.5085 151.242 36.8659C151.242 38.2234 150.586 38.8416 149.609 38.8416ZM156.674 40.4679C157.664 40.4679 158.427 40.0378 158.788 39.1373V40.32H160.407V33.385H158.681V37.1885C158.681 38.2771 158.119 38.976 157.263 38.976C156.54 38.976 156.085 38.5459 156.085 37.6858V33.385H154.373V37.968C154.373 39.5405 155.189 40.4679 156.674 40.4679ZM162.308 40.32H164.02V36.9063C164.02 35.6967 164.475 34.9978 165.653 34.9978H166.268V33.3043H165.666C164.783 33.3043 164.194 33.8285 163.967 34.6215V33.385H162.308V40.32ZM167.446 40.32H169.172V33.385H167.446V40.32ZM167.419 32.4442H169.199V30.6835H167.419V32.4442ZM173.721 40.4679C175.34 40.4679 176.545 39.7555 176.545 38.2637C176.545 36.8794 175.501 36.4896 174.457 36.3015L173.373 36.0999C172.731 35.9789 172.303 35.8042 172.303 35.2935C172.303 34.8499 172.664 34.5811 173.373 34.5811C174.176 34.5811 174.671 34.9037 174.738 35.5623L176.384 35.2128C176.143 33.9091 175.046 33.264 173.44 33.264C171.714 33.264 170.67 34.0032 170.67 35.4144C170.67 36.9063 171.821 37.3095 172.878 37.4976L173.788 37.6589C174.43 37.7799 174.885 37.9277 174.885 38.4384C174.885 38.9088 174.484 39.1373 173.761 39.1373C172.918 39.1373 172.356 38.8282 172.236 38.1562L170.563 38.5056C170.871 39.9034 172.249 40.4679 173.721 40.4679ZM177.923 40.32H179.649V36.2746C179.649 35.2935 180.224 34.7962 180.933 34.7962C181.576 34.7962 181.977 35.1591 181.977 35.9117V40.32H183.703V36.2746C183.703 35.2935 184.265 34.7962 184.988 34.7962C185.63 34.7962 186.032 35.1591 186.032 35.9117V40.32H187.744V35.5085C187.744 34.0301 186.767 33.264 185.55 33.264C184.56 33.264 183.743 33.6538 183.342 34.5408C183.101 33.6538 182.338 33.264 181.495 33.264C180.652 33.264 179.943 33.6538 179.595 34.4064V33.385H177.923V40.32ZM191.812 40.4679C192.802 40.4679 193.565 40.0378 193.926 39.1373V40.32H195.545V33.385H193.819V37.1885C193.819 38.2771 193.257 38.976 192.401 38.976C191.678 38.976 191.223 38.5459 191.223 37.6858V33.385H189.511V37.968C189.511 39.5405 190.327 40.4679 191.812 40.4679ZM200.148 40.4679C201.767 40.4679 202.972 39.7555 202.972 38.2637C202.972 36.8794 201.928 36.4896 200.884 36.3015L199.8 36.0999C199.158 35.9789 198.73 35.8042 198.73 35.2935C198.73 34.8499 199.091 34.5811 199.8 34.5811C200.603 34.5811 201.098 34.9037 201.165 35.5623L202.811 35.2128C202.57 33.9091 201.473 33.264 199.867 33.264C198.141 33.264 197.097 34.0032 197.097 35.4144C197.097 36.9063 198.248 37.3095 199.305 37.4976L200.215 37.6589C200.857 37.7799 201.312 37.9277 201.312 38.4384C201.312 38.9088 200.911 39.1373 200.188 39.1373C199.345 39.1373 198.783 38.8282 198.663 38.1562L196.99 38.5056C197.298 39.9034 198.676 40.4679 200.148 40.4679Z" fill="#2A2623"/>
</g>
</g>
<defs>
<clipPath id="clip0_1_281">
<rect width="277" height="42" fill="white"/>
</clipPath>
<clipPath id="clip1_1_281">
<rect width="211" height="42" fill="white"/>
</clipPath>
</defs>
</svg>
