<svg xmlns="http://www.w3.org/2000/svg" width="600" height="298" viewBox="0 0 600 298" fill="none"><rect width="600" height="298" fill="white"/><g clip-path="url(#clip0_28_107)"><path d="M22.4252 129.833C25.2571 129.833 27.348 128.589 28.4331 126.366V129.357H30.2593V120.014H22.6105V121.84H28.2743V121.973C28.2743 125.44 26.2364 128.06 22.6634 128.06C18.217 128.06 16.4967 124.54 16.4967 120.12C16.4967 114.906 19.1963 112.233 22.9281 112.233C25.8923 112.233 27.9832 113.768 28.2479 116.626L30.2593 116.203C29.8359 112.471 26.8716 110.38 23.0339 110.38C18.1376 110.38 14.4587 113.821 14.4587 120.226C14.4587 125.413 16.8407 129.833 22.4252 129.833ZM40.1843 129.648C42.9898 129.648 44.8689 128.378 45.7159 125.916L43.8632 125.519C43.2545 127.107 42.1693 127.928 40.2373 127.928C37.67 127.928 36.082 126.313 35.9232 123.243H45.7423V122.74C45.7423 118.797 43.9955 115.832 40.1049 115.832C36.2673 115.832 34.0176 118.744 34.0176 122.846C34.0176 127.239 36.479 129.648 40.1843 129.648ZM36.0026 121.602C36.2937 119.167 37.6171 117.553 40.1314 117.553C42.5663 117.553 43.5985 119.088 43.7838 121.602H36.0026ZM50.1887 129.357H52.1208V117.817H54.9527V116.097H52.1208V114.086C52.1208 112.789 52.5178 112.233 53.7882 112.233H55.2703V110.539H53.3647C51.2739 110.539 50.1887 111.598 50.1887 114.006V116.097H47.992V117.817H50.1887V129.357ZM63.2368 129.648C67.0215 129.648 69.43 127.028 69.43 122.74C69.43 118.453 67.0215 115.832 63.2368 115.832C59.452 115.832 57.0436 118.453 57.0436 122.74C57.0436 127.028 59.452 129.648 63.2368 129.648ZM63.2368 127.848C60.643 127.848 59.0286 126.022 59.0286 122.74C59.0286 119.458 60.643 117.632 63.2368 117.632C65.8305 117.632 67.445 119.458 67.445 122.74C67.445 126.022 65.8305 127.848 63.2368 127.848ZM64.6395 114.033H66.7833V111.756H64.6395V114.033ZM59.6902 114.033H61.8076V111.756H59.6902V114.033ZM73.003 129.357H74.935V122.714C74.935 119.829 76.0202 117.817 78.8256 117.817H79.5932V115.938H78.7462C76.7612 115.938 75.4908 116.97 74.9086 118.691V116.097H73.003V129.357ZM87.1891 129.648C89.7564 129.648 91.0797 128.325 91.7149 126.684V129.357H93.594V110.539H91.662V118.373C90.9738 116.917 89.5446 115.832 87.242 115.832C83.2191 115.832 81.3929 119.061 81.3929 122.767C81.3929 126.419 83.1397 129.648 87.1891 129.648ZM87.4538 127.848C84.516 127.848 83.3779 125.546 83.3779 122.714C83.3779 119.882 84.5424 117.579 87.4802 117.579C90.418 117.579 91.662 119.802 91.662 122.634C91.662 125.519 90.3916 127.848 87.4538 127.848ZM103.36 129.648C106.166 129.648 108.045 128.378 108.892 125.916L107.039 125.519C106.43 127.107 105.345 127.928 103.413 127.928C100.846 127.928 99.2579 126.313 99.0991 123.243H108.918V122.74C108.918 118.797 107.171 115.832 103.281 115.832C99.4432 115.832 97.1935 118.744 97.1935 122.846C97.1935 127.239 99.6549 129.648 103.36 129.648ZM99.1785 121.602C99.4696 119.167 100.793 117.553 103.307 117.553C105.742 117.553 106.774 119.088 106.96 121.602H99.1785ZM112.491 129.357H114.423V122.714C114.423 119.829 115.508 117.817 118.314 117.817H119.081V115.938H118.234C116.249 115.938 114.979 116.97 114.397 118.691V116.097H112.491V129.357ZM126.413 129.357H128.451V127.663H126.783C125.486 127.663 125.089 127.054 125.089 125.81V117.817H128.159V116.097H125.089V111.809L123.157 112.365V116.097H120.616V117.817H123.157V126.048C123.157 128.298 124.322 129.357 126.413 129.357Z" fill="#2A2623"/><path d="M68.027 158.389C70.5943 158.389 71.9176 157.066 72.5528 155.425V158.098H74.432V139.28H72.4999V147.114C71.8118 145.659 70.3826 144.573 68.08 144.573C64.057 144.573 62.2308 147.802 62.2308 151.508C62.2308 155.16 63.9776 158.389 68.027 158.389ZM68.2917 156.589C65.3539 156.589 64.2158 154.287 64.2158 151.455C64.2158 148.623 65.3804 146.32 68.3182 146.32C71.256 146.32 72.4999 148.543 72.4999 151.375C72.4999 154.26 71.2295 156.589 68.2917 156.589ZM83.113 158.389C85.3362 158.389 86.8183 157.251 87.5859 155.504V158.098H89.465V144.838H87.5329V151.772C87.5329 154.657 85.9979 156.722 83.5894 156.722C81.8956 156.722 80.7046 155.689 80.7046 153.599V144.838H78.7725V153.89C78.7725 156.722 80.4134 158.389 83.113 158.389ZM93.9379 158.098H95.8699V151.455C95.8699 148.57 96.9551 146.558 99.7605 146.558H100.528V144.679H99.6811C97.6961 144.679 96.4257 145.711 95.8435 147.432V144.838H93.9379V158.098ZM108.309 158.389C111.326 158.389 113.444 156.722 113.867 153.863L111.962 153.466C111.75 155.531 110.453 156.589 108.415 156.589C105.504 156.589 104.313 154.366 104.313 151.481C104.313 148.596 105.504 146.373 108.521 146.373C110.506 146.373 111.829 147.352 111.935 149.284L113.867 148.887C113.523 146.082 111.459 144.573 108.574 144.573C104.366 144.573 102.328 147.723 102.328 151.587C102.328 155.292 104.18 158.389 108.309 158.389ZM117.493 158.098H119.425V151.111C119.425 148.093 121.225 146.294 123.554 146.294C125.301 146.294 126.518 147.326 126.518 149.417V158.098H128.45V149.073C128.45 146.241 126.915 144.573 124.083 144.573C121.675 144.573 120.193 145.791 119.425 147.458V139.28H117.493V158.098Z" fill="#2A2623"/><path d="M149.128 107.646V190.354" stroke="#2A2623" stroke-width="1.24062"/><path d="M224.967 175.502C226.678 175.051 227.93 173.279 227.79 171.262C227.615 168.761 225.247 166.116 219.632 167.225C217.588 167.629 215.915 168.224 214.31 168.879C212.624 169.567 211.014 170.32 209.128 170.99C207.185 171.68 205.555 171.979 204.287 171.871C203.147 171.774 202.299 171.349 201.781 170.586C201.077 169.529 202.101 168.463 202.534 168.166C203.324 167.649 204.035 166.768 203.615 165.335C202.858 165.467 201.529 165.911 200.471 166.746C199.596 167.436 198.906 168.392 198.88 169.658C198.93 171.389 200.127 172.741 202.118 173.218C203.455 173.538 204.521 173.641 205.78 173.476C207.588 173.239 209.796 172.45 213.776 170.96C217.495 169.525 219.586 168.909 221.188 168.837C222.193 168.792 223.006 168.96 223.908 169.275C224.472 169.472 224.88 169.77 225.151 170.119C225.474 170.534 225.603 171.02 225.573 171.491C225.517 172.374 224.898 173.205 223.936 173.412C223.714 173.46 223.474 173.475 223.219 173.45C222.921 173.421 222.597 173.36 222.232 173.292C221.153 173.09 219.697 172.818 217.433 173.068C216.074 173.217 214.424 173.554 212.389 174.207C208.142 175.568 204.973 176.113 202.526 176.207C199.061 176.34 197.045 175.567 195.472 174.924C195.317 173.419 194.954 172.175 194.51 171.164C193.789 169.523 192.852 168.496 192.236 167.96C192.236 167.96 192.592 167.739 192.77 166.498C191.883 166.321 190.632 166.82 190.632 166.82C190.632 166.82 188.307 165.328 185.165 165.86C183.966 166.07 183.395 166.398 183.066 166.94C180.569 167.857 180.366 168.015 179.729 168.382C179.315 168.643 179.351 168.991 179.351 169.078C179.351 169.279 179.456 169.404 179.501 169.459C179.567 169.535 179.628 169.605 179.628 169.745C179.635 170.472 179.572 170.421 179.795 170.996C179.893 171.228 180.112 171.21 180.375 171.121C182.023 170.506 183.288 170.985 183.368 172.1C183.433 173.061 182.537 173.751 181.34 173.847C181.073 173.864 180.888 173.874 180.784 173.88C180.587 173.893 180.456 173.911 180.478 174.141C180.503 174.322 180.765 174.977 180.836 175.163C181.017 175.67 181.132 175.74 181.556 175.756C182.357 175.784 183.395 175.585 183.727 175.482C183.727 175.482 183.692 176.498 184.009 177.88C181.235 176.88 179.116 176.57 176.766 176.655C174.418 176.74 172.859 177.221 171.824 177.801C169.992 178.829 169.805 180.167 169.805 180.167C169.818 180.169 172.505 180.801 173.606 180.491C174.352 180.278 174.864 179.556 174.864 179.556C174.864 179.556 176.638 179.92 178.971 181.158C180.112 181.763 181.386 182.578 182.653 183.66C182.699 183.7 185.631 182.365 185.775 182.312C186.137 182.179 186.408 182.421 186.47 182.538C186.572 182.731 186.607 183.093 186.324 183.281C186.046 183.531 184.082 184.398 182.189 185.516C180.959 186.245 179.622 187.035 178.473 187.737C177.571 187.621 177.18 187.586 176.333 187.595C174.523 187.615 173.332 189.197 173.332 190.354H180.372C180.666 190.247 183.609 189.647 186.582 189.052C188.744 188.619 190.92 188.19 192.104 187.956C192.635 187.851 192.964 187.786 193.008 187.777C193.166 187.741 193.38 187.716 193.573 187.526C193.669 187.431 193.761 187.295 193.838 187.096C193.892 186.96 194.142 186.236 194.142 186.236L195.682 186.087C197.738 185.913 199.562 185.499 201.198 184.976C203.301 184.303 205.096 183.449 206.681 182.689C208.611 181.764 210.204 181 211.585 180.939C211.363 182.304 211.684 183.366 211.901 184.412C212.108 185.408 212.222 186.39 211.684 187.606C207.607 187.606 208.055 190.354 208.055 190.354H215.126C215.126 190.354 215.624 188.728 216.769 186.936C217.296 186.111 217.942 185.25 218.773 184.496C218.946 184.341 218.93 184.176 218.832 184.045C217.934 182.931 217.481 180.689 217.481 180.689C217.404 180.402 217.75 180.212 217.869 180.192C217.993 180.17 218.329 180.168 218.398 180.491C218.398 180.491 218.555 182.046 220.028 183.401C220.96 184.255 222.091 184.928 223.219 185.46C224.576 186.099 225.928 186.532 226.926 186.827C228.066 187.164 228.193 187.545 228.193 187.658C228.167 187.658 227.76 187.678 227.694 187.685C227.116 187.748 226.453 187.822 225.681 188.555C224.891 189.306 225.057 190.354 225.057 190.354H229.922C230.557 190.354 230.782 189.98 231.003 189.264C231.145 188.805 231.721 186.473 231.76 186.313C231.95 185.604 231.751 185.227 231.506 185.015C230.948 184.456 230.27 183.966 229.645 183.574C228.631 182.939 227.755 182.56 227.755 182.56C227.64 181.478 227.129 179.663 226.414 178.026C225.992 177.06 225.492 176.157 224.967 175.502ZM183.306 167.836C184.04 167.397 185.003 167.286 185.796 167.379C185.71 168.812 183.698 169.192 183.306 167.836ZM176.429 170.898C176.457 170.837 176.489 170.777 176.525 170.718C176.531 170.708 176.56 170.66 176.567 170.65C176.582 170.63 176.615 170.642 176.617 170.667C176.645 171.231 176.969 172.104 178.545 172.301C180.035 172.489 181.156 172.235 182.112 171.953C182.219 172.211 182.191 172.618 181.699 172.8C181.254 172.936 180.046 173.288 178.169 173.089C176.415 172.903 176.011 171.802 176.429 170.898ZM224.967 146.658C226.678 146.207 227.93 144.435 227.79 142.417C227.615 139.916 225.247 137.271 219.632 138.38C217.588 138.785 215.915 139.38 214.31 140.035C212.624 140.722 211.014 141.476 209.128 142.146C207.185 142.836 205.555 143.134 204.287 143.027C203.147 142.93 202.299 142.505 201.781 141.741C201.077 140.684 202.101 139.619 202.534 139.321C203.324 138.805 204.035 137.924 203.615 136.49C202.858 136.622 201.529 137.067 200.471 137.901C199.596 138.591 198.906 139.548 198.88 140.813C198.93 142.544 200.127 143.896 202.118 144.373C203.455 144.693 204.521 144.796 205.78 144.631C207.588 144.394 209.796 143.606 213.776 142.115C217.495 140.681 219.586 140.065 221.188 139.993C222.193 139.947 223.006 140.116 223.908 140.43C224.472 140.627 224.88 140.926 225.151 141.275C225.474 141.689 225.603 142.175 225.573 142.646C225.517 143.53 224.898 144.36 223.936 144.568C223.714 144.616 223.474 144.63 223.219 144.605C222.921 144.577 222.597 144.515 222.232 144.448C221.153 144.245 219.697 143.974 217.433 144.223C216.074 144.373 214.424 144.71 212.389 145.362C208.142 146.723 204.973 147.268 202.526 147.362C199.061 147.495 197.045 146.722 195.472 146.08C195.317 144.574 194.954 143.33 194.51 142.319C193.789 140.679 192.852 139.652 192.236 139.116C192.236 139.116 192.592 138.895 192.77 137.654C191.883 137.477 190.632 137.976 190.632 137.976C190.632 137.976 188.307 136.483 185.165 137.015C183.966 137.225 183.395 137.553 183.066 138.096C180.569 139.013 180.366 139.17 179.729 139.538C179.315 139.798 179.351 140.146 179.351 140.234C179.351 140.435 179.456 140.56 179.501 140.614C179.567 140.691 179.628 140.761 179.628 140.901C179.635 141.627 179.572 141.576 179.795 142.151C179.893 142.383 180.112 142.366 180.375 142.276C182.023 141.661 183.288 142.141 183.368 143.255C183.433 144.217 182.537 144.907 181.34 145.003C181.073 145.019 180.888 145.03 180.784 145.036C180.587 145.049 180.456 145.066 180.478 145.296C180.503 145.478 180.765 146.133 180.836 146.318C181.017 146.825 181.132 146.896 181.556 146.911C182.357 146.94 183.395 146.741 183.727 146.638C183.727 146.638 183.692 147.653 184.009 149.036C181.235 148.036 179.116 147.725 176.766 147.811C174.418 147.895 172.859 148.376 171.824 148.957C169.992 149.984 169.805 151.322 169.805 151.322C169.818 151.324 172.505 151.957 173.606 151.646C174.352 151.434 174.864 150.712 174.864 150.712C174.864 150.712 176.638 151.076 178.971 152.314C180.112 152.919 181.386 153.733 182.653 154.816C182.699 154.856 185.631 153.521 185.775 153.468C186.137 153.335 186.408 153.576 186.47 153.694C186.572 153.887 186.607 154.248 186.324 154.437C186.046 154.686 184.082 155.554 182.189 156.672C180.959 157.4 179.622 158.19 178.473 158.893C177.571 158.777 177.18 158.742 176.333 158.75C174.523 158.77 173.332 160.352 173.332 161.509H180.372C180.666 161.403 183.609 160.802 186.582 160.207C188.744 159.775 190.92 159.346 192.104 159.112C192.635 159.007 192.964 158.941 193.008 158.932C193.166 158.896 193.38 158.871 193.573 158.682C193.669 158.587 193.761 158.451 193.838 158.252C193.892 158.116 194.142 157.392 194.142 157.392L195.682 157.243C197.738 157.069 199.562 156.655 201.198 156.131C203.301 155.458 205.096 154.604 206.681 153.845C208.611 152.919 210.204 152.156 211.585 152.095C211.363 153.46 211.684 154.521 211.901 155.568C212.108 156.564 212.222 157.546 211.684 158.761C207.607 158.761 208.055 161.509 208.055 161.509H215.126C215.126 161.509 215.624 159.883 216.769 158.091C217.296 157.266 217.942 156.406 218.773 155.651C218.946 155.496 218.93 155.332 218.832 155.201C217.934 154.087 217.481 151.844 217.481 151.844C217.404 151.558 217.75 151.367 217.869 151.348C217.993 151.326 218.329 151.323 218.398 151.646C218.398 151.646 218.555 153.202 220.028 154.556C220.96 155.41 222.091 156.084 223.219 156.615C224.576 157.254 225.928 157.687 226.926 157.983C228.066 158.319 228.193 158.7 228.193 158.814C228.167 158.814 227.76 158.834 227.694 158.84C227.116 158.904 226.453 158.978 225.681 159.711C224.891 160.461 225.057 161.509 225.057 161.509H229.922C230.557 161.509 230.782 161.135 231.003 160.42C231.145 159.96 231.721 157.628 231.76 157.468C231.95 156.759 231.751 156.383 231.506 156.171C230.948 155.612 230.27 155.122 229.645 154.73C228.631 154.094 227.755 153.716 227.755 153.716C227.64 152.633 227.129 150.818 226.414 149.182C225.992 148.216 225.492 147.312 224.967 146.658ZM183.306 138.991C184.04 138.553 185.003 138.441 185.796 138.534C185.71 139.967 183.698 140.347 183.306 138.991ZM176.429 142.054C176.457 141.993 176.489 141.932 176.525 141.873C176.531 141.863 176.56 141.816 176.567 141.805C176.582 141.785 176.615 141.797 176.617 141.822C176.645 142.387 176.969 143.26 178.545 143.456C180.035 143.645 181.156 143.391 182.112 143.109C182.219 143.367 182.191 143.774 181.699 143.955C181.254 144.091 180.046 144.443 178.169 144.244C176.415 144.058 176.011 142.957 176.429 142.054ZM224.967 117.813C226.678 117.362 227.93 115.59 227.79 113.573C227.615 111.072 225.247 108.427 219.632 109.536C217.588 109.94 215.915 110.535 214.31 111.19C212.624 111.878 211.014 112.631 209.128 113.301C207.185 113.991 205.555 114.29 204.287 114.182C203.147 114.085 202.299 113.66 201.781 112.897C201.077 111.84 202.101 110.774 202.534 110.477C203.324 109.96 204.035 109.079 203.615 107.646C202.858 107.778 201.529 108.222 200.471 109.057C199.596 109.747 198.906 110.703 198.88 111.969C198.93 113.7 200.127 115.052 202.118 115.529C203.455 115.849 204.521 115.951 205.78 115.787C207.588 115.55 209.796 114.761 213.776 113.271C217.495 111.836 219.586 111.22 221.188 111.148C222.193 111.103 223.006 111.271 223.908 111.586C224.472 111.783 224.88 112.081 225.151 112.43C225.474 112.845 225.603 113.331 225.573 113.802C225.517 114.685 224.898 115.516 223.936 115.723C223.714 115.771 223.474 115.786 223.219 115.761C222.921 115.732 222.597 115.671 222.232 115.603C221.153 115.401 219.697 115.129 217.433 115.379C216.074 115.528 214.424 115.865 212.389 116.518C208.142 117.879 204.973 118.424 202.526 118.518C199.061 118.651 197.045 117.878 195.472 117.235C195.317 115.73 194.954 114.486 194.51 113.475C193.789 111.834 192.852 110.807 192.236 110.271C192.236 110.271 192.592 110.05 192.77 108.809C191.883 108.632 190.632 109.131 190.632 109.131C190.632 109.131 188.307 107.639 185.165 108.17C183.966 108.381 183.395 108.709 183.066 109.251C180.569 110.168 180.366 110.326 179.729 110.693C179.315 110.954 179.351 111.301 179.351 111.389C179.351 111.59 179.456 111.715 179.501 111.77C179.567 111.846 179.628 111.916 179.628 112.056C179.635 112.783 179.572 112.731 179.795 113.307C179.893 113.539 180.112 113.521 180.375 113.432C182.023 112.817 183.288 113.296 183.368 114.411C183.433 115.372 182.537 116.062 181.34 116.158C181.073 116.175 180.888 116.185 180.784 116.191C180.587 116.204 180.456 116.222 180.478 116.452C180.503 116.633 180.765 117.288 180.836 117.474C181.017 117.98 181.132 118.051 181.556 118.067C182.357 118.095 183.395 117.896 183.727 117.793C183.727 117.793 183.692 118.808 184.009 120.191C181.235 119.191 179.116 118.881 176.766 118.966C174.418 119.051 172.859 119.532 171.824 120.112C169.992 121.14 169.805 122.478 169.805 122.478C169.818 122.48 172.505 123.112 173.606 122.802C174.352 122.589 174.864 121.867 174.864 121.867C174.864 121.867 176.638 122.231 178.971 123.469C180.112 124.074 181.386 124.889 182.653 125.971C182.699 126.011 185.631 124.676 185.775 124.623C186.137 124.49 186.408 124.732 186.47 124.849C186.572 125.042 186.607 125.404 186.324 125.592C186.046 125.842 184.082 126.709 182.189 127.827C180.959 128.556 179.622 129.346 178.473 130.048C177.571 129.932 177.18 129.897 176.333 129.906C174.523 129.926 173.332 131.508 173.332 132.665H180.372C180.666 132.558 183.609 131.958 186.582 131.363C188.744 130.93 190.92 130.501 192.104 130.267C192.635 130.162 192.964 130.097 193.008 130.088C193.166 130.052 193.38 130.027 193.573 129.837C193.669 129.742 193.761 129.606 193.838 129.407C193.892 129.271 194.142 128.547 194.142 128.547L195.682 128.398C197.738 128.224 199.562 127.81 201.198 127.287C203.301 126.614 205.096 125.76 206.681 125C208.611 124.075 210.204 123.311 211.585 123.25C211.363 124.615 211.684 125.677 211.901 126.723C212.108 127.719 212.222 128.701 211.684 129.917C207.607 129.917 208.055 132.665 208.055 132.665H215.126C215.126 132.665 215.624 131.039 216.769 129.247C217.296 128.422 217.942 127.561 218.773 126.807C218.946 126.652 218.93 126.487 218.832 126.356C217.934 125.242 217.481 123 217.481 123C217.404 122.713 217.75 122.523 217.869 122.503C217.993 122.481 218.329 122.479 218.398 122.802C218.398 122.802 218.555 124.357 220.028 125.712C220.96 126.566 222.091 127.239 223.219 127.771C224.576 128.41 225.928 128.843 226.926 129.138C228.066 129.475 228.193 129.856 228.193 129.969C228.167 129.969 227.76 129.989 227.694 129.996C227.116 130.059 226.453 130.133 225.681 130.866C224.891 131.617 225.057 132.665 225.057 132.665H229.922C230.557 132.665 230.782 132.291 231.003 131.575C231.145 131.116 231.721 128.784 231.76 128.624C231.95 127.915 231.751 127.538 231.506 127.326C230.948 126.767 230.27 126.277 229.645 125.885C228.631 125.25 227.755 124.871 227.755 124.871C227.64 123.789 227.129 121.974 226.414 120.337C225.992 119.371 225.492 118.468 224.967 117.813ZM183.306 110.147C184.04 109.708 185.003 109.597 185.796 109.69C185.71 111.123 183.698 111.503 183.306 110.147ZM176.429 113.209C176.457 113.148 176.489 113.088 176.525 113.029C176.531 113.019 176.56 112.971 176.567 112.961C176.582 112.94 176.615 112.953 176.617 112.978C176.645 113.542 176.969 114.415 178.545 114.612C180.035 114.8 181.156 114.546 182.112 114.264C182.219 114.522 182.191 114.929 181.699 115.111C181.254 115.247 180.046 115.599 178.169 115.4C176.415 115.214 176.011 114.113 176.429 113.209Z" fill="#2A2623"/><path d="M256.958 129.357H265.003C268.921 129.357 271.011 126.816 271.011 124.063C271.011 122.078 269.873 120.226 267.624 119.591C269.503 118.982 270.429 117.182 270.429 115.382C270.429 113.08 268.841 110.83 265.48 110.83H256.958V129.357ZM264.633 126.075H260.451V121.099H264.792C266.565 121.099 267.465 122.211 267.465 123.508C267.465 124.857 266.592 126.075 264.633 126.075ZM264.421 118.32H260.451V114.086H264.58C266.115 114.086 266.856 114.959 266.856 116.097C266.856 117.314 266.036 118.32 264.421 118.32ZM277.602 129.648C279.825 129.648 281.386 128.642 282.207 127.028V129.357H285.383V120.014C285.383 116.944 283.583 115.462 279.878 115.462C276.516 115.462 274.214 116.679 273.552 119.379L276.755 120.067C276.993 118.823 277.813 118.082 279.692 118.082C281.201 118.082 281.969 118.611 281.969 119.723C281.969 120.782 281.28 121.02 280.248 121.179L277.496 121.549C275.511 121.84 273.155 122.608 273.155 125.599C273.155 128.219 275.008 129.648 277.602 129.648ZM278.581 126.842C277.311 126.842 276.569 126.313 276.569 125.254C276.569 124.037 277.655 123.719 278.634 123.587L280.169 123.349C280.936 123.243 281.466 123.111 281.969 122.925V123.666C281.969 125.599 280.592 126.842 278.581 126.842ZM294.09 129.648C296.419 129.648 297.849 128.51 298.404 127.107V129.357H301.58V110.539H298.193V117.553C297.452 116.229 295.996 115.462 294.09 115.462C290.332 115.462 288.109 118.347 288.109 122.581C288.109 126.816 290.359 129.648 294.09 129.648ZM294.858 126.551C292.714 126.551 291.576 124.937 291.576 122.528C291.576 120.093 292.714 118.558 294.858 118.558C297.028 118.558 298.193 120.093 298.193 122.449C298.193 124.937 297.002 126.551 294.858 126.551ZM311.108 129.648C314.231 129.648 316.402 128.325 317.249 125.837L314.046 125.149C313.623 126.313 312.696 126.895 311.161 126.895C309.097 126.895 307.985 125.757 307.774 123.481H317.275V122.608C317.275 118.664 315.475 115.462 311.029 115.462C306.688 115.462 304.439 118.585 304.439 122.714C304.439 127.16 307.112 129.648 311.108 129.648ZM307.853 121.179C308.171 119.247 309.15 118.214 311.029 118.214C312.908 118.214 313.834 119.247 313.94 121.179H307.853ZM320.134 129.357H323.521V121.946C323.521 119.696 324.765 118.479 326.538 118.479C327.968 118.479 328.92 119.326 328.92 120.993V129.357H332.335V120.385C332.335 117.288 330.826 115.462 327.782 115.462C325.718 115.462 324.183 116.282 323.415 117.844V115.7H320.134V129.357ZM335.061 121.761H342.392V118.717H335.061V121.761ZM348.162 129.357H352.185L355.837 115.7L359.489 129.357H363.512L368.223 110.83H364.598L361.342 124.699L357.849 110.83H353.826L350.332 124.699L347.077 110.83H343.451L348.162 129.357ZM374.602 129.648C376.56 129.648 378.069 128.801 378.784 127.028V129.357H381.986V115.7H378.572V123.19C378.572 125.334 377.46 126.71 375.766 126.71C374.337 126.71 373.437 125.863 373.437 124.169V115.7H370.05V124.725C370.05 127.822 371.664 129.648 374.602 129.648ZM377.116 113.9H380.054V110.857H377.116V113.9ZM372.035 113.9H374.972V110.857H372.035V113.9ZM385.744 129.357H389.132V122.634C389.132 120.252 390.032 118.876 392.361 118.876H393.578V115.541H392.387C390.641 115.541 389.476 116.573 389.026 118.135V115.7H385.744V129.357ZM401.095 129.357H403.662V126.366H402.021C400.963 126.366 400.619 125.943 400.619 124.91V118.691H403.371V115.7H400.619V111.624L397.204 112.577V115.7H394.849V118.691H397.204V125.466C397.204 128.086 398.501 129.357 401.095 129.357ZM411.285 129.357H413.852V126.366H412.211C411.152 126.366 410.808 125.943 410.808 124.91V118.691H413.561V115.7H410.808V111.624L407.394 112.577V115.7H405.039V118.691H407.394V125.466C407.394 128.086 408.691 129.357 411.285 129.357ZM422.348 129.648C425.471 129.648 427.641 128.325 428.488 125.837L425.286 125.149C424.862 126.313 423.936 126.895 422.401 126.895C420.336 126.895 419.225 125.757 419.013 123.481H428.514V122.608C428.514 118.664 426.715 115.462 422.268 115.462C417.928 115.462 415.678 118.585 415.678 122.714C415.678 127.16 418.351 129.648 422.348 129.648ZM419.092 121.179C419.41 119.247 420.389 118.214 422.268 118.214C424.147 118.214 425.074 119.247 425.18 121.179H419.092ZM431.346 129.357H434.761V121.39C434.761 119.458 435.899 118.479 437.301 118.479C438.572 118.479 439.366 119.194 439.366 120.676V129.357H442.78V121.39C442.78 119.458 443.892 118.479 445.321 118.479C446.591 118.479 447.385 119.194 447.385 120.676V129.357H450.773V119.882C450.773 116.97 448.841 115.462 446.432 115.462C444.474 115.462 442.859 116.229 442.065 117.976C441.589 116.229 440.08 115.462 438.413 115.462C436.746 115.462 435.343 116.229 434.655 117.711V115.7H431.346V129.357ZM461.889 129.648C465.621 129.648 467.87 126.763 467.87 122.502C467.87 118.347 465.727 115.462 461.995 115.462C459.983 115.462 458.501 116.388 457.787 117.791V110.539H454.399V129.357H457.575V127.213C458.131 128.563 459.639 129.648 461.889 129.648ZM461.121 126.551C459.004 126.551 457.787 125.016 457.787 122.555C457.787 120.12 459.004 118.585 461.174 118.585C463.318 118.585 464.403 120.093 464.403 122.528C464.403 124.963 463.292 126.551 461.121 126.551ZM476.499 129.648C479.622 129.648 481.792 128.325 482.639 125.837L479.436 125.149C479.013 126.313 478.086 126.895 476.551 126.895C474.487 126.895 473.375 125.757 473.164 123.481H482.665V122.608C482.665 118.664 480.866 115.462 476.419 115.462C472.079 115.462 469.829 118.585 469.829 122.714C469.829 127.16 472.502 129.648 476.499 129.648ZM473.243 121.179C473.561 119.247 474.54 118.214 476.419 118.214C478.298 118.214 479.225 119.247 479.33 121.179H473.243ZM485.524 129.357H488.911V122.634C488.911 120.252 489.811 118.876 492.14 118.876H493.358V115.541H492.167C490.42 115.541 489.255 116.573 488.805 118.135V115.7H485.524V129.357ZM501.404 134.73C505.109 134.73 508.153 132.797 508.153 128.483V115.7H504.791V117.606C504.156 116.362 502.78 115.462 500.742 115.462C497.46 115.462 494.708 117.764 494.708 122.29C494.708 126.737 497.381 128.907 500.583 128.907C502.542 128.907 504.103 128.06 504.844 126.604V128.907C504.844 130.971 503.574 132.056 501.43 132.056C499.339 132.056 498.36 131.104 498.175 129.807L494.866 130.521C495.554 133.247 498.069 134.73 501.404 134.73ZM501.43 126.048C499.604 126.048 498.175 124.857 498.175 122.343C498.175 119.749 499.63 118.585 501.483 118.585C503.336 118.585 504.738 119.802 504.738 122.317C504.738 124.937 503.203 126.048 501.43 126.048Z" fill="#2A2623"/><path d="M256.958 158.098H260.266V144.15L264.898 158.098H268.55L273.155 144.15V158.098H276.464V139.571H271.514L266.724 153.916L261.907 139.571H256.958V158.098ZM280.407 158.098H283.821V144.441H280.407V158.098ZM280.354 142.589H283.874V139.121H280.354V142.589ZM287.474 158.098H290.861V150.687C290.861 148.438 292.105 147.22 293.879 147.22C295.308 147.22 296.261 148.067 296.261 149.735V158.098H299.675V149.126C299.675 146.029 298.166 144.203 295.123 144.203C293.058 144.203 291.523 145.023 290.756 146.585V144.441H287.474V158.098ZM303.195 158.098H306.609V144.441H303.195V158.098ZM303.142 142.589H306.662V139.121H303.142V142.589ZM315.608 158.389C318.81 158.389 321.192 156.986 321.192 154.049C321.192 151.323 319.128 150.555 317.063 150.184L314.92 149.787C313.649 149.549 312.802 149.205 312.802 148.199C312.802 147.326 313.517 146.797 314.92 146.797C316.508 146.797 317.487 147.432 317.619 148.729L320.875 148.041C320.398 145.473 318.228 144.203 315.052 144.203C311.638 144.203 309.573 145.659 309.573 148.438C309.573 151.375 311.849 152.169 313.94 152.54L315.74 152.858C317.01 153.096 317.91 153.387 317.91 154.393C317.91 155.319 317.116 155.769 315.687 155.769C314.02 155.769 312.908 155.16 312.67 153.837L309.362 154.525C309.97 157.278 312.696 158.389 315.608 158.389ZM328.603 158.098H331.17V155.107H329.529C328.471 155.107 328.126 154.684 328.126 153.652V147.432H330.879V144.441H328.126V140.365L324.712 141.318V144.441H322.357V147.432H324.712V154.207C324.712 156.828 326.009 158.098 328.603 158.098ZM339.666 158.389C342.789 158.389 344.959 157.066 345.806 154.578L342.604 153.89C342.18 155.054 341.254 155.637 339.719 155.637C337.654 155.637 336.543 154.499 336.331 152.222H345.833V151.349C345.833 147.405 344.033 144.203 339.587 144.203C335.246 144.203 332.996 147.326 332.996 151.455C332.996 155.901 335.669 158.389 339.666 158.389ZM336.411 149.92C336.728 147.988 337.707 146.956 339.587 146.956C341.466 146.956 342.392 147.988 342.498 149.92H336.411ZM348.691 158.098H352.079V151.375C352.079 148.993 352.979 147.617 355.308 147.617H356.525V144.282H355.334C353.587 144.282 352.423 145.315 351.973 146.876V144.441H348.691V158.098ZM358.854 158.098H362.268V144.441H358.854V158.098ZM358.801 142.589H362.321V139.121H358.801V142.589ZM370.341 158.389C372.299 158.389 373.808 157.542 374.522 155.769V158.098H377.725V144.441H374.311V151.931C374.311 154.075 373.199 155.451 371.505 155.451C370.076 155.451 369.176 154.604 369.176 152.911V144.441H365.789V153.466C365.789 156.563 367.403 158.389 370.341 158.389ZM381.457 158.098H384.871V150.132C384.871 148.199 386.009 147.22 387.412 147.22C388.682 147.22 389.476 147.935 389.476 149.417V158.098H392.89V150.132C392.89 148.199 394.002 147.22 395.431 147.22C396.702 147.22 397.496 147.935 397.496 149.417V158.098H400.883V148.623C400.883 145.712 398.951 144.203 396.543 144.203C394.584 144.203 392.97 144.971 392.176 146.717C391.699 144.971 390.191 144.203 388.523 144.203C386.856 144.203 385.453 144.971 384.765 146.453V144.441H381.457V158.098ZM411.576 158.098H414.99V147.432H417.531V144.441H414.99V143.435C414.99 142.509 415.281 142.139 416.207 142.139H417.848V139.28H415.281C412.899 139.28 411.576 140.498 411.576 143.277V144.441H409.511V147.432H411.576V158.098ZM424.465 158.389C426.424 158.389 427.932 157.542 428.647 155.769V158.098H431.849V144.441H428.435V151.931C428.435 154.075 427.323 155.451 425.63 155.451C424.2 155.451 423.301 154.604 423.301 152.911V144.441H419.913V153.466C419.913 156.563 421.527 158.389 424.465 158.389ZM426.979 142.641H429.917V139.598H426.979V142.641ZM421.898 142.641H424.836V139.598H421.898V142.641ZM435.608 158.098H438.995V151.375C438.995 148.993 439.895 147.617 442.224 147.617H443.442V144.282H442.251C440.504 144.282 439.339 145.315 438.889 146.876V144.441H435.608V158.098ZM454.822 158.098H458.845L462.498 144.441L466.15 158.098H470.173L474.884 139.571H471.258L468.003 153.44L464.509 139.571H460.486L456.993 153.44L453.737 139.571H450.111L454.822 158.098ZM477.266 158.098H480.68V144.441H477.266V158.098ZM477.213 142.589H480.733V139.121H477.213V142.589ZM484.333 158.098H487.72V151.375C487.72 148.993 488.62 147.617 490.949 147.617H492.167V144.282H490.976C489.229 144.282 488.064 145.315 487.614 146.876V144.441H484.333V158.098ZM499.683 158.098H502.251V155.107H500.61C499.551 155.107 499.207 154.684 499.207 153.652V147.432H501.959V144.441H499.207V140.365L495.793 141.318V144.441H493.437V147.432H495.793V154.207C495.793 156.828 497.09 158.098 499.683 158.098ZM510.323 158.389C513.525 158.389 515.907 156.986 515.907 154.049C515.907 151.323 513.843 150.555 511.778 150.184L509.635 149.787C508.364 149.549 507.517 149.205 507.517 148.199C507.517 147.326 508.232 146.797 509.635 146.797C511.223 146.797 512.202 147.432 512.334 148.729L515.59 148.041C515.113 145.473 512.943 144.203 509.767 144.203C506.353 144.203 504.288 145.659 504.288 148.438C504.288 151.375 506.565 152.169 508.655 152.54L510.455 152.858C511.726 153.096 512.625 153.387 512.625 154.393C512.625 155.319 511.831 155.769 510.402 155.769C508.735 155.769 507.623 155.16 507.385 153.837L504.077 154.525C504.685 157.278 507.412 158.389 510.323 158.389ZM524.244 158.389C527.606 158.389 529.882 156.669 530.358 153.837L526.97 153.122C526.838 154.684 525.938 155.425 524.377 155.425C522.101 155.425 521.227 153.81 521.227 151.323C521.227 148.914 522.048 147.141 524.43 147.141C525.938 147.141 526.865 147.935 526.97 149.417L530.358 148.729C529.908 145.897 527.791 144.203 524.456 144.203C519.904 144.203 517.76 147.379 517.76 151.428C517.76 155.266 519.719 158.389 524.244 158.389ZM533.269 158.098H536.657V150.687C536.657 148.438 537.901 147.22 539.674 147.22C541.104 147.22 542.056 148.067 542.056 149.735V158.098H545.471V149.126C545.471 146.029 543.962 144.203 540.918 144.203C538.933 144.203 537.451 144.971 536.657 146.4V139.28H533.269V158.098ZM552.696 158.389C554.919 158.389 556.481 157.383 557.301 155.769V158.098H560.477V148.755C560.477 145.685 558.677 144.203 554.972 144.203C551.611 144.203 549.308 145.42 548.647 148.12L551.849 148.808C552.087 147.564 552.908 146.823 554.787 146.823C556.295 146.823 557.063 147.353 557.063 148.464C557.063 149.523 556.375 149.761 555.343 149.92L552.59 150.29C550.605 150.581 548.25 151.349 548.25 154.34C548.25 156.96 550.102 158.389 552.696 158.389ZM553.675 155.584C552.405 155.584 551.664 155.054 551.664 153.996C551.664 152.778 552.749 152.461 553.728 152.328L555.263 152.09C556.031 151.984 556.56 151.852 557.063 151.667V152.408C557.063 154.34 555.687 155.584 553.675 155.584ZM564.871 158.098H568.285V147.432H570.826V144.441H568.285V143.435C568.285 142.509 568.576 142.139 569.502 142.139H571.143V139.28H568.576C566.194 139.28 564.871 140.498 564.871 143.277V144.441H562.806V147.432H564.871V158.098ZM578.316 158.098H580.883V155.107H579.242C578.183 155.107 577.839 154.684 577.839 153.652V147.432H580.592V144.441H577.839V140.365L574.425 141.318V144.441H572.07V147.432H574.425V154.207C574.425 156.828 575.722 158.098 578.316 158.098ZM582.392 160.903L582.815 162.73C584.985 162.412 587.156 161.115 587.156 157.595V154.34H583.318V157.86H585.091C585.038 159.527 584.429 160.506 582.392 160.903Z" fill="#2A2623"/><path d="M255.37 187.046H259.128L260.637 182.732H268.047L269.556 187.046H273.314L266.353 168.519H262.304L255.37 187.046ZM261.722 179.609L264.342 172.145L266.962 179.609H261.722ZM275.776 187.046H279.163V180.323C279.163 177.941 280.063 176.565 282.392 176.565H283.61V173.23H282.419C280.672 173.23 279.507 174.262 279.057 175.824V173.389H275.776V187.046ZM293.535 187.337C297.266 187.337 299.516 184.452 299.516 180.191C299.516 176.036 297.372 173.151 293.641 173.151C291.629 173.151 290.147 174.077 289.432 175.48V168.228H286.045V187.046H289.221V184.902C289.776 186.252 291.285 187.337 293.535 187.337ZM292.767 184.24C290.65 184.24 289.432 182.705 289.432 180.244C289.432 177.809 290.65 176.274 292.82 176.274C294.964 176.274 296.049 177.783 296.049 180.217C296.049 182.652 294.937 184.24 292.767 184.24ZM308.144 187.337C311.267 187.337 313.438 186.014 314.285 183.526L311.082 182.838C310.659 184.002 309.732 184.584 308.197 184.584C306.133 184.584 305.021 183.446 304.809 181.17H314.311V180.297C314.311 176.353 312.511 173.151 308.065 173.151C303.724 173.151 301.475 176.274 301.475 180.403C301.475 184.849 304.148 187.337 308.144 187.337ZM304.889 178.868C305.206 176.936 306.186 175.903 308.065 175.903C309.944 175.903 310.87 176.936 310.976 178.868H304.889ZM317.064 187.046H320.478V173.389H317.064V187.046ZM317.011 171.536H320.531V168.069H317.011V171.536ZM328.788 187.046H331.355V184.055H329.715C328.656 184.055 328.312 183.632 328.312 182.599V176.38H331.064V173.389H328.312V169.313L324.898 170.266V173.389H322.542V176.38H324.898V183.155C324.898 185.775 326.194 187.046 328.788 187.046ZM344.801 187.337C346.759 187.337 348.268 186.49 348.982 184.717V187.046H352.185V173.389H348.771V180.879C348.771 183.023 347.659 184.399 345.965 184.399C344.536 184.399 343.636 183.552 343.636 181.858V173.389H340.248V182.414C340.248 185.511 341.863 187.337 344.801 187.337ZM355.943 187.046H359.331V179.635C359.331 177.386 360.575 176.168 362.348 176.168C363.777 176.168 364.73 177.015 364.73 178.682V187.046H368.144V178.074C368.144 174.977 366.636 173.151 363.592 173.151C361.527 173.151 359.992 173.971 359.225 175.533V173.389H355.943V187.046ZM376.852 187.337C379.181 187.337 380.61 186.199 381.166 184.796V187.046H384.342V168.228H380.954V175.242C380.213 173.918 378.757 173.151 376.852 173.151C373.093 173.151 370.87 176.036 370.87 180.27C370.87 184.505 373.12 187.337 376.852 187.337ZM377.619 184.24C375.475 184.24 374.337 182.626 374.337 180.217C374.337 177.783 375.475 176.247 377.619 176.247C379.789 176.247 380.954 177.783 380.954 180.138C380.954 182.626 379.763 184.24 377.619 184.24ZM398.263 187.046H401.757V171.801H407.659V168.519H392.361V171.801H398.263V187.046ZM414.514 187.337C418.59 187.337 421.183 184.637 421.183 180.244C421.183 175.85 418.59 173.151 414.514 173.151C410.464 173.151 407.844 175.85 407.844 180.244C407.844 184.637 410.464 187.337 414.514 187.337ZM414.514 184.135C412.608 184.135 411.311 182.917 411.311 180.244C411.311 177.571 412.582 176.353 414.514 176.353C416.446 176.353 417.743 177.571 417.743 180.244C417.743 182.917 416.446 184.135 414.514 184.135ZM428.488 187.337C430.447 187.337 431.955 186.49 432.67 184.717V187.046H435.872V173.389H432.458V180.879C432.458 183.023 431.347 184.399 429.653 184.399C428.223 184.399 427.324 183.552 427.324 181.858V173.389H423.936V182.414C423.936 185.511 425.55 187.337 428.488 187.337ZM439.631 187.046H443.018V180.323C443.018 177.941 443.918 176.565 446.247 176.565H447.465V173.23H446.274C444.527 173.23 443.362 174.262 442.912 175.824V173.389H439.631V187.046ZM449.794 187.046H453.208V173.389H449.794V187.046ZM449.741 171.536H453.261V168.069H449.741V171.536ZM462.207 187.337C465.409 187.337 467.791 185.934 467.791 182.996C467.791 180.27 465.727 179.503 463.662 179.132L461.519 178.735C460.248 178.497 459.401 178.153 459.401 177.147C459.401 176.274 460.116 175.745 461.519 175.745C463.107 175.745 464.086 176.38 464.218 177.677L467.473 176.989C466.997 174.421 464.827 173.151 461.651 173.151C458.237 173.151 456.172 174.607 456.172 177.386C456.172 180.323 458.448 181.117 460.539 181.488L462.339 181.805C463.609 182.044 464.509 182.335 464.509 183.341C464.509 184.267 463.715 184.717 462.286 184.717C460.619 184.717 459.507 184.108 459.269 182.785L455.96 183.473C456.569 186.225 459.295 187.337 462.207 187.337ZM470.517 187.046H473.931V179.079C473.931 177.147 475.069 176.168 476.472 176.168C477.743 176.168 478.537 176.883 478.537 178.365V187.046H481.951V179.079C481.951 177.147 483.062 176.168 484.492 176.168C485.762 176.168 486.556 176.883 486.556 178.365V187.046H489.944V177.571C489.944 174.659 488.012 173.151 485.603 173.151C483.645 173.151 482.03 173.918 481.236 175.665C480.76 173.918 479.251 173.151 477.584 173.151C475.916 173.151 474.514 173.918 473.825 175.401V173.389H470.517V187.046ZM497.99 187.337C499.948 187.337 501.457 186.49 502.171 184.717V187.046H505.374V173.389H501.96V180.879C501.96 183.023 500.848 184.399 499.154 184.399C497.725 184.399 496.825 183.552 496.825 181.858V173.389H493.437V182.414C493.437 185.511 495.052 187.337 497.99 187.337ZM514.478 187.337C517.681 187.337 520.063 185.934 520.063 182.996C520.063 180.27 517.998 179.503 515.934 179.132L513.79 178.735C512.52 178.497 511.673 178.153 511.673 177.147C511.673 176.274 512.387 175.745 513.79 175.745C515.378 175.745 516.357 176.38 516.49 177.677L519.745 176.989C519.269 174.421 517.098 173.151 513.922 173.151C510.508 173.151 508.444 174.607 508.444 177.386C508.444 180.323 510.72 181.117 512.811 181.488L514.611 181.805C515.881 182.044 516.781 182.335 516.781 183.341C516.781 184.267 515.987 184.717 514.558 184.717C512.89 184.717 511.779 184.108 511.54 182.785L508.232 183.473C508.841 186.225 511.567 187.337 514.478 187.337Z" fill="#2A2623"/></g><defs><clipPath id="clip0_28_107"><rect width="574.311" height="82.7083" fill="white" transform="translate(12.8442 107.646)"/></clipPath></defs></svg>