<?xml version="1.0" encoding="UTF-8"?>
<svg width="277px" height="42px" viewBox="0 0 277 42" version="1.1" xmlns="http://www.w3.org/2000/svg" xmlns:xlink="http://www.w3.org/1999/xlink">
    <title>logo-m-wm</title>
    <g id="logo-m-wm" stroke="none" stroke-width="1" fill="none" fill-rule="evenodd">
        <g id="BaWue_WM_Logo_rgb_pos" transform="translate(1, 1)" fill="#2A2623" fill-rule="nonzero">
            <g id="MInisterien_in_Pfade" transform="translate(41.4839, 15.2477)">
                <polygon id="Path" points="0.572395191 0.220500441 2.99973289 0.220500441 5.3621472 7.24687449 7.71164493 0.220500441 10.1389826 0.220500441 10.1389826 9.29511859 8.51639856 9.29511859 8.51639856 2.46306493 6.25783764 9.29511859 4.4664768 9.29511859 2.19499928 2.46306493 2.19499928 9.29511859 0.572415217 9.29511859 0.572415217 0.220500441"></polygon>
                <path d="M12.0470934,0 L13.7735309,0 L13.7735309,1.6982434 L12.0470934,1.6982434 L12.0470934,0 Z M12.0731068,2.60566521 L13.7477177,2.60566521 L13.7477177,9.29513859 L12.0731068,9.29513859 L12.0731068,2.60566521 Z" id="Shape"></path>
                <path d="M15.538658,2.60566521 L17.1481653,2.60566521 L17.1481653,3.65586731 C17.5246288,2.89102578 18.2775359,2.48906498 19.2899763,2.48906498 C20.7827136,2.48906498 21.5225238,3.38360677 21.5225238,4.9003898 L21.5225238,9.29511859 L19.8481132,9.29511859 L19.8481132,5.1986304 C19.8481132,4.38182876 19.3809131,3.96698793 18.6798126,3.96698793 C17.8101355,3.96698793 17.2001721,4.56326913 17.2001721,5.66523133 L17.2001721,9.29511859 L15.538658,9.29511859 L15.538658,2.60564521 L15.538658,2.60566521 Z" id="Path"></path>
                <path d="M23.2229679,0 L24.9494053,0 L24.9494053,1.6982434 L23.2229679,1.6982434 L23.2229679,0 Z M23.2489813,2.60566521 L24.9233919,2.60566521 L24.9233919,9.29513859 L23.2489813,9.29513859 L23.2489813,2.60566521 Z" id="Shape"></path>
                <path d="M26.2733658,7.54493509 L27.8959499,7.20801442 C28.0126998,7.85605571 28.5579402,8.15429631 29.3755904,8.15429631 C30.0766909,8.15429631 30.466051,7.93397587 30.466051,7.48027496 C30.466051,6.98749397 30.024664,6.84491369 29.4016038,6.72831346 L28.5190302,6.57265315 C27.493493,6.39121278 26.3772192,6.002332 26.3772192,4.56326913 C26.3772192,3.2021264 27.3896596,2.48904498 29.0642705,2.48904498 C30.6217309,2.48904498 31.6861981,3.11130622 31.9198983,4.36892874 L30.3233076,4.70584941 C30.2583842,4.07068814 29.7780673,3.75956752 28.9993471,3.75956752 C28.3113634,3.75956752 27.9609133,4.01874804 27.9609133,4.44666889 C27.9609133,4.93924988 28.3762868,5.10781022 28.9993471,5.22441045 L30.0506975,5.41895084 C31.0631379,5.6003912 32.0755582,5.97637195 32.0755582,7.31173462 C32.0755582,8.7505975 30.9074579,9.43771888 29.3366804,9.43771888 C27.9088665,9.43771888 26.5719894,8.89317779 26.2733658,7.54493509 L26.2733658,7.54493509 Z" id="Path"></path>
                <path d="M33.8019757,7.38945478 L33.8019757,4.07068814 L32.6467719,4.07068814 L32.6467719,2.60564521 L33.8019757,2.60564521 L33.8019757,1.07596215 L35.4765865,0.609361219 L35.4765865,2.60564521 L36.8265605,2.60564521 L36.8265605,4.07068814 L35.4765865,4.07068814 L35.4765865,7.11717423 C35.4765865,7.62283525 35.6453633,7.83025566 36.1645702,7.83025566 L36.9693238,7.83025566 L36.9693238,9.29509859 L35.7102867,9.29509859 C34.4381528,9.29509859 33.8019757,8.67283735 33.8019757,7.38943478 L33.8019757,7.38945478 Z" id="Path"></path>
                <path d="M37.8650143,6.04121208 C37.8650143,4.01874804 38.9683915,2.48906498 41.0970856,2.48906498 C43.2778065,2.48906498 44.1606004,4.05762812 44.1606004,5.98927198 L44.1606004,6.41719283 L39.5005149,6.41719283 C39.6043683,7.53203506 40.1495886,8.08945618 41.162029,8.08945618 C41.9149561,8.08945618 42.3692395,7.80429561 42.5769263,7.23379447 L44.1475036,7.57089514 C43.7321301,8.78945758 42.6678631,9.43769888 41.1360156,9.43769888 C39.1760782,9.43769888 37.8650143,8.21913644 37.8650143,6.04121208 L37.8650143,6.04121208 Z M42.5248995,5.28925058 C42.4730729,4.34296869 42.0187894,3.83728767 41.0970856,3.83728767 C40.1753817,3.83728767 39.6952851,4.34294869 39.5394249,5.28925058 L42.5248995,5.28925058 Z" id="Shape"></path>
                <path d="M45.5624009,2.60566521 L47.1718881,2.60566521 L47.1718881,3.7984476 C47.3924915,3.03360607 47.9637252,2.52794506 48.8204856,2.52794506 L49.4046359,2.52794506 L49.4046359,4.16154832 L48.8073888,4.16154832 C47.6651016,4.16154832 47.223915,4.83556967 47.223915,6.002372 L47.223915,9.29515859 L45.5624009,9.29515859 L45.5624009,2.60568521 L45.5624009,2.60566521 Z" id="Path"></path>
                <path d="M50.5207294,0 L52.2471669,0 L52.2471669,1.6982434 L50.5207294,1.6982434 L50.5207294,0 Z M50.5467428,2.60566521 L52.2213537,2.60566521 L52.2213537,9.29513859 L50.5467428,9.29513859 L50.5467428,2.60566521 Z" id="Shape"></path>
                <path d="M53.9475909,7.02637405 L53.9475909,2.60566521 L55.609105,2.60566521 L55.609105,6.75411351 C55.609105,7.58379517 56.0504919,7.998656 56.7513922,7.998656 C57.5821392,7.998656 58.1273795,7.32463465 58.1273795,6.27463255 L58.1273795,2.60566521 L59.8017901,2.60566521 L59.8017901,9.29515859 L58.2310126,9.29515859 L58.2310126,8.15433631 C57.8805625,9.02289805 57.1407523,9.43773888 56.1801384,9.43773888 C54.739428,9.43773888 53.9475909,8.54319709 53.9475909,7.02641405 L53.9475909,7.02637405 Z" id="Path"></path>
                <path d="M61.6320209,2.60566521 L63.254645,2.60566521 L63.254645,3.59102718 C63.5921785,2.86504573 64.2801822,2.48906498 65.0978324,2.48906498 C65.9154826,2.48906498 66.6554931,2.86504573 66.8891933,3.72070744 C67.2785534,2.86504573 68.0703904,2.48906498 69.0310042,2.48906498 C70.2122014,2.48906498 71.1597184,3.22792646 71.1597184,4.65410931 L71.1597184,9.29513859 L69.4982043,9.29513859 L69.4982043,5.04299009 C69.4982043,4.31700863 69.1088442,3.96700793 68.4857639,3.96700793 C67.7848637,3.96700793 67.2396234,4.44668889 67.2396234,5.39299079 L67.2396234,9.29513859 L65.5652127,9.29513859 L65.5652127,5.04299009 C65.5652127,4.31700863 65.1758526,3.96700793 64.5527723,3.96700793 C63.8647887,3.96700793 63.3066318,4.44668889 63.3066318,5.39299079 L63.3066318,9.29513859 L61.6320209,9.29513859 L61.6320209,2.60566521 L61.6320209,2.60566521 Z" id="Path"></path>
                <path d="M76.4039742,4.07070814 L75.3913535,4.07070814 L75.3913535,2.60566521 L76.4039742,2.60566521 L76.4039742,2.03534407 C76.4039742,0.674201348 77.0528476,0.0777201554 78.2211482,0.0777201554 L79.4801853,0.0777201554 L79.4801853,1.47792296 L78.6754317,1.47792296 C78.2211281,1.47792296 78.0783848,1.65936332 78.0783848,2.11308423 L78.0783848,2.60566521 L79.3245254,2.60566521 L79.3245254,4.07070814 L78.0783848,4.07070814 L78.0783848,9.29513859 L76.4039742,9.29513859 L76.4039742,4.07070814 Z" id="Path"></path>
                <path d="M80.4928059,7.02637405 L80.4928059,2.60566521 L82.15432,2.60566521 L82.15432,6.75411351 C82.15432,7.58379517 82.5955066,7.998656 83.2966071,7.998656 C84.1273542,7.998656 84.6723942,7.32463465 84.6723942,6.27463255 L84.6723942,2.60566521 L86.3470051,2.60566521 L86.3470051,9.29515859 L84.7764278,9.29515859 L84.7764278,8.15433631 C84.4257775,9.02289805 83.6859672,9.43773888 82.7253534,9.43773888 C81.284643,9.43773888 80.4928059,8.54319709 80.4928059,7.02641405 L80.4928059,7.02637405 Z M81.4663363,0.233380467 L82.907247,0.233380467 L82.907247,1.72420345 L81.4663363,1.72420345 L81.4663363,0.233380467 Z M83.9585974,0.233380467 L85.3995081,0.233380467 L85.3995081,1.72420345 L83.9585974,1.72420345 L83.9585974,0.233380467 Z" id="Shape"></path>
                <path d="M88.1903928,2.60566521 L89.79988,2.60566521 L89.79988,3.7984476 C90.0206636,3.03360607 90.5917171,2.52794506 91.4484775,2.52794506 L92.0326278,2.52794506 L92.0326278,4.16154832 L91.4353807,4.16154832 C90.2930935,4.16154832 89.8519068,4.83556967 89.8519068,6.002372 L89.8519068,9.29515859 L88.1903928,9.29515859 L88.1903928,2.60568521 L88.1903928,2.60566521 Z" id="Path"></path>
                <polygon id="Path" points="95.3036291 0.220500441 97.0818931 0.220500441 98.6784838 7.01347403 100.392005 0.220500441 102.365039 0.220500441 104.078379 7.01347403 105.67497 0.220500441 107.453434 0.220500441 105.142847 9.29511859 103.169813 9.29511859 101.378452 2.60564521 99.5870908 9.29511859 97.6140566 9.29511859 95.3036692 0.220500441"></polygon>
                <path d="M108.595702,0 L110.322139,0 L110.322139,1.6982434 L108.595702,1.6982434 L108.595702,0 Z M108.621715,2.60566521 L110.296326,2.60566521 L110.296326,9.29513859 L108.621715,9.29513859 L108.621715,2.60566521 Z" id="Shape"></path>
                <path d="M112.087486,2.60566521 L113.696974,2.60566521 L113.696974,3.7984476 C113.917757,3.03360607 114.488811,2.52794506 115.345571,2.52794506 L115.929721,2.52794506 L115.929721,4.16154832 L115.332474,4.16154832 C114.190187,4.16154832 113.749001,4.83556967 113.749001,6.002372 L113.749001,9.29515859 L112.087486,9.29515859 L112.087486,2.60568521 L112.087486,2.60566521 Z" id="Path"></path>
                <path d="M117.707805,7.38945478 L117.707805,4.07068814 L116.552421,4.07068814 L116.552421,2.60564521 L117.707805,2.60564521 L117.707805,1.07596215 L119.382216,0.609361219 L119.382216,2.60564521 L120.73219,2.60564521 L120.73219,4.07068814 L119.382216,4.07068814 L119.382216,7.11717423 C119.382216,7.62283525 119.550993,7.83025566 120.0702,7.83025566 L120.874953,7.83025566 L120.874953,9.29509859 L119.615916,9.29509859 C118.343782,9.29509859 117.707805,8.67283735 117.707805,7.38943478 L117.707805,7.38945478 Z" id="Path"></path>
                <path d="M121.770644,7.54493509 L123.393228,7.20801442 C123.509978,7.85605571 124.055218,8.15429631 124.872868,8.15429631 C125.573969,8.15429631 125.963329,7.93397587 125.963329,7.48027496 C125.963329,6.98749397 125.521942,6.84491369 124.898882,6.72831346 L124.016308,6.57265315 C122.990771,6.39121278 121.874497,6.002332 121.874497,4.56326913 C121.874497,3.2021264 122.886937,2.48904498 124.561548,2.48904498 C126.119009,2.48904498 127.183476,3.11130622 127.417176,4.36892874 L125.820585,4.70584941 C125.755662,4.07068814 125.275345,3.75956752 124.496625,3.75956752 C123.808641,3.75956752 123.458191,4.01874804 123.458191,4.44666889 C123.458191,4.93924988 123.873565,5.10781022 124.496625,5.22441045 L125.547975,5.41895084 C126.560416,5.6003912 127.572836,5.97637195 127.572836,7.31173462 C127.572836,8.7505975 126.404736,9.43771888 124.833958,9.43771888 C123.406144,9.43771888 122.069267,8.89317779 121.770644,7.54493509 L121.770644,7.54493509 Z" id="Path"></path>
                <path d="M128.481583,6.02833206 C128.481583,4.04472809 129.532954,2.48906498 131.765701,2.48906498 C133.401202,2.48906498 134.439636,3.31874664 134.660239,4.70586941 L132.998725,5.04297009 C132.946899,4.31698863 132.492615,3.92812786 131.752585,3.92812786 C130.584484,3.92812786 130.182007,4.79668959 130.182007,5.97637195 C130.182007,7.19493439 130.610297,7.98575597 131.726771,7.98575597 C132.492595,7.98575597 132.933982,7.62285525 132.998725,6.85801372 L134.660239,7.20801442 C134.426739,8.59511719 133.310265,9.43769888 131.661848,9.43769888 C129.442197,9.43769888 128.481583,7.90801582 128.481583,6.02831206 L128.481583,6.02833206 Z" id="Path"></path>
                <path d="M136.088033,0.0777001554 L137.749567,0.0777001554 L137.749567,3.56502713 C138.138927,2.86502573 138.865841,2.48904498 139.839351,2.48904498 C141.332089,2.48904498 142.071899,3.38358677 142.071899,4.9003698 L142.071899,9.29509859 L140.397488,9.29509859 L140.397488,5.1986104 C140.397488,4.38180876 139.930288,3.96696793 139.229188,3.96696793 C138.359511,3.96696793 137.749547,4.56324913 137.749547,5.66521133 L137.749547,9.29509859 L136.088033,9.29509859 L136.088033,0.0777001554 L136.088033,0.0777001554 Z" id="Path"></path>
                <path d="M143.43499,7.45429491 C143.43499,5.98925198 144.590193,5.61347123 145.563704,5.47069094 L146.913678,5.28925058 C147.419988,5.21151042 147.757341,5.09471019 147.757341,4.57634915 C147.757341,4.03180806 147.381078,3.77244754 146.641068,3.77244754 C145.719564,3.77244754 145.317107,4.13552827 145.200357,4.74470949 L143.62958,4.40778882 C143.954216,3.08532617 145.083407,2.48902498 146.732004,2.48902498 C148.549178,2.48902498 149.431952,3.21500643 149.431952,4.71890944 L149.431952,9.29509859 L147.874291,9.29509859 L147.874291,8.15427631 C147.471815,8.94509789 146.705991,9.43767888 145.615731,9.43767888 C144.343597,9.43767888 143.43499,8.73767748 143.43499,7.45427491 L143.43499,7.45429491 Z M146.095827,8.06347613 C147.082454,8.06347613 147.757341,7.45429491 147.757341,6.50781302 L147.757341,6.14491229 C147.510745,6.23573247 147.251231,6.3003726 146.874768,6.3523327 L146.121841,6.46893294 C145.641544,6.53377307 145.1094,6.68943338 145.1094,7.28573457 C145.1094,7.80429561 145.472767,8.06347613 146.095827,8.06347613 Z" id="Shape"></path>
                <path d="M151.58686,4.07070814 L150.574239,4.07070814 L150.574239,2.60566521 L151.58686,2.60566521 L151.58686,2.03534407 C151.58686,0.674201348 152.235733,0.0777201554 153.404034,0.0777201554 L154.663071,0.0777201554 L154.663071,1.47792296 L153.858317,1.47792296 C153.404014,1.47792296 153.261271,1.65936332 153.261271,2.11308423 L153.261271,2.60566521 L154.507411,2.60566521 L154.507411,4.07070814 L153.261271,4.07070814 L153.261271,9.29513859 L151.58686,9.29513859 L151.58686,4.07070814 Z" id="Path"></path>
                <path d="M156.272558,7.38945478 L156.272558,4.07068814 L155.117355,4.07068814 L155.117355,2.60564521 L156.272558,2.60564521 L156.272558,1.07596215 L157.947169,0.609361219 L157.947169,2.60564521 L159.297143,2.60564521 L159.297143,4.07068814 L157.947169,4.07068814 L157.947169,7.11717423 C157.947169,7.62283525 158.115946,7.83025566 158.635153,7.83025566 L159.439906,7.83025566 L159.439906,9.29509859 L158.180869,9.29509859 C156.908735,9.29509859 156.272558,8.67283735 156.272558,7.38943478 L156.272558,7.38945478 Z" id="Path"></path>
                <path d="M161.503697,9.17851836 L160.63402,9.17851836 L160.63402,7.45429491 L162.516118,7.45429491 L162.516118,9.0488381 C162.516118,10.7730615 161.45167,11.4082228 160.387203,11.5638831 L160.179516,10.6693413 C161.17904,10.4748009 161.477664,9.99511999 161.503677,9.17851836 L161.503697,9.17851836 Z" id="Path"></path>
                <path d="M3.40102832,14.1649683 L5.3869791,14.1649683 L8.80094404,23.2395865 L6.95755637,23.2395865 L6.21774615,21.1265023 L2.58319789,21.1265023 L1.84318741,23.2395865 L0,23.2395865 L3.40104835,14.1649683 L3.40102832,14.1649683 Z M5.68560265,19.5967992 L4.40035186,15.9409319 L3.11530133,19.5967992 L5.68560265,19.5967992 Z" id="Shape"></path>
                <path d="M10.0079543,16.5501131 L11.6174416,16.5501131 L11.6174416,17.7428955 C11.8380449,16.978054 12.4092786,16.4723929 13.2660391,16.4723929 L13.8501893,16.4723929 L13.8501893,18.1059962 L13.2529422,18.1059962 C12.1106551,18.1059962 11.6694684,18.7800176 11.6694684,19.9468199 L11.6694684,23.2396065 L10.0079543,23.2396065 L10.0079543,16.5501331 L10.0079543,16.5501131 Z" id="Path"></path>
                <path d="M16.6019638,22.1895844 L16.6019638,23.2395865 L15.0443031,23.2395865 L15.0443031,14.022188 L16.7058171,14.022188 L16.7058171,17.5743351 C17.0562673,16.8872338 17.7831809,16.4335129 18.7696079,16.4335129 C20.5998787,16.4335129 21.6514294,17.8465957 21.6514294,19.8819598 C21.6514294,21.9690639 20.5480522,23.3821668 18.7177813,23.3821668 C17.6144041,23.3821668 16.8745939,22.8507257 16.6019838,22.1895844 L16.6019638,22.1895844 Z M18.3412978,21.8653637 C19.405745,21.8653637 19.950785,21.0876222 19.950785,19.8948598 C19.950785,18.7020974 19.4186616,17.9632159 18.3673112,17.9632159 C17.302864,17.9632159 16.7057971,18.7151774 16.7057971,19.9079398 C16.7057971,21.1134022 17.302844,21.8653637 18.3412978,21.8653637 L18.3412978,21.8653637 Z" id="Shape"></path>
                <path d="M22.6118229,19.98568 C22.6118229,17.9632159 23.7152001,16.4335329 25.8438942,16.4335329 C28.0246151,16.4335329 28.907409,18.002096 28.907409,19.9337399 L28.907409,20.3616607 L24.2473235,20.3616607 C24.3511769,21.476503 24.8963972,22.0339241 25.9088376,22.0339241 C26.6617647,22.0339241 27.1160482,21.7487635 27.3237349,21.1782624 L28.8943122,21.515363 C28.4789387,22.7339255 27.4146717,23.3821668 25.8828242,23.3821668 C23.9228868,23.3821668 22.6118229,22.1636043 22.6118229,19.98568 L22.6118229,19.98568 Z M27.2719084,19.2337185 C27.2198815,18.2874366 26.765598,17.7817556 25.8438942,17.7817556 C24.9221904,17.7817556 24.4420937,18.2874166 24.2862335,19.2337185 L27.2719084,19.2337185 Z" id="Shape"></path>
                <path d="M30.2311893,13.9444479 L31.9576268,13.9444479 L31.9576268,15.6426913 L30.2311893,15.6426913 L30.2311893,13.9444479 Z M30.2572027,16.5501131 L31.9318136,16.5501131 L31.9318136,23.2395865 L30.2572027,23.2395865 L30.2572027,16.5501131 L30.2572027,16.5501131 Z" id="Shape"></path>
                <path d="M34.0994377,21.3339227 L34.0994377,18.015156 L32.9440537,18.015156 L32.9440537,16.5501131 L34.0994377,16.5501131 L34.0994377,15.02043 L35.7738484,14.5538291 L35.7738484,16.5501131 L37.1238223,16.5501131 L37.1238223,18.015156 L35.7738484,18.015156 L35.7738484,21.0616421 C35.7738484,21.5673031 35.9426251,21.7747235 36.461832,21.7747235 L37.2665856,21.7747235 L37.2665856,23.2395665 L36.0075485,23.2395665 C34.7354146,23.2395665 34.0994377,22.6173052 34.0994377,21.3339027 L34.0994377,21.3339227 Z" id="Path"></path>
                <path d="M41.6280476,20.9708419 L41.6280476,16.5501331 L43.2895616,16.5501331 L43.2895616,20.6985814 C43.2895616,21.5282631 43.7309485,21.9431239 44.4318488,21.9431239 C45.2625958,21.9431239 45.8078361,21.2691025 45.8078361,20.2191004 L45.8078361,16.5501331 L47.4822468,16.5501331 L47.4822468,23.2396265 L45.9114692,23.2396265 L45.9114692,22.0988042 C45.5610191,22.9673659 44.8212089,23.3822068 43.8605951,23.3822068 C42.4198846,23.3822068 41.6280476,22.487665 41.6280476,20.9708819 L41.6280476,20.9708419 Z" id="Path"></path>
                <path d="M49.3256144,16.5501131 L50.9351217,16.5501131 L50.9351217,17.6003152 C51.3115852,16.8354737 52.0644922,16.4335129 53.0769326,16.4335129 C54.5696699,16.4335129 55.3094801,17.3280547 55.3094801,18.8448377 L55.3094801,23.2395665 L53.6350695,23.2395665 L53.6350695,19.1430783 C53.6350695,18.3262767 53.1678694,17.9114358 52.4667689,17.9114358 C51.5970919,17.9114358 50.9871285,18.507717 50.9871285,19.6096792 L50.9871285,23.2395665 L49.3256144,23.2395665 L49.3256144,16.5500931 L49.3256144,16.5501131 Z" id="Path"></path>
                <path d="M56.6465575,19.9208398 C56.6465575,17.8466157 57.7368178,16.4335329 59.5802055,16.4335329 C60.5148059,16.4335329 61.2286027,16.8095136 61.5921697,17.4577549 L61.5921697,14.022208 L63.2536838,14.022208 L63.2536838,23.2396065 L61.6960231,23.2396065 L61.6960231,22.1376443 C61.423413,22.8247456 60.7225127,23.3821868 59.5802255,23.3821868 C57.7499547,23.3821868 56.6465575,21.995084 56.6465575,19.9208598 L56.6465575,19.9208398 Z M59.9564688,21.8653637 C61.0080194,21.8653637 61.5921697,21.0745421 61.5921697,19.8559797 C61.5921697,18.7022574 61.020936,17.9503159 59.9564688,17.9503159 C58.9051184,17.9503159 58.3469815,18.7022774 58.3469815,19.8948598 C58.3469815,21.0745421 58.9051184,21.8653637 59.9564688,21.8653637 L59.9564688,21.8653637 Z" id="Shape"></path>
                <polygon id="Path" points="70.0811931 15.7723915 67.1864551 15.7723915 67.1864551 14.1649683 74.6892518 14.1649683 74.6892518 15.7723915 71.7945137 15.7723915 71.7945137 23.2395865 70.0811731 23.2395865 70.0811731 15.7723915"></polygon>
                <path d="M74.7802086,19.9079398 C74.7802086,17.7557955 76.0652591,16.4335129 78.0512099,16.4335129 C80.0502575,16.4335129 81.3224115,17.7557755 81.3224115,19.9079398 C81.3224115,22.0601041 80.0502775,23.3821668 78.0512099,23.3821668 C76.0652591,23.3821668 74.7802086,22.0599041 74.7802086,19.9079398 L74.7802086,19.9079398 Z M78.0512099,21.8136036 C78.9989071,21.8136036 79.634884,21.2173224 79.634884,19.9079398 C79.634884,18.5985572 78.9989071,18.002076 78.0512099,18.002076 C77.1035127,18.002076 76.4806326,18.5985572 76.4806326,19.9079398 C76.4806326,21.2173224 77.1166095,21.8136036 78.0512099,21.8136036 Z" id="Shape"></path>
                <path d="M82.6723654,20.9708419 L82.6723654,16.5501331 L84.3338794,16.5501331 L84.3338794,20.6985814 C84.3338794,21.5282631 84.7750661,21.9431239 85.4761666,21.9431239 C86.3069136,21.9431239 86.8519537,21.2691025 86.8519537,20.2191004 L86.8519537,16.5501331 L88.5265646,16.5501331 L88.5265646,23.2396265 L86.9559873,23.2396265 L86.9559873,22.0988042 C86.6053369,22.9673659 85.8655267,23.3822068 84.9049129,23.3822068 C83.4642024,23.3822068 82.6723654,22.487665 82.6723654,20.9708819 L82.6723654,20.9708419 Z" id="Path"></path>
                <path d="M90.3699522,16.5501131 L91.9794395,16.5501131 L91.9794395,17.7428955 C92.2002231,16.978054 92.7712765,16.4723929 93.628037,16.4723929 L94.2121872,16.4723929 L94.2121872,18.1059962 L93.6149401,18.1059962 C92.472653,18.1059962 92.0314663,18.7800176 92.0314663,19.9468199 L92.0314663,23.2396065 L90.3699522,23.2396065 L90.3699522,16.5501331 L90.3699522,16.5501131 Z" id="Path"></path>
                <path d="M95.3280805,13.9444479 L97.054518,13.9444479 L97.054518,15.6426913 L95.3280805,15.6426913 L95.3280805,13.9444479 Z M95.3540939,16.5501131 L97.0287048,16.5501131 L97.0287048,23.2395865 L95.3540939,23.2395865 L95.3540939,16.5501131 L95.3540939,16.5501131 Z" id="Shape"></path>
                <path d="M98.3784584,21.489383 L100.001063,21.1524623 C100.117812,21.8005036 100.663053,22.0987442 101.480883,22.0987442 C102.181783,22.0987442 102.571144,21.8784238 102.571144,21.4247228 C102.571144,20.9319419 102.129757,20.7893616 101.506696,20.6727613 L100.624123,20.517101 C99.5985856,20.3356607 98.4823118,19.9467799 98.4823118,18.507717 C98.4823118,17.1465743 99.4947522,16.4334929 101.169163,16.4334929 C102.727024,16.4334929 103.791291,17.0557541 104.024971,18.3133766 L102.42838,18.6502973 C102.363457,18.015136 101.88314,17.7040154 101.10442,17.7040154 C100.416436,17.7040154 100.065986,17.9631959 100.065986,18.3911168 C100.065986,18.8836978 100.481359,19.0522581 101.10442,19.1688583 L102.15577,19.3633987 C103.16821,19.5448391 104.180831,19.9208198 104.180831,21.2561825 C104.180831,22.6950454 103.012531,23.3821668 101.441773,23.3821668 C100.013959,23.3821668 98.6769018,22.8376257 98.3784584,21.489383 L98.3784584,21.489383 Z" id="Path"></path>
                <path d="M105.517708,16.5501131 L107.140312,16.5501131 L107.140312,17.5354751 C107.477846,16.8094936 108.165849,16.4335129 108.9835,16.4335129 C109.80115,16.4335129 110.54116,16.8094936 110.774861,17.6651553 C111.164221,16.8094936 111.956058,16.4335129 112.916672,16.4335129 C114.097869,16.4335129 115.045586,17.1723743 115.045586,18.5985572 L115.045586,23.2395865 L113.384072,23.2395865 L113.384072,18.987438 C113.384072,18.2614565 112.994511,17.9114558 112.371451,17.9114558 C111.670551,17.9114558 111.125311,18.3911368 111.125311,19.3374387 L111.125311,23.2395865 L109.4509,23.2395865 L109.4509,18.987438 C109.4509,18.2614565 109.06154,17.9114558 108.43846,17.9114558 C107.750476,17.9114558 107.192319,18.3911368 107.192319,19.3374387 L107.192319,23.2395865 L105.517708,23.2395865 L105.517708,16.5501131 L105.517708,16.5501131 Z" id="Path"></path>
                <path d="M116.759127,20.9708419 L116.759127,16.5501331 L118.420641,16.5501331 L118.420641,20.6985814 C118.420641,21.5282631 118.861828,21.9431239 119.562928,21.9431239 C120.393675,21.9431239 120.938715,21.2691025 120.938715,20.2191004 L120.938715,16.5501331 L122.613326,16.5501331 L122.613326,23.2396265 L121.042749,23.2396265 L121.042749,22.0988042 C120.692098,22.9673659 119.952288,23.3822068 118.991674,23.3822068 C117.550964,23.3822068 116.759127,22.487665 116.759127,20.9708819 L116.759127,20.9708419 Z" id="Path"></path>
                <path d="M124.015287,21.489383 L125.637891,21.1524623 C125.754641,21.8005036 126.299881,22.0987442 127.117711,22.0987442 C127.818612,22.0987442 128.207972,21.8784238 128.207972,21.4247228 C128.207972,20.9319419 127.766585,20.7893616 127.143525,20.6727613 L126.260951,20.517101 C125.235414,20.3356607 124.11914,19.9467799 124.11914,18.507717 C124.11914,17.1465743 125.13158,16.4334929 126.805991,16.4334929 C128.363852,16.4334929 129.428119,17.0557541 129.661799,18.3133766 L128.065208,18.6502973 C128.000285,18.015136 127.519968,17.7040154 126.741248,17.7040154 C126.053264,17.7040154 125.702814,17.9631959 125.702814,18.3911168 C125.702814,18.8836978 126.118188,19.0522581 126.741248,19.1688583 L127.792598,19.3633987 C128.805039,19.5448391 129.817659,19.9208198 129.817659,21.2561825 C129.817659,22.6950454 128.649359,23.3821668 127.078601,23.3821668 C125.650787,23.3821668 124.31373,22.8376257 124.015287,21.489383 L124.015287,21.489383 Z" id="Path"></path>
            </g>
            <g id="BAWUE_in_Pfade" transform="translate(42.054, 1.3756)">
                <path d="M0,0.142580285 L4.17958831,0.142580285 C5.82818579,0.142580285 6.60712627,1.24454249 6.60712627,2.37246474 C6.60712627,3.25390651 6.15282276,4.13554827 5.23113894,4.43378887 C6.33451613,4.74492949 6.892653,5.6523513 6.892653,6.62461325 C6.892653,7.97285595 5.86711579,9.21739843 3.9460884,9.21739843 L0,9.21739843 L0,0.142580285 Z M3.66056167,3.81152762 C4.45219846,3.81152762 4.8546754,3.31874664 4.8546754,2.72246544 C4.8546754,2.16504433 4.49130869,1.73730347 3.73840165,1.73730347 L1.71334063,1.73730347 L1.71334063,3.81152762 L3.66056167,3.81152762 Z M3.7642148,7.60977522 C4.72482863,7.60977522 5.15329896,7.01349403 5.15329896,6.3523527 C5.15329896,5.71719143 4.71191204,5.17267035 3.84223501,5.17267035 L1.71332061,5.17267035 L1.71332061,7.60977522 L3.76419478,7.60977522 L3.7642148,7.60977522 Z" id="Shape"></path>
                <path d="M7.97019701,7.37657475 C7.97019701,5.91153182 9.12540077,5.53555107 10.0989112,5.39297079 L11.4488851,5.21153042 C11.9551954,5.13379027 12.292749,5.01719003 12.292749,4.498449 C12.292749,3.95410791 11.9162854,3.69472739 11.1762749,3.69472739 C10.2547713,3.69472739 9.85231443,4.05780812 9.73556447,4.66698933 L8.16478695,4.33006866 C8.48942392,3.00760602 9.61861426,2.41130482 11.2672117,2.41130482 C13.0843857,2.41130482 13.9671596,3.13728627 13.9671596,4.64118928 L13.9671596,9.21737843 L12.4094989,9.21737843 L12.4094989,8.07655615 C12.007022,8.86737773 11.2411983,9.35995872 10.150938,9.35995872 C8.87880404,9.35995872 7.97019701,8.65995732 7.97019701,7.37655475 L7.97019701,7.37657475 Z M10.6312349,7.98575597 C11.6176619,7.98575597 12.292749,7.37657475 12.292749,6.43009286 L12.292749,6.06719213 C12.045952,6.15781232 11.7864386,6.22265245 11.4099751,6.27461255 L10.657048,6.39121278 C10.1767511,6.45605291 9.64460765,6.61171322 9.64460765,7.20801442 C9.64460765,7.72657545 10.0081546,7.98575597 10.6312349,7.98575597 Z" id="Shape"></path>
                <path d="M15.3429467,5.8986318 C15.3429467,3.82440765 16.433207,2.41132482 18.2765947,2.41132482 C19.2111951,2.41132482 19.9249919,2.78730557 20.2885589,3.43554687 L20.2885589,0 L21.9500729,0 L21.9500729,9.21739843 L20.3924123,9.21739843 L20.3924123,8.11543623 C20.1198021,8.80253761 19.4189019,9.35997872 18.2766147,9.35997872 C16.4463439,9.35997872 15.3429467,7.97287595 15.3429467,5.8986518 L15.3429467,5.8986318 Z M18.652858,7.84317569 C19.7044086,7.84317569 20.2885589,7.0523541 20.2885589,5.83379167 C20.2885589,4.68006936 19.7173252,3.92812786 18.652858,3.92812786 C17.6015076,3.92812786 17.0433707,4.68008936 17.0433707,5.87267175 C17.0433707,7.0523541 17.6015076,7.84317569 18.652858,7.84317569 L18.652858,7.84317569 Z" id="Shape"></path>
                <path d="M23.3778868,5.96347193 C23.3778868,3.94100788 24.481264,2.41132482 26.6099581,2.41132482 C28.7906791,2.41132482 29.673473,3.98008796 29.673473,5.91153182 L29.673473,6.33945268 L25.0133875,6.33945268 C25.1172409,7.45429491 25.6624612,8.01171602 26.6749016,8.01171602 C27.4278286,8.01171602 27.8821121,7.72655545 28.0897989,7.15605431 L29.6603761,7.49315499 C29.2450026,8.71171742 28.1807357,9.35995872 26.6488881,9.35995872 C24.6889508,9.35995872 23.3778868,8.14139628 23.3778868,5.96347193 L23.3778868,5.96347193 Z M28.0379723,5.21153042 C27.9859455,4.26524853 27.531662,3.75956752 26.6099581,3.75956752 C25.6882543,3.75956752 25.2081577,4.26522853 25.0522975,5.21153042 L28.0379723,5.21153042 Z" id="Shape"></path>
                <path d="M31.1012468,2.52812506 L32.7107541,2.52812506 L32.7107541,3.57812716 C33.0872176,2.81328563 33.8401247,2.41132482 34.852565,2.41132482 C36.3453023,2.41132482 37.0851126,3.30586661 37.0851126,4.82264965 L37.0851126,9.21737843 L35.4107019,9.21737843 L35.4107019,5.12069024 C35.4107019,4.30408861 34.9435018,3.88924778 34.2424013,3.88924778 C33.3727243,3.88924778 32.7627609,4.48552897 32.7627609,5.58749117 L32.7627609,9.21737843 L31.1012468,9.21737843 L31.1012468,2.52812506 L31.1012468,2.52812506 Z" id="Path"></path>
                <polygon id="Path" points="38.4482033 4.00586801 42.0438416 4.00586801 42.0438416 5.49669099 38.4482033 5.49669099"></polygon>
                <polygon id="Path" points="42.4721317 0.142580285 44.2503957 0.142580285 45.8469864 6.93575387 47.5605073 0.142580285 49.5335415 0.142580285 51.2468821 6.93575387 52.8434728 0.142580285 54.6219371 0.142580285 52.3113493 9.21739843 50.3383151 9.21739843 48.5469543 2.52812506 46.7555934 9.21739843 44.7825592 9.21739843 42.4721718 0.142580285"></polygon>
                <path d="M55.2840875,6.9486339 L55.2840875,2.52812506 L56.9456016,2.52812506 L56.9456016,6.67657335 C56.9456016,7.50625501 57.3869885,7.92111584 58.0878888,7.92111584 C58.9186358,7.92111584 59.4638761,7.24689449 59.4638761,6.19689239 L59.4638761,2.52812506 L61.1382867,2.52812506 L61.1382867,9.21739843 L59.5675092,9.21739843 L59.5675092,8.07657615 C59.2170591,8.94513789 58.4772489,9.35997872 57.516635,9.35997872 C56.0759246,9.35997872 55.2840875,8.46543693 55.2840875,6.9486539 L55.2840875,6.9486339 Z M56.2576179,0.155660311 L57.6983284,0.155660311 L57.6983284,1.64648329 L56.2576179,1.64648329 L56.2576179,0.155660311 Z M58.749879,0.155660311 L60.1905895,0.155660311 L60.1905895,1.64648329 L58.749879,1.64648329 L58.749879,0.155660311 Z" id="Shape"></path>
                <path d="M62.669954,2.52812506 L64.2794413,2.52812506 L64.2794413,3.72070744 C64.5000446,2.95586591 65.0712783,2.4502049 65.9280387,2.4502049 L66.512189,2.4502049 L66.512189,4.08360817 L65.9149419,4.08360817 C64.7726548,4.08360817 64.3314681,4.75782952 64.3314681,5.92463185 L64.3314681,9.21741843 L62.669954,9.21741843 L62.669954,2.52812506 Z" id="Path"></path>
                <path d="M68.3033496,7.31173462 L68.3033496,3.99296799 L67.1481459,3.99296799 L67.1481459,2.52812506 L68.3033496,2.52812506 L68.3033496,0.998241996 L69.9779605,0.531641063 L69.9779605,2.52812506 L71.3279344,2.52812506 L71.3279344,3.99296799 L69.9779605,3.99296799 L69.9779605,7.03945408 C69.9779605,7.54511509 70.1467373,7.75253551 70.6659442,7.75253551 L71.4706978,7.75253551 L71.4706978,9.21737843 L70.2116607,9.21737843 C68.9395267,9.21737843 68.3033496,8.59511719 68.3033496,7.31171462 L68.3033496,7.31173462 Z" id="Path"></path>
                <path d="M73.235865,7.31173462 L73.235865,3.99296799 L72.0806612,3.99296799 L72.0806612,2.52812506 L73.235865,2.52812506 L73.235865,0.998241996 L74.9104759,0.531641063 L74.9104759,2.52812506 L76.2604498,2.52812506 L76.2604498,3.99296799 L74.9104759,3.99296799 L74.9104759,7.03945408 C74.9104759,7.54511509 75.0792527,7.75253551 75.5984596,7.75253551 L76.4032132,7.75253551 L76.4032132,9.21737843 L75.1441761,9.21737843 C73.8720421,9.21737843 73.235865,8.59511719 73.235865,7.31171462 L73.235865,7.31173462 Z" id="Path"></path>
                <path d="M77.2987034,5.96347193 C77.2987034,3.94100788 78.4020806,2.41132482 80.5307747,2.41132482 C82.7114956,2.41132482 83.5942895,3.98008796 83.5942895,5.91153182 L83.5942895,6.33945268 L78.934204,6.33945268 C79.0380574,7.45429491 79.5832777,8.01171602 80.5957181,8.01171602 C81.3486452,8.01171602 81.8029286,7.72655545 82.0106154,7.15605431 L83.5811927,7.49315499 C83.1658192,8.71171742 82.1015522,9.35995872 80.5697047,9.35995872 C78.6097673,9.35995872 77.2987034,8.14139628 77.2987034,5.96347193 L77.2987034,5.96347193 Z M81.9587888,5.21153042 C81.906762,4.26524853 81.4524785,3.75956752 80.5307747,3.75956752 C79.6090708,3.75956752 79.1289742,4.26522853 78.973114,5.21153042 L81.9587888,5.21153042 L81.9587888,5.21153042 Z" id="Shape"></path>
                <path d="M85.0091668,2.52812506 L86.6317709,2.52812506 L86.6317709,3.51328703 C86.9693044,2.78730557 87.6573081,2.41132482 88.4749583,2.41132482 C89.2926085,2.41132482 90.032619,2.78730557 90.2663191,3.64296729 C90.6556792,2.78730557 91.4475163,2.41132482 92.4081301,2.41132482 C93.5893272,2.41132482 94.5370445,3.1503863 94.5370445,4.57636915 L94.5370445,9.21739843 L92.8755304,9.21739843 L92.8755304,4.96524993 C92.8755304,4.23926848 92.4859701,3.88926778 91.8629098,3.88926778 C91.1620096,3.88926778 90.6167692,4.36894874 90.6167692,5.31525063 L90.6167692,9.21739843 L88.9423586,9.21739843 L88.9423586,4.96524993 C88.9423586,4.23926848 88.5529985,3.88926778 87.9299182,3.88926778 C87.2419346,3.88926778 86.6837777,4.36894874 86.6837777,5.31525063 L86.6837777,9.21739843 L85.0091668,9.21739843 L85.0091668,2.52812506 L85.0091668,2.52812506 Z" id="Path"></path>
                <path d="M97.7042124,8.16739633 L97.7042124,9.21739843 L96.1465518,9.21739843 L96.1465518,0 L97.8080658,0 L97.8080658,3.5521471 C98.158516,2.86504573 98.8854296,2.41132482 99.8718566,2.41132482 C101.702127,2.41132482 102.753478,3.82440765 102.753478,5.85977172 C102.753478,7.94687589 101.650301,9.35997872 99.82003,9.35997872 C98.7166528,9.35997872 97.9766424,8.82853766 97.7042325,8.16739633 L97.7042124,8.16739633 Z M99.4435465,7.84317569 C100.507994,7.84317569 101.053034,7.06543413 101.053034,5.87267175 C101.053034,4.67990936 100.52091,3.94102788 99.4695599,3.94102788 C98.4051127,3.94102788 97.8080458,4.69298939 97.8080458,5.88575177 C97.8080458,7.09141418 98.4050927,7.84317569 99.4435465,7.84317569 Z" id="Shape"></path>
                <path d="M103.740085,5.96347193 C103.740085,3.94100788 104.843462,2.41132482 106.972156,2.41132482 C109.152877,2.41132482 110.035671,3.98008796 110.035671,5.91153182 L110.035671,6.33945268 L105.375586,6.33945268 C105.479439,7.45429491 106.024659,8.01171602 107.0371,8.01171602 C107.790027,8.01171602 108.24431,7.72655545 108.451997,7.15605431 L110.022574,7.49315499 C109.607201,8.71171742 108.542934,9.35995872 107.011086,9.35995872 C105.051149,9.35995872 103.740085,8.14139628 103.740085,5.96347193 L103.740085,5.96347193 Z M108.40017,5.21153042 C108.348144,4.26524853 107.89386,3.75956752 106.972156,3.75956752 C106.050452,3.75956752 105.570356,4.26522853 105.414496,5.21153042 L108.40017,5.21153042 L108.40017,5.21153042 Z" id="Shape"></path>
                <path d="M111.463485,2.52812506 L113.072972,2.52812506 L113.072972,3.72070744 C113.293576,2.95586591 113.864809,2.4502049 114.72157,2.4502049 L115.30572,2.4502049 L115.30572,4.08360817 L114.708473,4.08360817 C113.566186,4.08360817 113.124999,4.75782952 113.124999,5.92463185 L113.124999,9.21741843 L111.463485,9.21741843 L111.463485,2.52812506 Z" id="Path"></path>
                <path d="M115.941697,9.78789958 L117.564281,9.43769888 C117.655017,10.0730601 118.135334,10.5396611 119.160872,10.5396611 C120.212222,10.5396611 120.835282,10.00822 120.835282,8.99707799 L120.835282,7.86915574 C120.471916,8.58223716 119.706092,8.99707799 118.745498,8.99707799 C117.174721,8.99707799 115.863877,7.93399587 115.863877,5.75605151 C115.863877,3.53924708 117.213851,2.41132482 118.823338,2.41132482 C119.822862,2.41132482 120.497749,2.8521457 120.809489,3.46132692 L120.809489,2.52812506 L122.457886,2.52812506 L122.457886,8.78965758 C122.457886,10.9027418 120.965149,11.8490437 119.147975,11.8490437 C117.512274,11.8490437 116.27925,11.1230622 115.941717,9.78789958 L115.941697,9.78789958 Z M119.160872,7.59689519 C120.030549,7.59689519 120.783456,7.0523341 120.783456,5.76895154 C120.783456,4.53750908 120.095472,3.94102788 119.186865,3.94102788 C118.278258,3.94102788 117.564281,4.51152902 117.564281,5.78205156 C117.564281,7.01349403 118.265181,7.59689519 119.160872,7.59689519 L119.160872,7.59689519 Z" id="Shape"></path>
            </g>
            <g id="Logo_aktuell">
                <path d="M26.7124097,32.8171856 C27.5411141,32.5992052 28.1473528,31.7420835 28.0795056,30.7664415 C27.9947368,29.5569391 26.8481441,28.2776166 24.1288314,28.8140976 C23.1391802,29.009758 22.3289596,29.2973786 21.551501,29.6141392 C20.7354128,29.9466199 19.9555111,30.3111806 19.0421179,30.6352213 C18.1015498,30.9689219 17.3121559,31.1131622 16.6981873,31.0611221 C16.145918,31.014322 15.7355309,30.8087616 15.4847087,30.4394609 C15.1434504,29.9283599 15.6394074,29.4130388 15.8492369,29.2691185 C16.2317683,29.019378 16.5761506,28.5931572 16.3726692,27.9000558 C16.0060784,27.9637559 15.3623916,28.1789164 14.8501137,28.5823972 C14.4263293,28.9160978 14.0924004,29.3785988 14.0795039,29.99078 C14.1038552,30.8278017 14.6834997,31.481743 15.6478182,31.7124234 C16.2949294,31.8671237 16.8111324,31.9168838 17.4210959,31.8371237 C18.2966404,31.7226434 19.3656735,31.3413227 21.2930691,30.6204012 C23.0940222,29.9266599 24.1065427,29.6288193 24.8823392,29.5938192 C25.3691044,29.5718591 25.76277,29.6534193 26.199551,29.8055996 C26.4726618,29.9007998 26.6700754,30.0451201 26.8015042,30.2138004 C26.9577649,30.4144408 27.0205255,30.6495213 27.0059668,30.8772818 C26.9784915,31.3045826 26.6786864,31.7062034 26.2128681,31.8065636 C26.1056104,31.8297037 25.9894411,31.8368237 25.8657423,31.8245836 C25.7216171,31.8108236 25.5647757,31.7812036 25.3877884,31.7483835 C24.8652372,31.6505033 24.1605321,31.519143 23.0638034,31.6397833 C22.4058383,31.7121634 21.606752,31.8752438 20.6212061,32.1907044 C18.5648649,32.8488857 17.0300736,33.1125462 15.8452518,33.1579263 C14.1671164,33.2222064 13.1910628,32.8485457 12.4294445,32.5378051 C12.3543481,31.8095836 12.1787225,31.2079424 11.9635061,30.7190014 C11.6142375,29.9255599 11.1605147,29.4288989 10.8621915,29.1696383 C10.8621915,29.1696383 11.0348733,29.0627581 11.1207236,28.4627569 C10.6915524,28.3770568 10.0854138,28.6183172 10.0854138,28.6183172 C10.0854138,28.6183172 8.95994826,27.8966358 7.43817368,28.1537763 C6.85744779,28.2553565 6.5809126,28.4140968 6.4219284,28.6765174 C5.21275532,29.1198982 5.11418872,29.1960784 4.80589275,29.3738587 C4.6055354,29.499779 4.62255727,29.6680193 4.62255727,29.7103594 C4.62255727,29.8077196 4.67340257,29.8680197 4.69559107,29.8944798 C4.72747202,29.9315199 4.75709006,29.9653799 4.75709006,30.0331001 C4.7603142,30.3844208 4.72961477,30.3596007 4.83765354,30.6379013 C4.88537483,30.7500615 4.99127085,30.7416015 5.11847423,30.6982214 C5.9164792,30.4008608 6.52906601,30.6327813 6.56819627,31.1718423 C6.59947645,31.6366833 6.16561919,31.9704239 5.58597469,32.016984 C5.45670866,32.024744 5.36695338,32.0300241 5.31678895,32.0328441 C5.22144649,32.0391841 5.15780475,32.0476441 5.16845843,32.1587643 C5.18077425,32.2466845 5.30769727,32.5633251 5.34212148,32.6531253 C5.4293335,32.8981658 5.48508511,32.9324859 5.69070921,32.9398859 C6.07860743,32.9536459 6.5809126,32.8573457 6.74195945,32.8076056 C6.74195945,32.8076056 6.72503772,33.2986066 6.87865503,33.9673679 C5.53492913,33.483767 4.50911156,33.3335267 3.37102979,33.3747867 C2.23420965,33.4156668 1.47885946,33.6484273 0.97771579,33.9291879 C0.0908366717,34.4260289 0,35.0731501 0,35.0731501 C0.00634815364,35.0741701 1.30773968,35.3799908 1.84074427,35.2297505 C2.20214847,35.1270903 2.45012697,34.7778896 2.45012697,34.7778896 C2.45012697,34.7778896 3.30905018,34.9540099 4.43872115,35.5525911 C4.99119074,35.8453117 5.60838347,36.2390925 6.22157106,36.7626935 C6.2442602,36.7820336 7.66384353,36.1364123 7.73367322,36.1107722 C7.90879815,36.0464521 8.03992658,36.1632123 8.07004526,36.2201524 C8.11938864,36.3134326 8.13653066,36.488373 7.99963483,36.5795332 C7.865082,36.7001334 6.91368001,37.1196142 5.99696257,37.6603553 C5.40137759,38.012736 4.75396605,38.3947568 4.19759144,38.7344175 C3.76099066,38.6783774 3.57130703,38.6613973 3.16120028,38.6656573 C2.28477459,38.6751974 1.7082541,39.4402589 1.7082541,40 L5.11741287,40 C5.25939523,39.9484799 6.68494622,39.6579393 8.12459533,39.3702787 C9.17115955,39.1611383 10.2251533,38.9535379 10.7986299,38.8403777 C11.0558002,38.7896176 11.2148845,38.7578975 11.2362119,38.7534975 C11.3126701,38.7362775 11.416123,38.7239974 11.5096031,38.6324773 C11.5564432,38.5865972 11.6007401,38.520757 11.6378878,38.4243968 C11.6643819,38.3587567 11.7852371,38.008536 11.7852371,38.008536 L12.5312152,37.9365959 C13.5269342,37.8523157 14.4098081,37.6521153 15.2022259,37.3988548 C16.2206139,37.0734141 17.0898104,36.6603733 17.8573962,36.2931926 C18.7920968,35.8455917 19.5635877,35.476291 20.2322265,35.4466509 C20.1247685,36.1068122 20.2800479,36.6203732 20.3852631,37.1262943 C20.4855919,37.6081152 20.5404424,38.0829962 20.2799478,38.6709373 C18.305632,38.6709373 18.522911,40 18.522911,40 L21.9469289,40 C21.9469289,40 22.1881587,39.2135184 22.742671,38.3468167 C22.9978787,37.9477959 23.3105804,37.5315751 23.7126568,37.1668543 C23.7964645,37.0917342 23.7890149,37.012354 23.7413136,36.9488739 C23.3067755,36.4102528 23.0871534,35.3256507 23.0871534,35.3256507 C23.0500057,35.1869904 23.2177011,35.0949702 23.2748945,35.0854302 C23.335232,35.0748701 23.4978409,35.0737101 23.5310836,35.2299505 C23.5310836,35.2299505 23.6074417,35.982092 24.3206778,36.6371133 C24.7719374,37.0502941 25.3197209,37.3760148 25.8659225,37.6329753 C26.5228262,37.9419559 27.1777674,38.1515363 27.660908,38.2942566 C28.2129771,38.4572169 28.2744961,38.6412973 28.2744961,38.6963174 C28.2617798,38.6963174 28.0646466,38.7058574 28.0328858,38.7090374 C27.7531264,38.7396975 27.432014,38.7756976 27.0578935,39.1301783 C26.6753621,39.493119 26.7559457,40 26.7559457,40 L29.1117114,40 C29.4190462,40 29.5281663,39.8190396 29.6351437,39.4730189 C29.7040723,39.2508385 29.9827502,38.1228362 30.0019148,38.0455561 C30.0940331,37.7027154 29.9976093,37.520675 29.8788968,37.4180748 C29.6088299,37.1475943 29.2804682,36.9107138 28.9776392,36.7211534 C28.4865885,36.4137728 28.0625038,36.2307925 28.0625038,36.2307925 C28.006572,35.7070914 27.7590941,34.8293897 27.4128494,34.0379081 C27.2084869,33.5707671 26.9664761,33.1336663 26.7124298,32.8171056 L26.7124097,32.8171856 Z M6.53815769,29.1094382 C6.89329383,28.8975378 7.35991316,28.8434377 7.74370611,28.8885178 C7.70215274,29.5815992 6.72784132,29.7653795 6.53815769,29.1094382 Z M3.2076199,30.5907612 C3.2213175,30.5611411 3.23685746,30.5319611 3.25415968,30.503381 C3.25700333,30.498641 3.27108142,30.475481 3.2748863,30.4703809 C3.28211559,30.4606809 3.2978558,30.4666409 3.29883707,30.478601 C3.31261476,30.7516215 3.46947624,31.1738223 4.23245622,31.2690625 C4.95418321,31.3600627 5.49678013,31.2373025 5.95987493,31.1008222 C6.01180163,31.2256825 5.99800391,31.4225228 5.75961772,31.510323 C5.54450142,31.5759432 4.95947,31.7463035 4.05020213,31.6500033 C3.20125173,31.5600031 3.0055003,31.0275221 3.2076199,30.5907412 L3.2076199,30.5907612 Z M26.7124097,18.8671577 C27.5411141,18.6491773 28.1473528,17.7920556 28.0795056,16.8164136 C27.9947368,15.6069112 26.8481441,14.3275887 24.1288314,14.8640697 C23.1391802,15.0597301 22.3289596,15.3473507 21.551501,15.6641113 C20.7354128,15.996592 19.9555111,16.3611527 19.0421179,16.6851934 C18.1015498,17.018894 17.3121559,17.1631343 16.6981873,17.1110942 C16.145918,17.0642941 15.7355309,16.8587337 15.4847087,16.489433 C15.1434504,15.978332 15.6394074,15.4630109 15.8492369,15.3190906 C16.2317683,15.0693501 16.5761506,14.6431293 16.3726692,13.9500279 C16.0060784,14.013728 15.3623916,14.2288885 14.8501137,14.6323693 C14.4263293,14.9660699 14.0924004,15.4285709 14.0795039,16.0407521 C14.1038552,16.8777738 14.6834997,17.5317151 15.6478182,17.7623955 C16.2949294,17.9170958 16.8111324,17.9668559 17.4210959,17.8870958 C18.2966404,17.7726155 19.3656735,17.3912948 21.2930691,16.6703733 C23.0940222,15.976632 24.1065427,15.6787914 24.8823392,15.6437913 C25.3691044,15.6218312 25.76277,15.7033914 26.199551,15.8555717 C26.4726618,15.9507719 26.6700754,16.0950922 26.8015042,16.2637725 C26.9577649,16.4644129 27.0205255,16.6994934 27.0059668,16.9272539 C26.9784915,17.3545547 26.6786864,17.7561755 26.2128681,17.8565357 C26.1056104,17.8796758 25.9894411,17.8867958 25.8657423,17.8745557 C25.7216171,17.8607957 25.5647757,17.8311757 25.3877884,17.7983556 C24.8652372,17.7004754 24.1605321,17.5691151 23.0638034,17.6897554 C22.4058383,17.7621355 21.606752,17.9252159 20.6212061,18.2406765 C18.5648649,18.8988578 17.0300736,19.1625183 15.8452518,19.2078984 C14.1671164,19.2721785 13.1910628,18.8985178 12.4294445,18.5877772 C12.3543481,17.8595557 12.1787225,17.2579145 11.9635061,16.7689735 C11.6142375,15.975532 11.1605147,15.478871 10.8621915,15.2196104 C10.8621915,15.2196104 11.0348733,15.1127302 11.1207236,14.512729 C10.6915524,14.4270289 10.0854138,14.6682893 10.0854138,14.6682893 C10.0854138,14.6682893 8.95994826,13.9466079 7.43817368,14.2037484 C6.85744779,14.3053286 6.5809126,14.4640689 6.4219284,14.7264895 C5.21275532,15.1698703 5.11418872,15.2460505 4.80589275,15.4238308 C4.6055354,15.5497511 4.62255727,15.7179914 4.62255727,15.7603315 C4.62255727,15.8576917 4.67340257,15.9179918 4.69559107,15.9444519 C4.72747202,15.981492 4.75709006,16.015352 4.75709006,16.0830722 C4.7603142,16.4343929 4.72961477,16.4095728 4.83765354,16.6878734 C4.88537483,16.8000336 4.99127085,16.7915736 5.11847423,16.7481935 C5.9164792,16.4508329 6.52906601,16.6827534 6.56819627,17.2218144 C6.59947645,17.6866554 6.16561919,18.020396 5.58597469,18.0669561 C5.45670866,18.0747161 5.36695338,18.0799962 5.31678895,18.0828162 C5.22144649,18.0891562 5.15780475,18.0976162 5.16845843,18.2087364 C5.18077425,18.2966566 5.30769727,18.6132972 5.34212148,18.7030974 C5.4293335,18.9481379 5.48508511,18.982458 5.69070921,18.989858 C6.07860743,19.003618 6.5809126,18.9073178 6.74195945,18.8575777 C6.74195945,18.8575777 6.72503772,19.3485787 6.87865503,20.01734 C5.53492913,19.5337391 4.50911156,19.3834988 3.37102979,19.4247588 C2.23420965,19.4656389 1.47885946,19.6983994 0.97771579,19.97916 C0.0908366717,20.476001 0,21.1231222 0,21.1231222 C0.00634815364,21.1241422 1.30773968,21.4299629 1.84074427,21.2797226 C2.20214847,21.1770624 2.45012697,20.8278617 2.45012697,20.8278617 C2.45012697,20.8278617 3.30905018,21.003982 4.43872115,21.6025632 C4.99119074,21.8952838 5.60838347,22.2890646 6.22157106,22.8126656 C6.2442602,22.8320057 7.66384353,22.1863844 7.73367322,22.1607443 C7.90879815,22.0964242 8.03992658,22.2131844 8.07004526,22.2701245 C8.11938864,22.3634047 8.13653066,22.5383451 7.99963483,22.6295053 C7.865082,22.7501055 6.91368001,23.1695863 5.99696257,23.7103274 C5.40137759,24.0627081 4.75396605,24.4447289 4.19759144,24.7843896 C3.76099066,24.7283495 3.57130703,24.7113694 3.16120028,24.7156294 C2.28477459,24.7251695 1.7082541,25.490231 1.7082541,26.0499721 L5.11741287,26.0499721 C5.25939523,25.998452 6.68494622,25.7079114 8.12459533,25.4202508 C9.17115955,25.2111104 10.2251533,25.00351 10.7986299,24.8903498 C11.0558002,24.8395897 11.2148845,24.8078696 11.2362119,24.8034696 C11.3126701,24.7862496 11.416123,24.7739695 11.5096031,24.6824494 C11.5564432,24.6365693 11.6007401,24.5707291 11.6378878,24.4743689 C11.6643819,24.4087288 11.7852371,24.0585081 11.7852371,24.0585081 L12.5312152,23.986568 C13.5269342,23.9022878 14.4098081,23.7020874 15.2022259,23.4488269 C16.2206139,23.1233862 17.0898104,22.7103454 17.8573962,22.3431647 C18.7920968,21.8955638 19.5635877,21.5262631 20.2322265,21.496623 C20.1247685,22.1567843 20.2800479,22.6703453 20.3852631,23.1762664 C20.4855919,23.6580873 20.5404424,24.1329683 20.2799478,24.7209094 C18.305632,24.7209094 18.522911,26.0499721 18.522911,26.0499721 L21.9469289,26.0499721 C21.9469289,26.0499721 22.1881587,25.2634905 22.742671,24.3967888 C22.9978787,23.997768 23.3105804,23.5815472 23.7126568,23.2168264 C23.7964645,23.1417063 23.7890149,23.0623261 23.7413136,22.998846 C23.3067755,22.4602249 23.0871534,21.3756228 23.0871534,21.3756228 C23.0500057,21.2369625 23.2177011,21.1449423 23.2748945,21.1354023 C23.335232,21.1248422 23.4978409,21.1236822 23.5310836,21.2799226 C23.5310836,21.2799226 23.6074417,22.0320641 24.3206778,22.6870854 C24.7719374,23.1002662 25.3197209,23.4259869 25.8659225,23.6829474 C26.5228262,23.991928 27.1777674,24.2015084 27.660908,24.3442287 C28.2129771,24.507189 28.2744961,24.6912694 28.2744961,24.7462895 C28.2617798,24.7462895 28.0646466,24.7558295 28.0328858,24.7590095 C27.7531264,24.7896696 27.432014,24.8256697 27.0578935,25.1801504 C26.6753621,25.5430911 26.7559457,26.0499721 26.7559457,26.0499721 L29.1117114,26.0499721 C29.4190462,26.0499721 29.5281663,25.8690117 29.6351437,25.522991 C29.7040723,25.3008106 29.9827502,24.1728083 30.0019148,24.0955282 C30.0940331,23.7526875 29.9976093,23.5706471 29.8788968,23.4680469 C29.6088299,23.1975664 29.2804682,22.9606859 28.9776392,22.7711255 C28.4865885,22.4637449 28.0625038,22.2807646 28.0625038,22.2807646 C28.006572,21.7570635 27.7590941,20.8793618 27.4128494,20.0878802 C27.2084869,19.6207392 26.9664761,19.1836384 26.7124298,18.8670777 L26.7124097,18.8671577 Z M6.53815769,15.1594103 C6.89329383,14.9475099 7.35991316,14.8934098 7.74370611,14.9384899 C7.70215274,15.6315713 6.72784132,15.8153516 6.53815769,15.1594103 Z M3.2076199,16.6407333 C3.2213175,16.6111132 3.23685746,16.5819332 3.25415968,16.5533531 C3.25700333,16.5486131 3.27108142,16.5254531 3.2748863,16.520353 C3.28211559,16.510653 3.2978558,16.516613 3.29883707,16.5285731 C3.31261476,16.8015936 3.46947624,17.2237944 4.23245622,17.3190346 C4.95418321,17.4100348 5.49678013,17.2872746 5.95987493,17.1507943 C6.01180163,17.2756546 5.99800391,17.4724949 5.75961772,17.5602951 C5.54450142,17.6259153 4.95947,17.7962756 4.05020213,17.6999754 C3.20125173,17.6099752 3.0055003,17.0774942 3.2076199,16.6407133 L3.2076199,16.6407333 Z M26.7124097,4.91712983 C27.5411141,4.6991494 28.1473528,3.84202768 28.0795056,2.86638573 C27.9947368,1.65688331 26.8481441,0.377560755 24.1288314,0.914041828 C23.1391802,1.10970222 22.3289596,1.39732279 21.551501,1.71408343 C20.7354128,2.04656409 19.9555111,2.41112482 19.0421179,2.73516547 C18.1015498,3.06886614 17.3121559,3.21310643 16.6981873,3.16106632 C16.145918,3.11426623 15.7355309,2.90870582 15.4847087,2.53940508 C15.1434504,2.02830406 15.6394074,1.51298303 15.8492369,1.36906274 C16.2317683,1.11932224 16.5761506,0.693101386 16.3726692,0 C16.0060784,0.0637001274 15.3623916,0.278860558 14.8501137,0.682341365 C14.4263293,1.01604203 14.0924004,1.47854296 14.0795039,2.09072418 C14.1038552,2.92774586 14.6834997,3.58168716 15.6478182,3.81236762 C16.2949294,3.96706793 16.8111324,4.01682803 17.4210959,3.93706787 C18.2966404,3.82258765 19.3656735,3.44126688 21.2930691,2.72034544 C23.0940222,2.02660405 24.1065427,1.72876346 24.8823392,1.69376339 C25.3691044,1.67180334 25.76277,1.75336351 26.199551,1.90554381 C26.4726618,2.000744 26.6700754,2.14506429 26.8015042,2.31374463 C26.9577649,2.51438503 27.0205255,2.7494655 27.0059668,2.97722595 C26.9784915,3.40452681 26.6786864,3.80614761 26.2128681,3.90650781 C26.1056104,3.92964786 25.9894411,3.93676787 25.8657423,3.92452785 C25.7216171,3.91076782 25.5647757,3.88114776 25.3877884,3.8483277 C24.8652372,3.7504475 24.1605321,3.61908724 23.0638034,3.73972748 C22.4058383,3.81210762 21.606752,3.97518795 20.6212061,4.29064858 C18.5648649,4.9488299 17.0300736,5.21249042 15.8452518,5.25787052 C14.1671164,5.32215064 13.1910628,4.9484899 12.4294445,4.63774928 C12.3543481,3.90952782 12.1787225,3.30788662 11.9635061,2.81894564 C11.6142375,2.02550405 11.1605147,1.52884306 10.8621915,1.26958254 C10.8621915,1.26958254 11.0348733,1.16270233 11.1207236,0.562701125 C10.6915524,0.477000954 10.0854138,0.718261437 10.0854138,0.718261437 C10.0854138,0.718261437 8.95994826,-0.00342000684 7.43817368,0.253720507 C6.85744779,0.355300711 6.5809126,0.514041028 6.4219284,0.776461553 C5.21275532,1.21984244 5.11418872,1.29602259 4.80589275,1.47380295 C4.6055354,1.5997232 4.62255727,1.76796354 4.62255727,1.81030362 C4.62255727,1.90766382 4.67340257,1.96796394 4.69559107,1.99442399 C4.72747202,2.03146406 4.75709006,2.06532413 4.75709006,2.13304427 C4.7603142,2.48436497 4.72961477,2.45954492 4.83765354,2.73784548 C4.88537483,2.8500057 4.99127085,2.84154568 5.11847423,2.7981656 C5.9164792,2.500805 6.52906601,2.73272547 6.56819627,3.27178654 C6.59947645,3.73662747 6.16561919,4.07036814 5.58597469,4.11692823 C5.45670866,4.12468825 5.36695338,4.12996826 5.31678895,4.13278827 C5.22144649,4.13912828 5.15780475,4.1475883 5.16845843,4.25870852 C5.18077425,4.34662869 5.30769727,4.66326933 5.34212148,4.75306951 C5.4293335,4.99811 5.48508511,5.03243006 5.69070921,5.03983008 C6.07860743,5.05359011 6.5809126,4.95728991 6.74195945,4.90754982 C6.74195945,4.90754982 6.72503772,5.3985508 6.87865503,6.06731213 C5.53492913,5.58371117 4.50911156,5.43347087 3.37102979,5.47473095 C2.23420965,5.51561103 1.47885946,5.7483715 0.97771579,6.02913206 C0.0908366717,6.52597305 0,7.17309435 0,7.17309435 C0.00634815364,7.17411435 1.30773968,7.47993496 1.84074427,7.32969466 C2.20214847,7.22703445 2.45012697,6.87783376 2.45012697,6.87783376 C2.45012697,6.87783376 3.30905018,7.05395411 4.43872115,7.65253531 C4.99119074,7.94525589 5.60838347,8.33903668 6.22157106,8.86263773 C6.2442602,8.88197776 7.66384353,8.23635647 7.73367322,8.21071642 C7.90879815,8.14639629 8.03992658,8.26315653 8.07004526,8.32009664 C8.11938864,8.41337683 8.13653066,8.58831718 7.99963483,8.67947736 C7.865082,8.8000776 6.91368001,9.21955844 5.99696257,9.76029952 C5.40137759,10.1126802 4.75396605,10.494701 4.19759144,10.8343617 C3.76099066,10.7783216 3.57130703,10.7613415 3.16120028,10.7656015 C2.28477459,10.7751416 1.7082541,11.5402031 1.7082541,12.0999442 L5.11741287,12.0999442 C5.25939523,12.0484241 6.68494622,11.7578835 8.12459533,11.4702229 C9.17115955,11.2610825 10.2251533,11.0534821 10.7986299,10.9403219 C11.0558002,10.8895618 11.2148845,10.8578417 11.2362119,10.8534417 C11.3126701,10.8362217 11.416123,10.8239416 11.5096031,10.7324215 C11.5564432,10.6865414 11.6007401,10.6207012 11.6378878,10.524341 C11.6643819,10.4587009 11.7852371,10.1084802 11.7852371,10.1084802 L12.5312152,10.0365401 C13.5269342,9.9522599 14.4098081,9.7520595 15.2022259,9.498799 C16.2206139,9.17335835 17.0898104,8.76031752 17.8573962,8.39313679 C18.7920968,7.94553589 19.5635877,7.57623515 20.2322265,7.54659509 C20.1247685,8.20675641 20.2800479,8.72031744 20.3852631,9.22623845 C20.4855919,9.70805942 20.5404424,10.1829404 20.2799478,10.7708815 C18.305632,10.7708815 18.522911,12.0999442 18.522911,12.0999442 L21.9469289,12.0999442 C21.9469289,12.0999442 22.1881587,11.3134626 22.742671,10.4467609 C22.9978787,10.0477401 23.3105804,9.63151926 23.7126568,9.26679853 C23.7964645,9.19167838 23.7890149,9.11229822 23.7413136,9.0488181 C23.3067755,8.51019702 23.0871534,7.42559485 23.0871534,7.42559485 C23.0500057,7.28693457 23.2177011,7.19491439 23.2748945,7.18537437 C23.335232,7.17481435 23.4978409,7.17365435 23.5310836,7.32989466 C23.5310836,7.32989466 23.6074417,8.08203616 24.3206778,8.73705747 C24.7719374,9.1502383 25.3197209,9.47595895 25.8659225,9.73291947 C26.5228262,10.0419001 27.1777674,10.2514805 27.660908,10.3942008 C28.2129771,10.5571611 28.2744961,10.7412415 28.2744961,10.7962616 C28.2617798,10.7962616 28.0646466,10.8058016 28.0328858,10.8089816 C27.7531264,10.8396417 27.432014,10.8756418 27.0578935,11.2301225 C26.6753621,11.5930632 26.7559457,12.0999442 26.7559457,12.0999442 L29.1117114,12.0999442 C29.4190462,12.0999442 29.5281663,11.9189838 29.6351437,11.5729631 C29.7040723,11.3507827 29.9827502,10.2227804 30.0019148,10.1455003 C30.0940331,9.80265961 29.9976093,9.62061924 29.8788968,9.51801904 C29.6088299,9.2475385 29.2804682,9.01065802 28.9776392,8.82109764 C28.4865885,8.51371703 28.0625038,8.33073666 28.0625038,8.33073666 C28.006572,7.80703561 27.7590941,6.92933386 27.4128494,6.13785228 C27.2084869,5.67071134 26.9664761,5.23361047 26.7124298,4.91704983 L26.7124097,4.91712983 Z M6.53815769,1.20938242 C6.89329383,0.997481995 7.35991316,0.943381887 7.74370611,0.988461977 C7.70215274,1.68154336 6.72784132,1.86532373 6.53815769,1.20938242 L6.53815769,1.20938242 Z M3.2076199,2.69070538 C3.2213175,2.66108532 3.23685746,2.63190526 3.25415968,2.60332521 C3.25700333,2.5985852 3.27108142,2.57542515 3.2748863,2.57032514 C3.28211559,2.56062512 3.2978558,2.56658513 3.29883707,2.57854516 C3.31261476,2.8515657 3.46947624,3.27376655 4.23245622,3.36900674 C4.95418321,3.46000692 5.49678013,3.33724667 5.95987493,3.2007664 C6.01180163,3.32562665 5.99800391,3.52246704 5.75961772,3.61026722 C5.54450142,3.67588735 4.95947,3.84624769 4.05020213,3.7499475 C3.20125173,3.65994732 3.0055003,3.12746625 3.2076199,2.69068538 L3.2076199,2.69070538 Z" id="Shape"></path>
            </g>
        </g>
    </g>
</svg>