<?xml version="1.0" encoding="UTF-8" standalone="no" ?>
<!DOCTYPE svg PUBLIC "-//W3C//DTD SVG 1.1//EN" "http://www.w3.org/Graphics/SVG/1.1/DTD/svg11.dtd">
<svg xmlns="http://www.w3.org/2000/svg" xmlns:xlink="http://www.w3.org/1999/xlink" version="1.1" width="1080" height="1080" viewBox="0 0 1080 1080" xml:space="preserve">
<desc>Created with Fabric.js 5.2.4</desc>
<defs>
</defs>
<g transform="matrix(1 0 0 1 540 540)" id="ab828358-f901-4319-809c-4adfa30fb583"  >
<rect style="stroke: none; stroke-width: 1; stroke-dasharray: none; stroke-linecap: butt; stroke-dashoffset: 0; stroke-linejoin: miter; stroke-miterlimit: 4; fill: rgb(255,255,255); fill-rule: nonzero; opacity: 1; visibility: hidden;" vector-effect="non-scaling-stroke"  x="-540" y="-540" rx="0" ry="0" width="1080" height="1080" />
</g>
<g transform="matrix(1 0 0 1 540 540)" id="47e1ce96-f8fd-4177-b47c-9f4525f58acf"  >
</g>
<g transform="matrix(1 0 0 1 539.5 539.5)"  >
<rect style="stroke: none; stroke-width: 0; stroke-dasharray: none; stroke-linecap: butt; stroke-dashoffset: 0; stroke-linejoin: miter; stroke-miterlimit: 4; fill: rgb(0,0,0); fill-opacity: 0; fill-rule: nonzero; opacity: 1;" vector-effect="non-scaling-stroke"  x="-300" y="-149" rx="0" ry="0" width="600" height="298" />
</g>
<g transform="matrix(1 0 0 1 311.45 511.11)" clip-path="url(#CLIPPATH_3)"  >
<clipPath id="CLIPPATH_3" >
	<rect transform="matrix(1 0 0 1 228.54 28.89)" id="clip0_28_107" x="-287.1555" y="-41.35415" rx="0" ry="0" width="574.311" height="82.7083" />
</clipPath>
<path style="stroke: none; stroke-width: 1; stroke-dasharray: none; stroke-linecap: butt; stroke-dashoffset: 0; stroke-linejoin: miter; stroke-miterlimit: 4; fill: rgb(42,38,35); fill-rule: nonzero; opacity: 1;" vector-effect="non-scaling-stroke"  transform=" translate(-71.45, -120.11)" d="M 22.4252 129.833 C 25.2571 129.833 27.348 128.589 28.4331 126.366 L 28.4331 129.357 L 30.2593 129.357 L 30.2593 120.014 L 22.6105 120.014 L 22.6105 121.84 L 28.2743 121.84 L 28.2743 121.973 C 28.2743 125.44 26.2364 128.06 22.6634 128.06 C 18.217 128.06 16.4967 124.54 16.4967 120.12 C 16.4967 114.906 19.1963 112.233 22.9281 112.233 C 25.8923 112.233 27.9832 113.768 28.2479 116.626 L 30.2593 116.203 C 29.8359 112.471 26.8716 110.38 23.0339 110.38 C 18.1376 110.38 14.4587 113.821 14.4587 120.226 C 14.4587 125.413 16.8407 129.833 22.4252 129.833 Z M 40.1843 129.648 C 42.9898 129.648 44.8689 128.378 45.7159 125.916 L 43.8632 125.519 C 43.2545 127.107 42.1693 127.928 40.2373 127.928 C 37.67 127.928 36.082 126.313 35.9232 123.243 L 45.7423 123.243 L 45.7423 122.74 C 45.7423 118.797 43.9955 115.832 40.1049 115.832 C 36.2673 115.832 34.0176 118.744 34.0176 122.846 C 34.0176 127.239 36.479 129.648 40.1843 129.648 Z M 36.0026 121.602 C 36.2937 119.167 37.6171 117.553 40.1314 117.553 C 42.5663 117.553 43.5985 119.088 43.7838 121.602 L 36.0026 121.602 Z M 50.1887 129.357 L 52.1208 129.357 L 52.1208 117.817 L 54.9527 117.817 L 54.9527 116.097 L 52.1208 116.097 L 52.1208 114.086 C 52.1208 112.789 52.5178 112.233 53.7882 112.233 L 55.2703 112.233 L 55.2703 110.539 L 53.3647 110.539 C 51.2739 110.539 50.1887 111.598 50.1887 114.006 L 50.1887 116.097 L 47.992 116.097 L 47.992 117.817 L 50.1887 117.817 L 50.1887 129.357 Z M 63.2368 129.648 C 67.0215 129.648 69.43 127.028 69.43 122.74 C 69.43 118.453 67.0215 115.832 63.2368 115.832 C 59.452 115.832 57.0436 118.453 57.0436 122.74 C 57.0436 127.028 59.452 129.648 63.2368 129.648 Z M 63.2368 127.848 C 60.643 127.848 59.0286 126.022 59.0286 122.74 C 59.0286 119.458 60.643 117.632 63.2368 117.632 C 65.8305 117.632 67.445 119.458 67.445 122.74 C 67.445 126.022 65.8305 127.848 63.2368 127.848 Z M 64.6395 114.033 L 66.7833 114.033 L 66.7833 111.756 L 64.6395 111.756 L 64.6395 114.033 Z M 59.6902 114.033 L 61.8076 114.033 L 61.8076 111.756 L 59.6902 111.756 L 59.6902 114.033 Z M 73.003 129.357 L 74.935 129.357 L 74.935 122.714 C 74.935 119.829 76.0202 117.817 78.8256 117.817 L 79.5932 117.817 L 79.5932 115.938 L 78.7462 115.938 C 76.7612 115.938 75.4908 116.97 74.9086 118.691 L 74.9086 116.097 L 73.003 116.097 L 73.003 129.357 Z M 87.1891 129.648 C 89.7564 129.648 91.0797 128.325 91.7149 126.684 L 91.7149 129.357 L 93.594 129.357 L 93.594 110.539 L 91.662 110.539 L 91.662 118.373 C 90.9738 116.917 89.5446 115.832 87.242 115.832 C 83.2191 115.832 81.3929 119.061 81.3929 122.767 C 81.3929 126.419 83.1397 129.648 87.1891 129.648 Z M 87.4538 127.848 C 84.516 127.848 83.3779 125.546 83.3779 122.714 C 83.3779 119.882 84.5424 117.579 87.4802 117.579 C 90.418 117.579 91.662 119.802 91.662 122.634 C 91.662 125.519 90.3916 127.848 87.4538 127.848 Z M 103.36 129.648 C 106.166 129.648 108.045 128.378 108.892 125.916 L 107.039 125.519 C 106.43 127.107 105.345 127.928 103.413 127.928 C 100.846 127.928 99.2579 126.313 99.0991 123.243 L 108.918 123.243 L 108.918 122.74 C 108.918 118.797 107.171 115.832 103.281 115.832 C 99.4432 115.832 97.1935 118.744 97.1935 122.846 C 97.1935 127.239 99.6549 129.648 103.36 129.648 Z M 99.1785 121.602 C 99.4696 119.167 100.793 117.553 103.307 117.553 C 105.742 117.553 106.774 119.088 106.96 121.602 L 99.1785 121.602 Z M 112.491 129.357 L 114.423 129.357 L 114.423 122.714 C 114.423 119.829 115.508 117.817 118.314 117.817 L 119.081 117.817 L 119.081 115.938 L 118.234 115.938 C 116.249 115.938 114.979 116.97 114.397 118.691 L 114.397 116.097 L 112.491 116.097 L 112.491 129.357 Z M 126.413 129.357 L 128.451 129.357 L 128.451 127.663 L 126.783 127.663 C 125.486 127.663 125.089 127.054 125.089 125.81 L 125.089 117.817 L 128.159 117.817 L 128.159 116.097 L 125.089 116.097 L 125.089 111.809 L 123.157 112.365 L 123.157 116.097 L 120.616 116.097 L 120.616 117.817 L 123.157 117.817 L 123.157 126.048 C 123.157 128.298 124.322 129.357 126.413 129.357 Z" stroke-linecap="round" />
</g>
<g transform="matrix(1 0 0 1 335.34 539.83)" clip-path="url(#CLIPPATH_4)"  >
<clipPath id="CLIPPATH_4" >
	<rect transform="matrix(1 0 0 1 204.66 0.17)" id="clip0_28_107" x="-287.1555" y="-41.35415" rx="0" ry="0" width="574.311" height="82.7083" />
</clipPath>
<path style="stroke: none; stroke-width: 1; stroke-dasharray: none; stroke-linecap: butt; stroke-dashoffset: 0; stroke-linejoin: miter; stroke-miterlimit: 4; fill: rgb(42,38,35); fill-rule: nonzero; opacity: 1;" vector-effect="non-scaling-stroke"  transform=" translate(-95.34, -148.83)" d="M 68.027 158.389 C 70.5943 158.389 71.9176 157.066 72.5528 155.425 L 72.5528 158.098 L 74.432 158.098 L 74.432 139.28 L 72.4999 139.28 L 72.4999 147.114 C 71.8118 145.659 70.3826 144.573 68.08 144.573 C 64.057 144.573 62.2308 147.802 62.2308 151.508 C 62.2308 155.16 63.9776 158.389 68.027 158.389 Z M 68.2917 156.589 C 65.3539 156.589 64.2158 154.287 64.2158 151.455 C 64.2158 148.623 65.3804 146.32 68.3182 146.32 C 71.256 146.32 72.4999 148.543 72.4999 151.375 C 72.4999 154.26 71.2295 156.589 68.2917 156.589 Z M 83.113 158.389 C 85.3362 158.389 86.8183 157.251 87.5859 155.504 L 87.5859 158.098 L 89.465 158.098 L 89.465 144.838 L 87.5329 144.838 L 87.5329 151.772 C 87.5329 154.657 85.9979 156.722 83.5894 156.722 C 81.8956 156.722 80.7046 155.689 80.7046 153.599 L 80.7046 144.838 L 78.7725 144.838 L 78.7725 153.89 C 78.7725 156.722 80.4134 158.389 83.113 158.389 Z M 93.9379 158.098 L 95.8699 158.098 L 95.8699 151.455 C 95.8699 148.57 96.9551 146.558 99.7605 146.558 L 100.528 146.558 L 100.528 144.679 L 99.6811 144.679 C 97.6961 144.679 96.4257 145.711 95.8435 147.432 L 95.8435 144.838 L 93.9379 144.838 L 93.9379 158.098 Z M 108.309 158.389 C 111.326 158.389 113.444 156.722 113.867 153.863 L 111.962 153.466 C 111.75 155.531 110.453 156.589 108.415 156.589 C 105.504 156.589 104.313 154.366 104.313 151.481 C 104.313 148.596 105.504 146.373 108.521 146.373 C 110.506 146.373 111.829 147.352 111.935 149.284 L 113.867 148.887 C 113.523 146.082 111.459 144.573 108.574 144.573 C 104.366 144.573 102.328 147.723 102.328 151.587 C 102.328 155.292 104.18 158.389 108.309 158.389 Z M 117.493 158.098 L 119.425 158.098 L 119.425 151.111 C 119.425 148.093 121.225 146.294 123.554 146.294 C 125.301 146.294 126.518 147.326 126.518 149.417 L 126.518 158.098 L 128.45 158.098 L 128.45 149.073 C 128.45 146.241 126.915 144.573 124.083 144.573 C 121.675 144.573 120.193 145.791 119.425 147.458 L 119.425 139.28 L 117.493 139.28 L 117.493 158.098 Z" stroke-linecap="round" />
</g>
<g transform="matrix(1 0 0 1 389.13 540)" clip-path="url(#CLIPPATH_5)"  >
<clipPath id="CLIPPATH_5" >
	<rect transform="matrix(1 0 0 1 150.87 0)" id="clip0_28_107" x="-287.1555" y="-41.35415" rx="0" ry="0" width="574.311" height="82.7083" />
</clipPath>
<path style="stroke: rgb(42,38,35); stroke-width: 1.24062; stroke-dasharray: none; stroke-linecap: butt; stroke-dashoffset: 0; stroke-linejoin: miter; stroke-miterlimit: 4; fill: none; fill-rule: nonzero; opacity: 1;" vector-effect="non-scaling-stroke"  transform=" translate(-149.13, -149)" d="M 149.128 107.646 L 149.128 190.354" stroke-linecap="round" />
</g>
<g transform="matrix(1 0 0 1 440.82 540)" clip-path="url(#CLIPPATH_6)"  >
<clipPath id="CLIPPATH_6" >
	<rect transform="matrix(1 0 0 1 99.18 0)" id="clip0_28_107" x="-287.1555" y="-41.35415" rx="0" ry="0" width="574.311" height="82.7083" />
</clipPath>
<path style="stroke: none; stroke-width: 1; stroke-dasharray: none; stroke-linecap: butt; stroke-dashoffset: 0; stroke-linejoin: miter; stroke-miterlimit: 4; fill: rgb(42,38,35); fill-rule: nonzero; opacity: 1;" vector-effect="non-scaling-stroke"  transform=" translate(-200.82, -149)" d="M 224.967 175.502 C 226.678 175.051 227.93 173.279 227.79 171.262 C 227.615 168.761 225.247 166.116 219.632 167.225 C 217.588 167.629 215.915 168.224 214.31 168.879 C 212.624 169.567 211.014 170.32 209.128 170.99 C 207.185 171.68 205.555 171.979 204.287 171.871 C 203.147 171.774 202.299 171.349 201.781 170.586 C 201.077 169.529 202.101 168.463 202.534 168.166 C 203.324 167.649 204.035 166.768 203.615 165.335 C 202.858 165.467 201.529 165.911 200.471 166.746 C 199.596 167.436 198.906 168.392 198.88 169.658 C 198.93 171.389 200.127 172.741 202.118 173.218 C 203.455 173.538 204.521 173.641 205.78 173.476 C 207.588 173.239 209.796 172.45 213.776 170.96 C 217.495 169.525 219.586 168.909 221.188 168.837 C 222.193 168.792 223.006 168.96 223.908 169.275 C 224.472 169.472 224.88 169.77 225.151 170.119 C 225.474 170.534 225.603 171.02 225.573 171.491 C 225.517 172.374 224.898 173.205 223.936 173.412 C 223.714 173.46 223.474 173.475 223.219 173.45 C 222.921 173.421 222.597 173.36 222.232 173.292 C 221.153 173.09 219.697 172.818 217.433 173.068 C 216.074 173.217 214.424 173.554 212.389 174.207 C 208.142 175.568 204.973 176.113 202.526 176.207 C 199.061 176.34 197.045 175.567 195.472 174.924 C 195.317 173.419 194.954 172.175 194.51 171.164 C 193.789 169.523 192.852 168.496 192.236 167.96 C 192.236 167.96 192.592 167.739 192.77 166.498 C 191.883 166.321 190.632 166.82 190.632 166.82 C 190.632 166.82 188.307 165.328 185.165 165.86 C 183.966 166.07 183.395 166.398 183.066 166.94 C 180.569 167.857 180.366 168.015 179.729 168.382 C 179.315 168.643 179.351 168.991 179.351 169.078 C 179.351 169.279 179.456 169.404 179.501 169.459 C 179.567 169.535 179.628 169.605 179.628 169.745 C 179.635 170.472 179.572 170.421 179.795 170.996 C 179.893 171.228 180.112 171.21 180.375 171.121 C 182.023 170.506 183.288 170.985 183.368 172.1 C 183.433 173.061 182.537 173.751 181.34 173.847 C 181.073 173.864 180.888 173.874 180.784 173.88 C 180.587 173.893 180.456 173.911 180.478 174.141 C 180.503 174.322 180.765 174.977 180.836 175.163 C 181.017 175.67 181.132 175.74 181.556 175.756 C 182.357 175.784 183.395 175.585 183.727 175.482 C 183.727 175.482 183.692 176.498 184.009 177.88 C 181.235 176.88 179.116 176.57 176.766 176.655 C 174.418 176.74 172.859 177.221 171.824 177.801 C 169.992 178.829 169.805 180.167 169.805 180.167 C 169.818 180.169 172.505 180.801 173.606 180.491 C 174.352 180.278 174.864 179.556 174.864 179.556 C 174.864 179.556 176.638 179.92 178.971 181.158 C 180.112 181.763 181.386 182.578 182.653 183.66 C 182.699 183.7 185.631 182.365 185.775 182.312 C 186.137 182.179 186.408 182.421 186.47 182.538 C 186.572 182.731 186.607 183.093 186.324 183.281 C 186.046 183.531 184.082 184.398 182.189 185.516 C 180.959 186.245 179.622 187.035 178.473 187.737 C 177.571 187.621 177.18 187.586 176.333 187.595 C 174.523 187.615 173.332 189.197 173.332 190.354 L 180.372 190.354 C 180.666 190.247 183.609 189.647 186.582 189.052 C 188.744 188.619 190.92 188.19 192.104 187.956 C 192.635 187.851 192.964 187.786 193.008 187.777 C 193.166 187.741 193.38 187.716 193.573 187.526 C 193.669 187.431 193.761 187.295 193.838 187.096 C 193.892 186.96 194.142 186.236 194.142 186.236 L 195.682 186.087 C 197.738 185.913 199.562 185.499 201.198 184.976 C 203.301 184.303 205.096 183.449 206.681 182.689 C 208.611 181.764 210.204 181 211.585 180.939 C 211.363 182.304 211.684 183.366 211.901 184.412 C 212.108 185.408 212.222 186.39 211.684 187.606 C 207.607 187.606 208.055 190.354 208.055 190.354 L 215.126 190.354 C 215.126 190.354 215.624 188.728 216.769 186.936 C 217.296 186.111 217.942 185.25 218.773 184.496 C 218.946 184.341 218.93 184.176 218.832 184.045 C 217.934 182.931 217.481 180.689 217.481 180.689 C 217.404 180.402 217.75 180.212 217.869 180.192 C 217.993 180.17 218.329 180.168 218.398 180.491 C 218.398 180.491 218.555 182.046 220.028 183.401 C 220.96 184.255 222.091 184.928 223.219 185.46 C 224.576 186.099 225.928 186.532 226.926 186.827 C 228.066 187.164 228.193 187.545 228.193 187.658 C 228.167 187.658 227.76 187.678 227.694 187.685 C 227.116 187.748 226.453 187.822 225.681 188.555 C 224.891 189.306 225.057 190.354 225.057 190.354 L 229.922 190.354 C 230.557 190.354 230.782 189.98 231.003 189.264 C 231.145 188.805 231.721 186.473 231.76 186.313 C 231.95 185.604 231.751 185.227 231.506 185.015 C 230.948 184.456 230.27 183.966 229.645 183.574 C 228.631 182.939 227.755 182.56 227.755 182.56 C 227.64 181.478 227.129 179.663 226.414 178.026 C 225.992 177.06 225.492 176.157 224.967 175.502 Z M 183.306 167.836 C 184.04 167.397 185.003 167.286 185.796 167.379 C 185.71 168.812 183.698 169.192 183.306 167.836 Z M 176.429 170.898 C 176.457 170.837 176.489 170.777 176.525 170.718 C 176.531 170.708 176.56 170.66 176.567 170.65 C 176.582 170.63 176.615 170.642 176.617 170.667 C 176.645 171.231 176.969 172.104 178.545 172.301 C 180.035 172.489 181.156 172.235 182.112 171.953 C 182.219 172.211 182.191 172.618 181.699 172.8 C 181.254 172.936 180.046 173.288 178.169 173.089 C 176.415 172.903 176.011 171.802 176.429 170.898 Z M 224.967 146.658 C 226.678 146.207 227.93 144.435 227.79 142.417 C 227.615 139.916 225.247 137.271 219.632 138.38 C 217.588 138.785 215.915 139.38 214.31 140.035 C 212.624 140.722 211.014 141.476 209.128 142.146 C 207.185 142.836 205.555 143.134 204.287 143.027 C 203.147 142.93 202.299 142.505 201.781 141.741 C 201.077 140.684 202.101 139.619 202.534 139.321 C 203.324 138.805 204.035 137.924 203.615 136.49 C 202.858 136.622 201.529 137.067 200.471 137.901 C 199.596 138.591 198.906 139.548 198.88 140.813 C 198.93 142.544 200.127 143.896 202.118 144.373 C 203.455 144.693 204.521 144.796 205.78 144.631 C 207.588 144.394 209.796 143.606 213.776 142.115 C 217.495 140.681 219.586 140.065 221.188 139.993 C 222.193 139.947 223.006 140.116 223.908 140.43 C 224.472 140.627 224.88 140.926 225.151 141.275 C 225.474 141.689 225.603 142.175 225.573 142.646 C 225.517 143.53 224.898 144.36 223.936 144.568 C 223.714 144.616 223.474 144.63 223.219 144.605 C 222.921 144.577 222.597 144.515 222.232 144.448 C 221.153 144.245 219.697 143.974 217.433 144.223 C 216.074 144.373 214.424 144.71 212.389 145.362 C 208.142 146.723 204.973 147.268 202.526 147.362 C 199.061 147.495 197.045 146.722 195.472 146.08 C 195.317 144.574 194.954 143.33 194.51 142.319 C 193.789 140.679 192.852 139.652 192.236 139.116 C 192.236 139.116 192.592 138.895 192.77 137.654 C 191.883 137.477 190.632 137.976 190.632 137.976 C 190.632 137.976 188.307 136.483 185.165 137.015 C 183.966 137.225 183.395 137.553 183.066 138.096 C 180.569 139.013 180.366 139.17 179.729 139.538 C 179.315 139.798 179.351 140.146 179.351 140.234 C 179.351 140.435 179.456 140.56 179.501 140.614 C 179.567 140.691 179.628 140.761 179.628 140.901 C 179.635 141.627 179.572 141.576 179.795 142.151 C 179.893 142.383 180.112 142.366 180.375 142.276 C 182.023 141.661 183.288 142.141 183.368 143.255 C 183.433 144.217 182.537 144.907 181.34 145.003 C 181.073 145.019 180.888 145.03 180.784 145.036 C 180.587 145.049 180.456 145.066 180.478 145.296 C 180.503 145.478 180.765 146.133 180.836 146.318 C 181.017 146.825 181.132 146.896 181.556 146.911 C 182.357 146.94 183.395 146.741 183.727 146.638 C 183.727 146.638 183.692 147.653 184.009 149.036 C 181.235 148.036 179.116 147.725 176.766 147.811 C 174.418 147.895 172.859 148.376 171.824 148.957 C 169.992 149.984 169.805 151.322 169.805 151.322 C 169.818 151.324 172.505 151.957 173.606 151.646 C 174.352 151.434 174.864 150.712 174.864 150.712 C 174.864 150.712 176.638 151.076 178.971 152.314 C 180.112 152.919 181.386 153.733 182.653 154.816 C 182.699 154.856 185.631 153.521 185.775 153.468 C 186.137 153.335 186.408 153.576 186.47 153.694 C 186.572 153.887 186.607 154.248 186.324 154.437 C 186.046 154.686 184.082 155.554 182.189 156.672 C 180.959 157.4 179.622 158.19 178.473 158.893 C 177.571 158.777 177.18 158.742 176.333 158.75 C 174.523 158.77 173.332 160.352 173.332 161.509 L 180.372 161.509 C 180.666 161.403 183.609 160.802 186.582 160.207 C 188.744 159.775 190.92 159.346 192.104 159.112 C 192.635 159.007 192.964 158.941 193.008 158.932 C 193.166 158.896 193.38 158.871 193.573 158.682 C 193.669 158.587 193.761 158.451 193.838 158.252 C 193.892 158.116 194.142 157.392 194.142 157.392 L 195.682 157.243 C 197.738 157.069 199.562 156.655 201.198 156.131 C 203.301 155.458 205.096 154.604 206.681 153.845 C 208.611 152.919 210.204 152.156 211.585 152.095 C 211.363 153.46 211.684 154.521 211.901 155.568 C 212.108 156.564 212.222 157.546 211.684 158.761 C 207.607 158.761 208.055 161.509 208.055 161.509 L 215.126 161.509 C 215.126 161.509 215.624 159.883 216.769 158.091 C 217.296 157.266 217.942 156.406 218.773 155.651 C 218.946 155.496 218.93 155.332 218.832 155.201 C 217.934 154.087 217.481 151.844 217.481 151.844 C 217.404 151.558 217.75 151.367 217.869 151.348 C 217.993 151.326 218.329 151.323 218.398 151.646 C 218.398 151.646 218.555 153.202 220.028 154.556 C 220.96 155.41 222.091 156.084 223.219 156.615 C 224.576 157.254 225.928 157.687 226.926 157.983 C 228.066 158.319 228.193 158.7 228.193 158.814 C 228.167 158.814 227.76 158.834 227.694 158.84 C 227.116 158.904 226.453 158.978 225.681 159.711 C 224.891 160.461 225.057 161.509 225.057 161.509 L 229.922 161.509 C 230.557 161.509 230.782 161.135 231.003 160.42 C 231.145 159.96 231.721 157.628 231.76 157.468 C 231.95 156.759 231.751 156.383 231.506 156.171 C 230.948 155.612 230.27 155.122 229.645 154.73 C 228.631 154.094 227.755 153.716 227.755 153.716 C 227.64 152.633 227.129 150.818 226.414 149.182 C 225.992 148.216 225.492 147.312 224.967 146.658 Z M 183.306 138.991 C 184.04 138.553 185.003 138.441 185.796 138.534 C 185.71 139.967 183.698 140.347 183.306 138.991 Z M 176.429 142.054 C 176.457 141.993 176.489 141.932 176.525 141.873 C 176.531 141.863 176.56 141.816 176.567 141.805 C 176.582 141.785 176.615 141.797 176.617 141.822 C 176.645 142.387 176.969 143.26 178.545 143.456 C 180.035 143.645 181.156 143.391 182.112 143.109 C 182.219 143.367 182.191 143.774 181.699 143.955 C 181.254 144.091 180.046 144.443 178.169 144.244 C 176.415 144.058 176.011 142.957 176.429 142.054 Z M 224.967 117.813 C 226.678 117.362 227.93 115.59 227.79 113.573 C 227.615 111.072 225.247 108.427 219.632 109.536 C 217.588 109.94 215.915 110.535 214.31 111.19 C 212.624 111.878 211.014 112.631 209.128 113.301 C 207.185 113.991 205.555 114.29 204.287 114.182 C 203.147 114.085 202.299 113.66 201.781 112.897 C 201.077 111.84 202.101 110.774 202.534 110.477 C 203.324 109.96 204.035 109.079 203.615 107.646 C 202.858 107.778 201.529 108.222 200.471 109.057 C 199.596 109.747 198.906 110.703 198.88 111.969 C 198.93 113.7 200.127 115.052 202.118 115.529 C 203.455 115.849 204.521 115.951 205.78 115.787 C 207.588 115.55 209.796 114.761 213.776 113.271 C 217.495 111.836 219.586 111.22 221.188 111.148 C 222.193 111.103 223.006 111.271 223.908 111.586 C 224.472 111.783 224.88 112.081 225.151 112.43 C 225.474 112.845 225.603 113.331 225.573 113.802 C 225.517 114.685 224.898 115.516 223.936 115.723 C 223.714 115.771 223.474 115.786 223.219 115.761 C 222.921 115.732 222.597 115.671 222.232 115.603 C 221.153 115.401 219.697 115.129 217.433 115.379 C 216.074 115.528 214.424 115.865 212.389 116.518 C 208.142 117.879 204.973 118.424 202.526 118.518 C 199.061 118.651 197.045 117.878 195.472 117.235 C 195.317 115.73 194.954 114.486 194.51 113.475 C 193.789 111.834 192.852 110.807 192.236 110.271 C 192.236 110.271 192.592 110.05 192.77 108.809 C 191.883 108.632 190.632 109.131 190.632 109.131 C 190.632 109.131 188.307 107.639 185.165 108.17 C 183.966 108.381 183.395 108.709 183.066 109.251 C 180.569 110.168 180.366 110.326 179.729 110.693 C 179.315 110.954 179.351 111.301 179.351 111.389 C 179.351 111.59 179.456 111.715 179.501 111.77 C 179.567 111.846 179.628 111.916 179.628 112.056 C 179.635 112.783 179.572 112.731 179.795 113.307 C 179.893 113.539 180.112 113.521 180.375 113.432 C 182.023 112.817 183.288 113.296 183.368 114.411 C 183.433 115.372 182.537 116.062 181.34 116.158 C 181.073 116.175 180.888 116.185 180.784 116.191 C 180.587 116.204 180.456 116.222 180.478 116.452 C 180.503 116.633 180.765 117.288 180.836 117.474 C 181.017 117.98 181.132 118.051 181.556 118.067 C 182.357 118.095 183.395 117.896 183.727 117.793 C 183.727 117.793 183.692 118.808 184.009 120.191 C 181.235 119.191 179.116 118.881 176.766 118.966 C 174.418 119.051 172.859 119.532 171.824 120.112 C 169.992 121.14 169.805 122.478 169.805 122.478 C 169.818 122.48 172.505 123.112 173.606 122.802 C 174.352 122.589 174.864 121.867 174.864 121.867 C 174.864 121.867 176.638 122.231 178.971 123.469 C 180.112 124.074 181.386 124.889 182.653 125.971 C 182.699 126.011 185.631 124.676 185.775 124.623 C 186.137 124.49 186.408 124.732 186.47 124.849 C 186.572 125.042 186.607 125.404 186.324 125.592 C 186.046 125.842 184.082 126.709 182.189 127.827 C 180.959 128.556 179.622 129.346 178.473 130.048 C 177.571 129.932 177.18 129.897 176.333 129.906 C 174.523 129.926 173.332 131.508 173.332 132.665 L 180.372 132.665 C 180.666 132.558 183.609 131.958 186.582 131.363 C 188.744 130.93 190.92 130.501 192.104 130.267 C 192.635 130.162 192.964 130.097 193.008 130.088 C 193.166 130.052 193.38 130.027 193.573 129.837 C 193.669 129.742 193.761 129.606 193.838 129.407 C 193.892 129.271 194.142 128.547 194.142 128.547 L 195.682 128.398 C 197.738 128.224 199.562 127.81 201.198 127.287 C 203.301 126.614 205.096 125.76 206.681 125 C 208.611 124.075 210.204 123.311 211.585 123.25 C 211.363 124.615 211.684 125.677 211.901 126.723 C 212.108 127.719 212.222 128.701 211.684 129.917 C 207.607 129.917 208.055 132.665 208.055 132.665 L 215.126 132.665 C 215.126 132.665 215.624 131.039 216.769 129.247 C 217.296 128.422 217.942 127.561 218.773 126.807 C 218.946 126.652 218.93 126.487 218.832 126.356 C 217.934 125.242 217.481 123 217.481 123 C 217.404 122.713 217.75 122.523 217.869 122.503 C 217.993 122.481 218.329 122.479 218.398 122.802 C 218.398 122.802 218.555 124.357 220.028 125.712 C 220.96 126.566 222.091 127.239 223.219 127.771 C 224.576 128.41 225.928 128.843 226.926 129.138 C 228.066 129.475 228.193 129.856 228.193 129.969 C 228.167 129.969 227.76 129.989 227.694 129.996 C 227.116 130.059 226.453 130.133 225.681 130.866 C 224.891 131.617 225.057 132.665 225.057 132.665 L 229.922 132.665 C 230.557 132.665 230.782 132.291 231.003 131.575 C 231.145 131.116 231.721 128.784 231.76 128.624 C 231.95 127.915 231.751 127.538 231.506 127.326 C 230.948 126.767 230.27 126.277 229.645 125.885 C 228.631 125.25 227.755 124.871 227.755 124.871 C 227.64 123.789 227.129 121.974 226.414 120.337 C 225.992 119.371 225.492 118.468 224.967 117.813 Z M 183.306 110.147 C 184.04 109.708 185.003 109.597 185.796 109.69 C 185.71 111.123 183.698 111.503 183.306 110.147 Z M 176.429 113.209 C 176.457 113.148 176.489 113.088 176.525 113.029 C 176.531 113.019 176.56 112.971 176.567 112.961 C 176.582 112.94 176.615 112.953 176.617 112.978 C 176.645 113.542 176.969 114.415 178.545 114.612 C 180.035 114.8 181.156 114.546 182.112 114.264 C 182.219 114.522 182.191 114.929 181.699 115.111 C 181.254 115.247 180.046 115.599 178.169 115.4 C 176.415 115.214 176.011 114.113 176.429 113.209 Z" stroke-linecap="round" />
</g>
<g transform="matrix(1 0 0 1 622.56 513.63)" clip-path="url(#CLIPPATH_7)"  >
<clipPath id="CLIPPATH_7" >
	<rect transform="matrix(1 0 0 1 -82.56 26.37)" id="clip0_28_107" x="-287.1555" y="-41.35415" rx="0" ry="0" width="574.311" height="82.7083" />
</clipPath>
<path style="stroke: none; stroke-width: 1; stroke-dasharray: none; stroke-linecap: butt; stroke-dashoffset: 0; stroke-linejoin: miter; stroke-miterlimit: 4; fill: rgb(42,38,35); fill-rule: nonzero; opacity: 1;" vector-effect="non-scaling-stroke"  transform=" translate(-382.56, -122.63)" d="M 256.958 129.357 L 265.003 129.357 C 268.921 129.357 271.011 126.816 271.011 124.063 C 271.011 122.078 269.873 120.226 267.624 119.591 C 269.503 118.982 270.429 117.182 270.429 115.382 C 270.429 113.08 268.841 110.83 265.48 110.83 L 256.958 110.83 L 256.958 129.357 Z M 264.633 126.075 L 260.451 126.075 L 260.451 121.099 L 264.792 121.099 C 266.565 121.099 267.465 122.211 267.465 123.508 C 267.465 124.857 266.592 126.075 264.633 126.075 Z M 264.421 118.32 L 260.451 118.32 L 260.451 114.086 L 264.58 114.086 C 266.115 114.086 266.856 114.959 266.856 116.097 C 266.856 117.314 266.036 118.32 264.421 118.32 Z M 277.602 129.648 C 279.825 129.648 281.386 128.642 282.207 127.028 L 282.207 129.357 L 285.383 129.357 L 285.383 120.014 C 285.383 116.944 283.583 115.462 279.878 115.462 C 276.516 115.462 274.214 116.679 273.552 119.379 L 276.755 120.067 C 276.993 118.823 277.813 118.082 279.692 118.082 C 281.201 118.082 281.969 118.611 281.969 119.723 C 281.969 120.782 281.28 121.02 280.248 121.179 L 277.496 121.549 C 275.511 121.84 273.155 122.608 273.155 125.599 C 273.155 128.219 275.008 129.648 277.602 129.648 Z M 278.581 126.842 C 277.311 126.842 276.569 126.313 276.569 125.254 C 276.569 124.037 277.655 123.719 278.634 123.587 L 280.169 123.349 C 280.936 123.243 281.466 123.111 281.969 122.925 L 281.969 123.666 C 281.969 125.599 280.592 126.842 278.581 126.842 Z M 294.09 129.648 C 296.419 129.648 297.849 128.51 298.404 127.107 L 298.404 129.357 L 301.58 129.357 L 301.58 110.539 L 298.193 110.539 L 298.193 117.553 C 297.452 116.229 295.996 115.462 294.09 115.462 C 290.332 115.462 288.109 118.347 288.109 122.581 C 288.109 126.816 290.359 129.648 294.09 129.648 Z M 294.858 126.551 C 292.714 126.551 291.576 124.937 291.576 122.528 C 291.576 120.093 292.714 118.558 294.858 118.558 C 297.028 118.558 298.193 120.093 298.193 122.449 C 298.193 124.937 297.002 126.551 294.858 126.551 Z M 311.108 129.648 C 314.231 129.648 316.402 128.325 317.249 125.837 L 314.046 125.149 C 313.623 126.313 312.696 126.895 311.161 126.895 C 309.097 126.895 307.985 125.757 307.774 123.481 L 317.275 123.481 L 317.275 122.608 C 317.275 118.664 315.475 115.462 311.029 115.462 C 306.688 115.462 304.439 118.585 304.439 122.714 C 304.439 127.16 307.112 129.648 311.108 129.648 Z M 307.853 121.179 C 308.171 119.247 309.15 118.214 311.029 118.214 C 312.908 118.214 313.834 119.247 313.94 121.179 L 307.853 121.179 Z M 320.134 129.357 L 323.521 129.357 L 323.521 121.946 C 323.521 119.696 324.765 118.479 326.538 118.479 C 327.968 118.479 328.92 119.326 328.92 120.993 L 328.92 129.357 L 332.335 129.357 L 332.335 120.385 C 332.335 117.288 330.826 115.462 327.782 115.462 C 325.718 115.462 324.183 116.282 323.415 117.844 L 323.415 115.7 L 320.134 115.7 L 320.134 129.357 Z M 335.061 121.761 L 342.392 121.761 L 342.392 118.717 L 335.061 118.717 L 335.061 121.761 Z M 348.162 129.357 L 352.185 129.357 L 355.837 115.7 L 359.489 129.357 L 363.512 129.357 L 368.223 110.83 L 364.598 110.83 L 361.342 124.699 L 357.849 110.83 L 353.826 110.83 L 350.332 124.699 L 347.077 110.83 L 343.451 110.83 L 348.162 129.357 Z M 374.602 129.648 C 376.56 129.648 378.069 128.801 378.784 127.028 L 378.784 129.357 L 381.986 129.357 L 381.986 115.7 L 378.572 115.7 L 378.572 123.19 C 378.572 125.334 377.46 126.71 375.766 126.71 C 374.337 126.71 373.437 125.863 373.437 124.169 L 373.437 115.7 L 370.05 115.7 L 370.05 124.725 C 370.05 127.822 371.664 129.648 374.602 129.648 Z M 377.116 113.9 L 380.054 113.9 L 380.054 110.857 L 377.116 110.857 L 377.116 113.9 Z M 372.035 113.9 L 374.972 113.9 L 374.972 110.857 L 372.035 110.857 L 372.035 113.9 Z M 385.744 129.357 L 389.132 129.357 L 389.132 122.634 C 389.132 120.252 390.032 118.876 392.361 118.876 L 393.578 118.876 L 393.578 115.541 L 392.387 115.541 C 390.641 115.541 389.476 116.573 389.026 118.135 L 389.026 115.7 L 385.744 115.7 L 385.744 129.357 Z M 401.095 129.357 L 403.662 129.357 L 403.662 126.366 L 402.021 126.366 C 400.963 126.366 400.619 125.943 400.619 124.91 L 400.619 118.691 L 403.371 118.691 L 403.371 115.7 L 400.619 115.7 L 400.619 111.624 L 397.204 112.577 L 397.204 115.7 L 394.849 115.7 L 394.849 118.691 L 397.204 118.691 L 397.204 125.466 C 397.204 128.086 398.501 129.357 401.095 129.357 Z M 411.285 129.357 L 413.852 129.357 L 413.852 126.366 L 412.211 126.366 C 411.152 126.366 410.808 125.943 410.808 124.91 L 410.808 118.691 L 413.561 118.691 L 413.561 115.7 L 410.808 115.7 L 410.808 111.624 L 407.394 112.577 L 407.394 115.7 L 405.039 115.7 L 405.039 118.691 L 407.394 118.691 L 407.394 125.466 C 407.394 128.086 408.691 129.357 411.285 129.357 Z M 422.348 129.648 C 425.471 129.648 427.641 128.325 428.488 125.837 L 425.286 125.149 C 424.862 126.313 423.936 126.895 422.401 126.895 C 420.336 126.895 419.225 125.757 419.013 123.481 L 428.514 123.481 L 428.514 122.608 C 428.514 118.664 426.715 115.462 422.268 115.462 C 417.928 115.462 415.678 118.585 415.678 122.714 C 415.678 127.16 418.351 129.648 422.348 129.648 Z M 419.092 121.179 C 419.41 119.247 420.389 118.214 422.268 118.214 C 424.147 118.214 425.074 119.247 425.18 121.179 L 419.092 121.179 Z M 431.346 129.357 L 434.761 129.357 L 434.761 121.39 C 434.761 119.458 435.899 118.479 437.301 118.479 C 438.572 118.479 439.366 119.194 439.366 120.676 L 439.366 129.357 L 442.78 129.357 L 442.78 121.39 C 442.78 119.458 443.892 118.479 445.321 118.479 C 446.591 118.479 447.385 119.194 447.385 120.676 L 447.385 129.357 L 450.773 129.357 L 450.773 119.882 C 450.773 116.97 448.841 115.462 446.432 115.462 C 444.474 115.462 442.859 116.229 442.065 117.976 C 441.589 116.229 440.08 115.462 438.413 115.462 C 436.746 115.462 435.343 116.229 434.655 117.711 L 434.655 115.7 L 431.346 115.7 L 431.346 129.357 Z M 461.889 129.648 C 465.621 129.648 467.87 126.763 467.87 122.502 C 467.87 118.347 465.727 115.462 461.995 115.462 C 459.983 115.462 458.501 116.388 457.787 117.791 L 457.787 110.539 L 454.399 110.539 L 454.399 129.357 L 457.575 129.357 L 457.575 127.213 C 458.131 128.563 459.639 129.648 461.889 129.648 Z M 461.121 126.551 C 459.004 126.551 457.787 125.016 457.787 122.555 C 457.787 120.12 459.004 118.585 461.174 118.585 C 463.318 118.585 464.403 120.093 464.403 122.528 C 464.403 124.963 463.292 126.551 461.121 126.551 Z M 476.499 129.648 C 479.622 129.648 481.792 128.325 482.639 125.837 L 479.436 125.149 C 479.013 126.313 478.086 126.895 476.551 126.895 C 474.487 126.895 473.375 125.757 473.164 123.481 L 482.665 123.481 L 482.665 122.608 C 482.665 118.664 480.866 115.462 476.419 115.462 C 472.079 115.462 469.829 118.585 469.829 122.714 C 469.829 127.16 472.502 129.648 476.499 129.648 Z M 473.243 121.179 C 473.561 119.247 474.54 118.214 476.419 118.214 C 478.298 118.214 479.225 119.247 479.33 121.179 L 473.243 121.179 Z M 485.524 129.357 L 488.911 129.357 L 488.911 122.634 C 488.911 120.252 489.811 118.876 492.14 118.876 L 493.358 118.876 L 493.358 115.541 L 492.167 115.541 C 490.42 115.541 489.255 116.573 488.805 118.135 L 488.805 115.7 L 485.524 115.7 L 485.524 129.357 Z M 501.404 134.73 C 505.109 134.73 508.153 132.797 508.153 128.483 L 508.153 115.7 L 504.791 115.7 L 504.791 117.606 C 504.156 116.362 502.78 115.462 500.742 115.462 C 497.46 115.462 494.708 117.764 494.708 122.29 C 494.708 126.737 497.381 128.907 500.583 128.907 C 502.542 128.907 504.103 128.06 504.844 126.604 L 504.844 128.907 C 504.844 130.971 503.574 132.056 501.43 132.056 C 499.339 132.056 498.36 131.104 498.175 129.807 L 494.866 130.521 C 495.554 133.247 498.069 134.73 501.404 134.73 Z M 501.43 126.048 C 499.604 126.048 498.175 124.857 498.175 122.343 C 498.175 119.749 499.63 118.585 501.483 118.585 C 503.336 118.585 504.738 119.802 504.738 122.317 C 504.738 124.937 503.203 126.048 501.43 126.048 Z" stroke-linecap="round" />
</g>
<g transform="matrix(1 0 0 1 662.06 541.93)" clip-path="url(#CLIPPATH_8)"  >
<clipPath id="CLIPPATH_8" >
	<rect transform="matrix(1 0 0 1 -122.06 -1.93)" id="clip0_28_107" x="-287.1555" y="-41.35415" rx="0" ry="0" width="574.311" height="82.7083" />
</clipPath>
<path style="stroke: none; stroke-width: 1; stroke-dasharray: none; stroke-linecap: butt; stroke-dashoffset: 0; stroke-linejoin: miter; stroke-miterlimit: 4; fill: rgb(42,38,35); fill-rule: nonzero; opacity: 1;" vector-effect="non-scaling-stroke"  transform=" translate(-422.06, -150.93)" d="M 256.958 158.098 L 260.266 158.098 L 260.266 144.15 L 264.898 158.098 L 268.55 158.098 L 273.155 144.15 L 273.155 158.098 L 276.464 158.098 L 276.464 139.571 L 271.514 139.571 L 266.724 153.916 L 261.907 139.571 L 256.958 139.571 L 256.958 158.098 Z M 280.407 158.098 L 283.821 158.098 L 283.821 144.441 L 280.407 144.441 L 280.407 158.098 Z M 280.354 142.589 L 283.874 142.589 L 283.874 139.121 L 280.354 139.121 L 280.354 142.589 Z M 287.474 158.098 L 290.861 158.098 L 290.861 150.687 C 290.861 148.438 292.105 147.22 293.879 147.22 C 295.308 147.22 296.261 148.067 296.261 149.735 L 296.261 158.098 L 299.675 158.098 L 299.675 149.126 C 299.675 146.029 298.166 144.203 295.123 144.203 C 293.058 144.203 291.523 145.023 290.756 146.585 L 290.756 144.441 L 287.474 144.441 L 287.474 158.098 Z M 303.195 158.098 L 306.609 158.098 L 306.609 144.441 L 303.195 144.441 L 303.195 158.098 Z M 303.142 142.589 L 306.662 142.589 L 306.662 139.121 L 303.142 139.121 L 303.142 142.589 Z M 315.608 158.389 C 318.81 158.389 321.192 156.986 321.192 154.049 C 321.192 151.323 319.128 150.555 317.063 150.184 L 314.92 149.787 C 313.649 149.549 312.802 149.205 312.802 148.199 C 312.802 147.326 313.517 146.797 314.92 146.797 C 316.508 146.797 317.487 147.432 317.619 148.729 L 320.875 148.041 C 320.398 145.473 318.228 144.203 315.052 144.203 C 311.638 144.203 309.573 145.659 309.573 148.438 C 309.573 151.375 311.849 152.169 313.94 152.54 L 315.74 152.858 C 317.01 153.096 317.91 153.387 317.91 154.393 C 317.91 155.319 317.116 155.769 315.687 155.769 C 314.02 155.769 312.908 155.16 312.67 153.837 L 309.362 154.525 C 309.97 157.278 312.696 158.389 315.608 158.389 Z M 328.603 158.098 L 331.17 158.098 L 331.17 155.107 L 329.529 155.107 C 328.471 155.107 328.126 154.684 328.126 153.652 L 328.126 147.432 L 330.879 147.432 L 330.879 144.441 L 328.126 144.441 L 328.126 140.365 L 324.712 141.318 L 324.712 144.441 L 322.357 144.441 L 322.357 147.432 L 324.712 147.432 L 324.712 154.207 C 324.712 156.828 326.009 158.098 328.603 158.098 Z M 339.666 158.389 C 342.789 158.389 344.959 157.066 345.806 154.578 L 342.604 153.89 C 342.18 155.054 341.254 155.637 339.719 155.637 C 337.654 155.637 336.543 154.499 336.331 152.222 L 345.833 152.222 L 345.833 151.349 C 345.833 147.405 344.033 144.203 339.587 144.203 C 335.246 144.203 332.996 147.326 332.996 151.455 C 332.996 155.901 335.669 158.389 339.666 158.389 Z M 336.411 149.92 C 336.728 147.988 337.707 146.956 339.587 146.956 C 341.466 146.956 342.392 147.988 342.498 149.92 L 336.411 149.92 Z M 348.691 158.098 L 352.079 158.098 L 352.079 151.375 C 352.079 148.993 352.979 147.617 355.308 147.617 L 356.525 147.617 L 356.525 144.282 L 355.334 144.282 C 353.587 144.282 352.423 145.315 351.973 146.876 L 351.973 144.441 L 348.691 144.441 L 348.691 158.098 Z M 358.854 158.098 L 362.268 158.098 L 362.268 144.441 L 358.854 144.441 L 358.854 158.098 Z M 358.801 142.589 L 362.321 142.589 L 362.321 139.121 L 358.801 139.121 L 358.801 142.589 Z M 370.341 158.389 C 372.299 158.389 373.808 157.542 374.522 155.769 L 374.522 158.098 L 377.725 158.098 L 377.725 144.441 L 374.311 144.441 L 374.311 151.931 C 374.311 154.075 373.199 155.451 371.505 155.451 C 370.076 155.451 369.176 154.604 369.176 152.911 L 369.176 144.441 L 365.789 144.441 L 365.789 153.466 C 365.789 156.563 367.403 158.389 370.341 158.389 Z M 381.457 158.098 L 384.871 158.098 L 384.871 150.132 C 384.871 148.199 386.009 147.22 387.412 147.22 C 388.682 147.22 389.476 147.935 389.476 149.417 L 389.476 158.098 L 392.89 158.098 L 392.89 150.132 C 392.89 148.199 394.002 147.22 395.431 147.22 C 396.702 147.22 397.496 147.935 397.496 149.417 L 397.496 158.098 L 400.883 158.098 L 400.883 148.623 C 400.883 145.712 398.951 144.203 396.543 144.203 C 394.584 144.203 392.97 144.971 392.176 146.717 C 391.699 144.971 390.191 144.203 388.523 144.203 C 386.856 144.203 385.453 144.971 384.765 146.453 L 384.765 144.441 L 381.457 144.441 L 381.457 158.098 Z M 411.576 158.098 L 414.99 158.098 L 414.99 147.432 L 417.531 147.432 L 417.531 144.441 L 414.99 144.441 L 414.99 143.435 C 414.99 142.509 415.281 142.139 416.207 142.139 L 417.848 142.139 L 417.848 139.28 L 415.281 139.28 C 412.899 139.28 411.576 140.498 411.576 143.277 L 411.576 144.441 L 409.511 144.441 L 409.511 147.432 L 411.576 147.432 L 411.576 158.098 Z M 424.465 158.389 C 426.424 158.389 427.932 157.542 428.647 155.769 L 428.647 158.098 L 431.849 158.098 L 431.849 144.441 L 428.435 144.441 L 428.435 151.931 C 428.435 154.075 427.323 155.451 425.63 155.451 C 424.2 155.451 423.301 154.604 423.301 152.911 L 423.301 144.441 L 419.913 144.441 L 419.913 153.466 C 419.913 156.563 421.527 158.389 424.465 158.389 Z M 426.979 142.641 L 429.917 142.641 L 429.917 139.598 L 426.979 139.598 L 426.979 142.641 Z M 421.898 142.641 L 424.836 142.641 L 424.836 139.598 L 421.898 139.598 L 421.898 142.641 Z M 435.608 158.098 L 438.995 158.098 L 438.995 151.375 C 438.995 148.993 439.895 147.617 442.224 147.617 L 443.442 147.617 L 443.442 144.282 L 442.251 144.282 C 440.504 144.282 439.339 145.315 438.889 146.876 L 438.889 144.441 L 435.608 144.441 L 435.608 158.098 Z M 454.822 158.098 L 458.845 158.098 L 462.498 144.441 L 466.15 158.098 L 470.173 158.098 L 474.884 139.571 L 471.258 139.571 L 468.003 153.44 L 464.509 139.571 L 460.486 139.571 L 456.993 153.44 L 453.737 139.571 L 450.111 139.571 L 454.822 158.098 Z M 477.266 158.098 L 480.68 158.098 L 480.68 144.441 L 477.266 144.441 L 477.266 158.098 Z M 477.213 142.589 L 480.733 142.589 L 480.733 139.121 L 477.213 139.121 L 477.213 142.589 Z M 484.333 158.098 L 487.72 158.098 L 487.72 151.375 C 487.72 148.993 488.62 147.617 490.949 147.617 L 492.167 147.617 L 492.167 144.282 L 490.976 144.282 C 489.229 144.282 488.064 145.315 487.614 146.876 L 487.614 144.441 L 484.333 144.441 L 484.333 158.098 Z M 499.683 158.098 L 502.251 158.098 L 502.251 155.107 L 500.61 155.107 C 499.551 155.107 499.207 154.684 499.207 153.652 L 499.207 147.432 L 501.959 147.432 L 501.959 144.441 L 499.207 144.441 L 499.207 140.365 L 495.793 141.318 L 495.793 144.441 L 493.437 144.441 L 493.437 147.432 L 495.793 147.432 L 495.793 154.207 C 495.793 156.828 497.09 158.098 499.683 158.098 Z M 510.323 158.389 C 513.525 158.389 515.907 156.986 515.907 154.049 C 515.907 151.323 513.843 150.555 511.778 150.184 L 509.635 149.787 C 508.364 149.549 507.517 149.205 507.517 148.199 C 507.517 147.326 508.232 146.797 509.635 146.797 C 511.223 146.797 512.202 147.432 512.334 148.729 L 515.59 148.041 C 515.113 145.473 512.943 144.203 509.767 144.203 C 506.353 144.203 504.288 145.659 504.288 148.438 C 504.288 151.375 506.565 152.169 508.655 152.54 L 510.455 152.858 C 511.726 153.096 512.625 153.387 512.625 154.393 C 512.625 155.319 511.831 155.769 510.402 155.769 C 508.735 155.769 507.623 155.16 507.385 153.837 L 504.077 154.525 C 504.685 157.278 507.412 158.389 510.323 158.389 Z M 524.244 158.389 C 527.606 158.389 529.882 156.669 530.358 153.837 L 526.97 153.122 C 526.838 154.684 525.938 155.425 524.377 155.425 C 522.101 155.425 521.227 153.81 521.227 151.323 C 521.227 148.914 522.048 147.141 524.43 147.141 C 525.938 147.141 526.865 147.935 526.97 149.417 L 530.358 148.729 C 529.908 145.897 527.791 144.203 524.456 144.203 C 519.904 144.203 517.76 147.379 517.76 151.428 C 517.76 155.266 519.719 158.389 524.244 158.389 Z M 533.269 158.098 L 536.657 158.098 L 536.657 150.687 C 536.657 148.438 537.901 147.22 539.674 147.22 C 541.104 147.22 542.056 148.067 542.056 149.735 L 542.056 158.098 L 545.471 158.098 L 545.471 149.126 C 545.471 146.029 543.962 144.203 540.918 144.203 C 538.933 144.203 537.451 144.971 536.657 146.4 L 536.657 139.28 L 533.269 139.28 L 533.269 158.098 Z M 552.696 158.389 C 554.919 158.389 556.481 157.383 557.301 155.769 L 557.301 158.098 L 560.477 158.098 L 560.477 148.755 C 560.477 145.685 558.677 144.203 554.972 144.203 C 551.611 144.203 549.308 145.42 548.647 148.12 L 551.849 148.808 C 552.087 147.564 552.908 146.823 554.787 146.823 C 556.295 146.823 557.063 147.353 557.063 148.464 C 557.063 149.523 556.375 149.761 555.343 149.92 L 552.59 150.29 C 550.605 150.581 548.25 151.349 548.25 154.34 C 548.25 156.96 550.102 158.389 552.696 158.389 Z M 553.675 155.584 C 552.405 155.584 551.664 155.054 551.664 153.996 C 551.664 152.778 552.749 152.461 553.728 152.328 L 555.263 152.09 C 556.031 151.984 556.56 151.852 557.063 151.667 L 557.063 152.408 C 557.063 154.34 555.687 155.584 553.675 155.584 Z M 564.871 158.098 L 568.285 158.098 L 568.285 147.432 L 570.826 147.432 L 570.826 144.441 L 568.285 144.441 L 568.285 143.435 C 568.285 142.509 568.576 142.139 569.502 142.139 L 571.143 142.139 L 571.143 139.28 L 568.576 139.28 C 566.194 139.28 564.871 140.498 564.871 143.277 L 564.871 144.441 L 562.806 144.441 L 562.806 147.432 L 564.871 147.432 L 564.871 158.098 Z M 578.316 158.098 L 580.883 158.098 L 580.883 155.107 L 579.242 155.107 C 578.183 155.107 577.839 154.684 577.839 153.652 L 577.839 147.432 L 580.592 147.432 L 580.592 144.441 L 577.839 144.441 L 577.839 140.365 L 574.425 141.318 L 574.425 144.441 L 572.07 144.441 L 572.07 147.432 L 574.425 147.432 L 574.425 154.207 C 574.425 156.828 575.722 158.098 578.316 158.098 Z M 582.392 160.903 L 582.815 162.73 C 584.985 162.412 587.156 161.115 587.156 157.595 L 587.156 154.34 L 583.318 154.34 L 583.318 157.86 L 585.091 157.86 C 585.038 159.527 584.429 160.506 582.392 160.903 Z" stroke-linecap="round" />
</g>
<g transform="matrix(1 0 0 1 627.72 568.7)" clip-path="url(#CLIPPATH_9)"  >
<clipPath id="CLIPPATH_9" >
	<rect transform="matrix(1 0 0 1 -87.72 -28.7)" id="clip0_28_107" x="-287.1555" y="-41.35415" rx="0" ry="0" width="574.311" height="82.7083" />
</clipPath>
<path style="stroke: none; stroke-width: 1; stroke-dasharray: none; stroke-linecap: butt; stroke-dashoffset: 0; stroke-linejoin: miter; stroke-miterlimit: 4; fill: rgb(42,38,35); fill-rule: nonzero; opacity: 1;" vector-effect="non-scaling-stroke"  transform=" translate(-387.72, -177.7)" d="M 255.37 187.046 L 259.128 187.046 L 260.637 182.732 L 268.047 182.732 L 269.556 187.046 L 273.314 187.046 L 266.353 168.519 L 262.304 168.519 L 255.37 187.046 Z M 261.722 179.609 L 264.342 172.145 L 266.962 179.609 L 261.722 179.609 Z M 275.776 187.046 L 279.163 187.046 L 279.163 180.323 C 279.163 177.941 280.063 176.565 282.392 176.565 L 283.61 176.565 L 283.61 173.23 L 282.419 173.23 C 280.672 173.23 279.507 174.262 279.057 175.824 L 279.057 173.389 L 275.776 173.389 L 275.776 187.046 Z M 293.535 187.337 C 297.266 187.337 299.516 184.452 299.516 180.191 C 299.516 176.036 297.372 173.151 293.641 173.151 C 291.629 173.151 290.147 174.077 289.432 175.48 L 289.432 168.228 L 286.045 168.228 L 286.045 187.046 L 289.221 187.046 L 289.221 184.902 C 289.776 186.252 291.285 187.337 293.535 187.337 Z M 292.767 184.24 C 290.65 184.24 289.432 182.705 289.432 180.244 C 289.432 177.809 290.65 176.274 292.82 176.274 C 294.964 176.274 296.049 177.783 296.049 180.217 C 296.049 182.652 294.937 184.24 292.767 184.24 Z M 308.144 187.337 C 311.267 187.337 313.438 186.014 314.285 183.526 L 311.082 182.838 C 310.659 184.002 309.732 184.584 308.197 184.584 C 306.133 184.584 305.021 183.446 304.809 181.17 L 314.311 181.17 L 314.311 180.297 C 314.311 176.353 312.511 173.151 308.065 173.151 C 303.724 173.151 301.475 176.274 301.475 180.403 C 301.475 184.849 304.148 187.337 308.144 187.337 Z M 304.889 178.868 C 305.206 176.936 306.186 175.903 308.065 175.903 C 309.944 175.903 310.87 176.936 310.976 178.868 L 304.889 178.868 Z M 317.064 187.046 L 320.478 187.046 L 320.478 173.389 L 317.064 173.389 L 317.064 187.046 Z M 317.011 171.536 L 320.531 171.536 L 320.531 168.069 L 317.011 168.069 L 317.011 171.536 Z M 328.788 187.046 L 331.355 187.046 L 331.355 184.055 L 329.715 184.055 C 328.656 184.055 328.312 183.632 328.312 182.599 L 328.312 176.38 L 331.064 176.38 L 331.064 173.389 L 328.312 173.389 L 328.312 169.313 L 324.898 170.266 L 324.898 173.389 L 322.542 173.389 L 322.542 176.38 L 324.898 176.38 L 324.898 183.155 C 324.898 185.775 326.194 187.046 328.788 187.046 Z M 344.801 187.337 C 346.759 187.337 348.268 186.49 348.982 184.717 L 348.982 187.046 L 352.185 187.046 L 352.185 173.389 L 348.771 173.389 L 348.771 180.879 C 348.771 183.023 347.659 184.399 345.965 184.399 C 344.536 184.399 343.636 183.552 343.636 181.858 L 343.636 173.389 L 340.248 173.389 L 340.248 182.414 C 340.248 185.511 341.863 187.337 344.801 187.337 Z M 355.943 187.046 L 359.331 187.046 L 359.331 179.635 C 359.331 177.386 360.575 176.168 362.348 176.168 C 363.777 176.168 364.73 177.015 364.73 178.682 L 364.73 187.046 L 368.144 187.046 L 368.144 178.074 C 368.144 174.977 366.636 173.151 363.592 173.151 C 361.527 173.151 359.992 173.971 359.225 175.533 L 359.225 173.389 L 355.943 173.389 L 355.943 187.046 Z M 376.852 187.337 C 379.181 187.337 380.61 186.199 381.166 184.796 L 381.166 187.046 L 384.342 187.046 L 384.342 168.228 L 380.954 168.228 L 380.954 175.242 C 380.213 173.918 378.757 173.151 376.852 173.151 C 373.093 173.151 370.87 176.036 370.87 180.27 C 370.87 184.505 373.12 187.337 376.852 187.337 Z M 377.619 184.24 C 375.475 184.24 374.337 182.626 374.337 180.217 C 374.337 177.783 375.475 176.247 377.619 176.247 C 379.789 176.247 380.954 177.783 380.954 180.138 C 380.954 182.626 379.763 184.24 377.619 184.24 Z M 398.263 187.046 L 401.757 187.046 L 401.757 171.801 L 407.659 171.801 L 407.659 168.519 L 392.361 168.519 L 392.361 171.801 L 398.263 171.801 L 398.263 187.046 Z M 414.514 187.337 C 418.59 187.337 421.183 184.637 421.183 180.244 C 421.183 175.85 418.59 173.151 414.514 173.151 C 410.464 173.151 407.844 175.85 407.844 180.244 C 407.844 184.637 410.464 187.337 414.514 187.337 Z M 414.514 184.135 C 412.608 184.135 411.311 182.917 411.311 180.244 C 411.311 177.571 412.582 176.353 414.514 176.353 C 416.446 176.353 417.743 177.571 417.743 180.244 C 417.743 182.917 416.446 184.135 414.514 184.135 Z M 428.488 187.337 C 430.447 187.337 431.955 186.49 432.67 184.717 L 432.67 187.046 L 435.872 187.046 L 435.872 173.389 L 432.458 173.389 L 432.458 180.879 C 432.458 183.023 431.347 184.399 429.653 184.399 C 428.223 184.399 427.324 183.552 427.324 181.858 L 427.324 173.389 L 423.936 173.389 L 423.936 182.414 C 423.936 185.511 425.55 187.337 428.488 187.337 Z M 439.631 187.046 L 443.018 187.046 L 443.018 180.323 C 443.018 177.941 443.918 176.565 446.247 176.565 L 447.465 176.565 L 447.465 173.23 L 446.274 173.23 C 444.527 173.23 443.362 174.262 442.912 175.824 L 442.912 173.389 L 439.631 173.389 L 439.631 187.046 Z M 449.794 187.046 L 453.208 187.046 L 453.208 173.389 L 449.794 173.389 L 449.794 187.046 Z M 449.741 171.536 L 453.261 171.536 L 453.261 168.069 L 449.741 168.069 L 449.741 171.536 Z M 462.207 187.337 C 465.409 187.337 467.791 185.934 467.791 182.996 C 467.791 180.27 465.727 179.503 463.662 179.132 L 461.519 178.735 C 460.248 178.497 459.401 178.153 459.401 177.147 C 459.401 176.274 460.116 175.745 461.519 175.745 C 463.107 175.745 464.086 176.38 464.218 177.677 L 467.473 176.989 C 466.997 174.421 464.827 173.151 461.651 173.151 C 458.237 173.151 456.172 174.607 456.172 177.386 C 456.172 180.323 458.448 181.117 460.539 181.488 L 462.339 181.805 C 463.609 182.044 464.509 182.335 464.509 183.341 C 464.509 184.267 463.715 184.717 462.286 184.717 C 460.619 184.717 459.507 184.108 459.269 182.785 L 455.96 183.473 C 456.569 186.225 459.295 187.337 462.207 187.337 Z M 470.517 187.046 L 473.931 187.046 L 473.931 179.079 C 473.931 177.147 475.069 176.168 476.472 176.168 C 477.743 176.168 478.537 176.883 478.537 178.365 L 478.537 187.046 L 481.951 187.046 L 481.951 179.079 C 481.951 177.147 483.062 176.168 484.492 176.168 C 485.762 176.168 486.556 176.883 486.556 178.365 L 486.556 187.046 L 489.944 187.046 L 489.944 177.571 C 489.944 174.659 488.012 173.151 485.603 173.151 C 483.645 173.151 482.03 173.918 481.236 175.665 C 480.76 173.918 479.251 173.151 477.584 173.151 C 475.916 173.151 474.514 173.918 473.825 175.401 L 473.825 173.389 L 470.517 173.389 L 470.517 187.046 Z M 497.99 187.337 C 499.948 187.337 501.457 186.49 502.171 184.717 L 502.171 187.046 L 505.374 187.046 L 505.374 173.389 L 501.96 173.389 L 501.96 180.879 C 501.96 183.023 500.848 184.399 499.154 184.399 C 497.725 184.399 496.825 183.552 496.825 181.858 L 496.825 173.389 L 493.437 173.389 L 493.437 182.414 C 493.437 185.511 495.052 187.337 497.99 187.337 Z M 514.478 187.337 C 517.681 187.337 520.063 185.934 520.063 182.996 C 520.063 180.27 517.998 179.503 515.934 179.132 L 513.79 178.735 C 512.52 178.497 511.673 178.153 511.673 177.147 C 511.673 176.274 512.387 175.745 513.79 175.745 C 515.378 175.745 516.357 176.38 516.49 177.677 L 519.745 176.989 C 519.269 174.421 517.098 173.151 513.922 173.151 C 510.508 173.151 508.444 174.607 508.444 177.386 C 508.444 180.323 510.72 181.117 512.811 181.488 L 514.611 181.805 C 515.881 182.044 516.781 182.335 516.781 183.341 C 516.781 184.267 515.987 184.717 514.558 184.717 C 512.89 184.717 511.779 184.108 511.54 182.785 L 508.232 183.473 C 508.841 186.225 511.567 187.337 514.478 187.337 Z" stroke-linecap="round" />
</g>
</svg>